<?xml version="1.0" standalone="no"?>
<!DOCTYPE svg PUBLIC "-//W3C//DTD SVG 20010904//EN"
 "http://www.w3.org/TR/2001/REC-SVG-20010904/DTD/svg10.dtd">
<svg version="1.0"
    xmlns="http://www.w3.org/2000/svg" width="100px" height="100px" viewBox="0 0 1600.000000 1600.000000" preserveAspectRatio="xMidYMid meet">

    <g transform="translate(0.000000,1600.000000) scale(0.100000,-0.100000)" fill="#0087cb" stroke="none">
        <path d="M7610 15604 c-402 -20 -924 -94 -1340 -190 -497 -115 -1001 -289
-1470 -506 -122 -57 -384 -189 -451 -229 -37 -21 -70 -39 -73 -39 -3 0 -86
-48 -184 -107 -706 -425 -1337 -958 -1873 -1583 -114 -134 -324 -400 -390
-494 -19 -27 -47 -67 -63 -90 -521 -739 -929 -1628 -1141 -2486 -14 -58 -32
-130 -40 -160 -65 -258 -133 -696 -172 -1110 -24 -260 -24 -958 0 -1215 69
-722 177 -1241 389 -1865 286 -839 733 -1640 1311 -2350 61 -74 115 -139 121
-145 6 -5 57 -62 113 -125 56 -63 168 -181 250 -262 l148 -146 137 186 c140
192 531 720 763 1032 167 224 177 239 173 249 -2 4 -47 55 -100 112 -390 419
-769 989 -997 1499 -23 52 -46 102 -51 111 -33 63 -136 339 -200 539 -22 69
-47 145 -55 170 -16 49 -84 331 -109 450 -119 567 -144 1243 -70 1865 33 276
112 669 179 885 7 25 28 92 45 150 203 662 579 1359 1038 1920 590 721 1330
1284 2177 1655 190 83 444 176 715 260 67 21 311 80 425 104 786 161 1584 161
2370 0 240 -50 378 -87 650 -178 503 -168 914 -366 1340 -647 808 -531 1445
-1218 1918 -2069 167 -302 350 -729 447 -1045 17 -58 38 -125 45 -150 19 -60
69 -262 95 -380 132 -604 162 -1286 84 -1930 -18 -144 -47 -331 -70 -440 -25
-119 -93 -401 -109 -450 -8 -25 -33 -101 -55 -170 -64 -200 -167 -476 -200
-539 -5 -9 -28 -59 -51 -111 -189 -422 -499 -914 -817 -1295 -88 -105 -109
-128 -259 -288 l-93 -98 84 -122 c45 -67 179 -259 296 -427 117 -168 227 -325
244 -350 17 -25 119 -170 226 -324 l194 -278 241 244 c360 364 569 613 850
1013 537 763 948 1682 1164 2605 81 342 137 701 178 1135 24 257 24 955 0
1215 -39 414 -107 852 -172 1110 -8 30 -26 102 -40 160 -212 858 -620 1747
-1141 2486 -16 23 -44 63 -63 90 -66 94 -276 360 -390 494 -536 625 -1167
1158 -1873 1583 -98 59 -181 107 -184 107 -3 0 -36 18 -73 39 -67 40 -329 172
-451 229 -469 217 -973 391 -1470 506 -348 81 -661 130 -1085 172 -153 15
-848 27 -1035 18z m1176 -609 c101 -49 162 -123 179 -217 l7 -36 -54 -11
c-135 -26 -135 -26 -142 10 -17 85 -100 136 -207 126 -131 -12 -198 -121 -199
-323 0 -141 46 -238 126 -264 20 -7 66 -10 102 -8 63 4 67 6 108 51 23 26 45
61 49 77 4 16 10 32 15 35 15 9 180 -59 180 -74 0 -30 -72 -142 -113 -174 -86
-70 -120 -82 -242 -82 -145 0 -213 24 -295 104 -99 98 -137 212 -127 381 12
197 94 337 240 412 58 29 112 38 212 33 78 -3 98 -9 161 -40z m-1313 -82 c30
-65 105 -219 165 -343 60 -124 129 -268 155 -320 l45 -95 -36 -7 c-20 -4 -67
-7 -104 -7 l-68 -1 -45 96 -45 97 -117 -7 c-65 -3 -145 -9 -179 -12 l-60 -6
-11 -46 c-16 -66 -42 -154 -47 -159 -2 -3 -47 -7 -100 -10 -106 -7 -104 -8
-82 59 8 24 33 104 56 178 23 74 55 176 70 225 28 88 91 294 126 407 20 65 18
64 145 67 l75 1 57 -117z m2265 -88 c4 -4 -16 -86 -61 -252 l-25 -91 66 -16
c98 -23 252 -65 262 -71 5 -3 11 9 15 27 4 18 15 62 25 98 10 36 26 94 36 130
9 36 21 69 25 74 8 9 143 -18 169 -34 11 -7 7 -31 -20 -132 -18 -67 -41 -152
-51 -188 -9 -36 -33 -126 -53 -200 -20 -74 -49 -184 -65 -243 -16 -59 -31
-110 -33 -112 -4 -5 -164 32 -178 40 -4 2 10 67 31 142 43 151 61 234 55 241
-3 2 -56 17 -118 33 -62 16 -134 36 -159 43 l-46 14 -22 -82 c-13 -44 -32
-115 -43 -156 -30 -111 -39 -140 -44 -140 -3 0 -43 10 -90 21 l-86 22 5 31 c2
17 21 92 41 166 56 206 75 277 100 375 13 50 31 116 40 148 9 31 23 81 31 111
l15 54 87 -25 c49 -14 90 -26 91 -28z m-3440 -75 c118 -63 205 -187 237 -339
46 -221 -15 -389 -175 -485 -90 -55 -152 -71 -270 -71 -92 0 -112 3 -160 26
-130 61 -222 187 -260 357 -25 114 -25 159 -1 244 37 129 103 207 218 259 92
42 126 49 243 45 98 -2 110 -5 168 -36z m-1153 -532 c49 -101 138 -284 197
-406 60 -123 108 -225 106 -227 -2 -1 -40 -21 -86 -43 l-82 -41 -86 178 -86
178 -152 -75 c-83 -40 -153 -75 -154 -77 -2 -2 33 -79 77 -171 45 -91 81 -172
81 -178 0 -12 -156 -93 -164 -85 -4 4 -218 439 -338 688 -32 68 -58 124 -56
126 2 1 40 21 85 44 l83 41 77 -161 78 -160 156 77 156 76 -35 72 c-20 39 -55
110 -79 158 l-43 88 77 39 c43 22 83 40 89 41 6 0 50 -82 99 -182z m6185 -15
c0 -7 -36 -78 -81 -158 -44 -81 -79 -148 -77 -149 9 -8 130 -76 134 -76 3 0
39 -20 81 -45 42 -24 80 -42 84 -40 4 3 42 68 84 146 42 77 83 143 91 146 7 3
35 -8 61 -24 27 -16 61 -34 76 -41 25 -11 27 -14 16 -34 -14 -27 -285 -517
-371 -671 l-60 -108 -82 45 c-44 25 -80 50 -79 55 2 6 43 83 93 172 49 90 90
164 90 165 0 3 -90 53 -195 109 -38 21 -78 43 -87 49 -9 5 -19 8 -21 6 -3 -3
-46 -80 -97 -173 l-93 -167 -66 36 c-36 21 -74 42 -83 49 -15 10 7 55 204 408
l220 397 79 -43 c43 -23 79 -47 79 -54z m-3836 -215 c3 -29 6 -69 6 -89 l0
-36 -87 -6 c-48 -4 -88 -5 -90 -4 -1 2 -6 42 -9 89 l-7 86 29 5 c16 2 56 5 90
6 l61 1 7 -52z m-3964 -32 c0 -3 -6 -35 -14 -73 -8 -37 -17 -99 -21 -136 -7
-65 -9 -69 -51 -104 -25 -20 -46 -34 -48 -32 -5 6 -26 166 -26 199 0 21 16 40
73 88 65 56 87 70 87 58z m9298 -443 c37 -31 68 -60 70 -63 5 -12 -67 -20
-178 -20 l-106 0 -39 40 c-21 22 -37 41 -34 43 8 6 185 55 202 56 10 1 48 -25
85 -56z m-9460 6 c50 -13 92 -28 91 -34 0 -5 -23 -28 -52 -51 l-52 -41 -52 12
-53 12 0 -56 c0 -55 -1 -57 -51 -100 -27 -24 -52 -41 -54 -39 -9 9 -26 221
-18 228 55 52 121 100 133 97 8 -2 57 -14 108 -28z m287 -69 l45 -55 -32 -30
c-18 -17 -87 -75 -153 -130 -66 -54 -134 -112 -152 -128 l-32 -30 57 -68 c31
-37 60 -68 64 -68 4 -1 82 62 174 139 91 78 170 140 174 138 10 -4 100 -110
100 -117 -1 -3 -38 -36 -83 -73 -75 -61 -247 -204 -256 -214 -2 -2 29 -42 69
-89 45 -54 77 -84 86 -81 7 3 95 74 195 158 l182 152 48 -55 c27 -30 49 -59
49 -65 0 -6 -33 -38 -72 -71 -40 -33 -125 -104 -188 -158 -260 -219 -273 -229
-282 -206 -3 9 -302 368 -482 579 -48 57 -84 107 -80 112 89 79 508 420 515
418 5 -2 29 -28 54 -58z m8830 -24 c226 -102 342 -326 276 -534 -43 -132 -178
-288 -300 -345 -60 -29 -75 -32 -166 -32 -90 0 -106 3 -160 29 -106 51 -194
133 -247 231 -32 58 -33 64 -33 176 0 113 1 116 37 190 42 83 123 179 198 234
120 88 270 107 395 51z m-9734 -958 c16 -106 28 -206 29 -223 1 -62 -25 -56
488 -98 89 -8 165 -16 168 -20 11 -10 -137 -187 -156 -187 -27 0 -324 38 -389
50 -30 6 -60 10 -66 10 -8 0 -8 -23 1 -87 7 -49 13 -95 14 -103 0 -8 48 -51
105 -95 58 -43 105 -83 105 -88 0 -9 -102 -146 -110 -146 -3 0 -75 54 -161
122 -85 67 -244 191 -352 276 -108 84 -197 158 -197 163 0 11 48 76 88 120
l24 27 60 -47 c33 -26 100 -80 151 -119 50 -40 92 -72 93 -70 1 1 -4 40 -12
87 -9 47 -28 164 -44 260 l-28 174 75 98 c42 54 78 96 81 93 3 -3 18 -92 33
-197z m10788 -112 c34 -41 61 -79 61 -84 0 -6 -16 -39 -36 -74 -20 -34 -55
-97 -77 -138 -22 -41 -60 -108 -84 -148 -24 -41 -43 -76 -43 -78 0 -3 -26 -51
-59 -107 -32 -56 -76 -133 -97 -172 -63 -116 -69 -125 -79 -124 -5 0 -30 25
-55 56 -81 99 -79 81 -21 185 45 80 51 96 40 113 -13 22 -152 197 -185 234
l-22 23 -101 -34 -102 -35 -59 71 c-33 39 -60 76 -60 81 0 6 42 24 93 39 50
16 151 48 222 71 72 24 218 71 325 105 107 34 213 68 235 75 22 8 41 14 42 15
1 0 29 -33 62 -74z m713 -1288 c199 -93 327 -387 243 -561 -28 -59 -90 -130
-107 -125 -7 3 -35 35 -62 72 -34 47 -46 72 -40 81 41 55 48 73 52 125 3 42
-1 69 -15 101 -56 125 -156 174 -292 143 -71 -16 -164 -65 -214 -112 -77 -72
-95 -191 -45 -288 27 -51 119 -144 143 -144 7 0 33 9 58 20 l46 20 -31 68
c-17 37 -37 76 -45 87 -7 11 -13 23 -13 28 0 9 122 67 140 67 6 0 24 -28 39
-62 16 -35 52 -112 80 -171 28 -59 51 -112 51 -117 0 -5 -30 -24 -67 -41 -38
-17 -111 -52 -163 -76 l-95 -45 -45 23 c-90 48 -207 178 -252 279 -40 91 -43
108 -43 210 0 99 2 110 32 171 55 111 173 208 313 257 54 19 82 22 170 20 90
-3 113 -7 162 -30z m-11956 -69 c30 -17 54 -35 54 -41 0 -7 -121 -251 -147
-297 -4 -6 -163 72 -163 81 0 4 13 31 28 60 16 29 50 95 77 146 54 107 52 106
151 51z m-1337 -785 l64 -126 -13 -54 c-7 -30 -16 -54 -19 -54 -3 0 -17 13
-31 29 -14 16 -47 54 -73 84 l-48 56 22 95 c13 53 25 96 29 96 3 0 34 -57 69
-126z m740 -174 c276 -66 408 -243 373 -498 -20 -140 -110 -280 -217 -335
-132 -67 -313 -61 -478 17 -176 84 -269 252 -238 435 32 200 141 335 306 382
80 23 153 23 254 -1z m-580 -172 c-10 -39 -20 -72 -21 -73 -2 -1 -25 -11 -51
-22 l-48 -20 36 -43 c20 -24 34 -48 32 -54 -3 -6 -10 -37 -17 -68 -13 -59 -22
-70 -37 -44 -8 14 -51 65 -105 122 l-28 30 16 72 c9 39 21 77 27 85 11 13 178
82 208 86 4 1 -2 -31 -12 -71z m13661 48 c0 -7 9 -42 20 -76 11 -34 20 -68 20
-75 0 -6 -28 -20 -62 -30 -35 -10 -90 -26 -123 -35 -33 -10 -107 -32 -165 -48
-126 -36 -244 -70 -403 -116 -82 -24 -119 -31 -122 -23 -26 86 -47 168 -43
173 4 3 179 55 389 116 211 60 395 114 409 118 41 13 80 11 80 -4z m-575 -763
c83 -19 186 -43 230 -54 44 -10 130 -30 190 -44 61 -14 160 -37 220 -51 61
-14 114 -29 118 -33 15 -14 35 -191 23 -200 -10 -8 -361 -211 -456 -263 -93
-52 -144 -81 -253 -144 -62 -36 -116 -66 -122 -67 -5 -1 -15 32 -21 73 -22
129 -26 119 79 179 l93 53 -18 136 c-10 75 -21 155 -26 177 l-8 39 -69 12
c-136 23 -139 25 -146 75 -22 155 -22 162 -2 155 10 -4 86 -23 168 -43z
m-12947 -460 c4 -93 -6 -123 -51 -138 -20 -7 -43 -18 -51 -24 -28 -24 -46 -79
-46 -144 0 -56 4 -70 26 -96 31 -37 62 -40 92 -8 22 23 92 179 92 203 0 27 83
175 113 200 59 50 112 67 192 62 117 -8 202 -71 244 -183 37 -99 25 -276 -27
-384 -40 -85 -143 -152 -258 -168 l-44 -6 0 96 0 96 38 7 c54 9 106 46 127 90
27 57 25 160 -3 205 -36 58 -90 74 -134 39 -24 -19 -33 -38 -93 -195 -58 -152
-93 -204 -167 -241 -126 -64 -277 -8 -337 125 -19 44 -22 255 -3 318 29 98
117 185 204 203 79 15 83 13 86 -57z m13355 -1050 l39 -6 -4 -46 -3 -46 75 -7
c41 -4 128 -15 193 -24 l117 -17 0 -29 c0 -28 -16 -155 -44 -345 -16 -103 -42
-164 -94 -218 -85 -88 -186 -120 -351 -112 -161 7 -260 42 -349 122 -103 93
-127 197 -98 422 26 193 37 267 39 270 2 1 88 -8 193 -20 208 -25 202 -26 203
36 1 30 12 32 84 20z m-12699 -405 c2 -7 10 -48 18 -91 l14 -79 -90 -81 c-166
-151 -211 -192 -308 -277 -54 -47 -94 -86 -89 -88 5 -1 60 7 122 18 63 11 157
28 209 36 52 8 111 19 130 24 32 9 90 14 90 8 0 -2 6 -40 14 -85 12 -75 12
-83 -3 -87 -9 -2 -59 -12 -111 -21 -52 -9 -129 -23 -170 -30 -41 -8 -131 -23
-200 -35 -69 -11 -156 -27 -195 -35 -38 -8 -92 -17 -120 -20 -27 -4 -57 -9
-66 -11 -14 -4 -20 11 -34 87 l-16 91 42 36 c24 21 55 48 69 61 14 13 109 98
213 189 103 91 187 166 187 167 0 3 -23 -1 -295 -49 -110 -19 -218 -38 -241
-41 l-41 -6 -12 86 c-7 47 -12 87 -10 89 2 1 63 13 134 25 152 26 280 49 535
96 213 39 219 39 224 23z m12121 -788 c75 -21 543 -147 688 -185 48 -12 90
-25 94 -28 3 -3 -5 -44 -18 -91 -17 -61 -29 -86 -40 -86 -8 0 -107 25 -220 56
-112 30 -260 70 -329 88 -69 19 -165 44 -214 57 -48 13 -91 30 -94 37 -3 8 2
37 11 66 8 28 18 63 21 79 8 32 11 33 101 7z m1085 -233 c0 -8 -49 -180 -52
-183 -7 -6 -210 -94 -219 -94 -5 0 -6 6 -4 13 2 6 9 31 15 54 9 38 21 50 127
127 101 74 133 95 133 83z m-12963 -112 l35 -90 -82 -76 -82 -76 20 -49 c11
-27 37 -92 57 -144 19 -52 39 -104 43 -114 7 -17 20 -19 117 -20 l108 -1 27
-65 c15 -36 30 -77 34 -92 l6 -28 -480 0 -480 0 -14 23 c-8 12 -27 55 -42 96
-23 66 -24 76 -11 86 8 6 73 65 144 131 70 66 160 149 198 184 39 35 72 67 75
70 3 3 64 60 135 125 72 66 132 124 134 128 8 20 26 -6 58 -88z m11695 -249
c74 -34 312 -141 583 -260 82 -37 153 -70 158 -75 4 -4 -9 -44 -29 -88 -42
-93 -21 -84 -234 -108 -74 -9 -142 -18 -150 -20 -8 -2 -73 -11 -145 -20 -206
-24 -201 -21 -109 -62 369 -162 449 -197 453 -199 3 -3 -58 -144 -69 -156 -6
-8 -151 53 -555 237 -27 12 -99 44 -160 71 -60 26 -112 49 -114 51 -5 3 59
154 71 168 4 5 68 17 141 27 72 10 202 27 287 39 85 11 175 24 200 27 l45 7
-35 14 c-39 16 -61 25 -304 135 -92 42 -172 76 -177 76 -12 0 -12 2 12 57 11
26 27 63 34 81 8 17 16 32 19 32 3 0 38 -15 78 -34z m-12536 -268 c3 -18 13
-47 21 -64 14 -29 14 -33 -11 -72 -14 -23 -26 -45 -26 -50 0 -4 22 -14 49 -21
49 -12 50 -14 75 -79 14 -36 24 -67 22 -69 -1 -2 -51 9 -110 24 l-107 27 -18
41 c-49 111 -49 106 16 205 32 49 63 90 70 90 6 0 15 -15 19 -32z m1249 -652
c62 -16 118 -51 166 -102 37 -41 54 -66 136 -199 28 -44 66 -105 86 -137 l36
-56 -67 -43 c-83 -53 -157 -99 -262 -164 -45 -27 -107 -66 -138 -86 -31 -19
-95 -59 -142 -88 -47 -30 -102 -65 -123 -79 -20 -14 -39 -23 -41 -21 -6 8 -75
116 -141 223 -105 169 -120 207 -120 301 0 110 30 173 127 269 87 85 194 148
298 175 90 24 119 25 185 7z m10761 -124 c21 -15 82 -58 134 -94 114 -78 517
-360 545 -381 19 -14 19 -16 -30 -87 -27 -39 -53 -74 -57 -76 -5 -3 -68 37
-141 88 -72 52 -137 97 -143 101 -6 3 -33 -26 -63 -71 -28 -42 -72 -104 -96
-137 -24 -33 -44 -63 -44 -66 -1 -3 62 -50 139 -104 77 -54 140 -101 140 -106
0 -10 -88 -137 -101 -144 -5 -4 -123 73 -262 171 -138 97 -288 202 -332 233
-44 30 -97 67 -117 81 l-36 27 44 64 c68 97 61 94 127 49 138 -96 165 -115
210 -148 27 -19 52 -31 56 -26 39 43 192 277 184 282 -114 77 -303 216 -303
223 0 13 92 148 101 149 3 0 24 -13 45 -28z"/>
        <path d="M7320 14777 c0 -8 -9 -44 -20 -80 -11 -37 -29 -97 -40 -134 -11 -36
-20 -70 -20 -75 0 -9 87 -9 171 1 l57 6 -34 70 c-18 39 -49 105 -68 148 -35
75 -46 91 -46 64z"/>
        <path d="M6025 14616 c-70 -22 -102 -44 -133 -92 -55 -81 -54 -201 0 -331 51
-123 139 -182 255 -170 103 11 172 73 199 177 14 56 14 68 -1 143 -31 156 -91
243 -187 272 -61 18 -80 18 -133 1z"/>
        <path d="M12270 13257 c-46 -15 -168 -137 -205 -207 -68 -129 -17 -282 112
-337 46 -19 140 -16 189 6 87 40 187 157 219 256 15 50 16 65 5 113 -14 65
-72 135 -135 163 -45 21 -130 23 -185 6z"/>
        <path d="M13325 12196 c-16 -7 -82 -30 -145 -51 -63 -21 -118 -41 -122 -44 -8
-7 119 -171 132 -171 5 0 32 39 60 88 28 48 65 109 81 136 17 27 29 50 27 51
-2 2 -16 -2 -33 -9z"/>
        <path d="M1429 9833 c-65 -34 -105 -87 -119 -161 -33 -176 100 -300 331 -310
82 -4 101 -1 136 17 134 68 175 250 80 357 -44 51 -95 81 -179 104 -105 29
-181 27 -249 -7z"/>
        <path d="M14430 8893 c0 -23 30 -197 35 -201 2 -2 68 31 146 74 133 73 141 79
113 85 -61 15 -279 59 -286 59 -5 0 -8 -8 -8 -17z"/>
        <path d="M14266 7378 c-10 -36 -20 -223 -12 -251 17 -69 122 -120 275 -135
155 -15 231 10 272 91 16 30 54 235 46 243 -2 3 -221 31 -224 29 -1 0 -7 -42
-14 -93 -13 -102 -8 -97 -92 -86 -43 6 -46 8 -41 33 3 14 8 56 13 93 l7 67
-65 10 c-158 24 -158 24 -165 -1z"/>
        <path d="M1884 5737 c-6 -7 -59 -55 -118 -107 l-108 -95 158 -3 c86 -1 159 -1
161 2 5 4 -36 115 -65 178 -13 27 -20 33 -28 25z"/>
        <path d="M2423 4740 c-116 -41 -238 -134 -273 -206 -25 -51 -23 -109 6 -167
21 -40 95 -157 101 -157 2 0 16 8 31 19 15 10 124 78 242 152 118 73 217 134
219 135 10 8 -133 207 -161 224 -41 25 -97 25 -165 0z"/>
        <path d="M7625 13680 c-591 -35 -1319 -208 -1850 -440 -501 -218 -907 -461
-1316 -786 -437 -347 -850 -791 -1162 -1249 -590 -867 -928 -1876 -978 -2920
-34 -703 62 -1416 277 -2065 257 -774 676 -1483 1242 -2099 l59 -64 103 139
c118 160 216 293 333 449 45 61 150 202 232 313 83 112 178 240 211 285 34 45
126 170 206 277 184 248 316 426 493 665 239 322 439 591 719 971 151 204 136
171 216 444 25 85 118 411 136 475 7 28 28 102 47 165 l33 116 -275 201 c-356
260 -654 478 -710 517 -24 17 -108 78 -186 136 -78 58 -160 119 -183 135 -64
45 -112 80 -455 330 -174 126 -313 233 -309 236 4 4 480 12 1057 19 578 7
1176 16 1329 19 l279 6 12 40 c7 22 45 132 85 245 40 113 78 223 86 245 7 22
38 112 69 200 32 88 65 185 75 215 11 30 28 80 39 110 10 30 58 168 106 305
48 138 121 347 162 465 41 118 97 279 124 358 77 225 65 224 139 15 34 -98 85
-241 112 -318 27 -77 65 -183 83 -235 18 -52 59 -167 90 -255 31 -88 85 -241
120 -340 34 -99 84 -238 109 -310 26 -71 69 -193 95 -270 27 -77 79 -225 116
-330 37 -104 68 -196 70 -202 4 -10 281 -13 1342 -13 l1338 -1 -33 -26 c-18
-14 -90 -65 -160 -112 -70 -48 -176 -121 -237 -162 -60 -42 -204 -141 -320
-219 -115 -79 -271 -186 -345 -236 -74 -51 -198 -136 -275 -188 -175 -119
-353 -240 -470 -321 -87 -59 -317 -217 -322 -220 -2 -1 13 -57 33 -126 20 -68
40 -142 45 -164 6 -22 16 -58 23 -80 8 -22 30 -98 50 -170 20 -71 41 -144 46
-161 6 -17 30 -101 55 -187 34 -121 52 -167 81 -209 38 -54 326 -465 354 -505
8 -12 56 -79 105 -150 50 -70 354 -504 676 -963 322 -459 704 -1004 849 -1210
145 -206 279 -399 299 -428 l36 -53 93 98 c51 54 150 165 219 247 474 563 827
1193 1057 1886 169 510 266 1067 281 1615 23 834 -126 1632 -448 2390 -142
336 -321 664 -525 965 -317 469 -728 912 -1171 1264 -369 293 -763 536 -1171
721 -236 107 -337 147 -590 231 -360 121 -740 202 -1181 254 -199 23 -733 34
-974 20z m-1195 -2229 c291 -100 479 -378 456 -676 -12 -163 -75 -296 -200
-421 -103 -103 -203 -155 -351 -180 -84 -14 -111 -15 -189 -4 -253 34 -449
192 -540 435 -28 74 -30 90 -31 215 0 107 4 147 19 190 71 208 227 371 418
434 108 36 103 35 233 32 92 -2 135 -8 185 -25z m3449 8 c220 -60 377 -210
459 -434 23 -62 26 -85 26 -200 0 -113 -3 -140 -26 -205 -34 -99 -84 -182
-152 -252 -322 -334 -871 -243 -1072 177 -60 126 -77 269 -48 410 51 245 230
435 476 506 90 25 242 25 337 -2z m-4739 -2639 c508 -154 824 -655 735 -1166
-70 -399 -343 -705 -740 -831 -86 -27 -99 -28 -285 -28 -194 0 -196 0 -300 33
-355 114 -617 388 -711 747 -20 77 -23 113 -23 250 0 141 4 171 27 257 98 356
358 629 701 733 132 40 166 44 336 41 140 -3 165 -7 260 -36z m6295 5 c634
-187 941 -873 655 -1460 -134 -272 -384 -473 -689 -552 -89 -23 -108 -24 -271
-20 -137 4 -189 9 -240 25 -208 64 -321 132 -465 276 -160 160 -252 336 -290
550 -94 542 246 1058 785 1190 100 24 105 25 270 21 133 -3 168 -7 245 -30z"/>
        <path d="M7905 7316 c-194 -149 -731 -554 -847 -638 -143 -105 -138 -95 -113
-219 7 -41 32 -189 55 -329 22 -140 47 -293 55 -340 8 -47 31 -184 50 -305 19
-121 42 -258 50 -305 8 -47 33 -197 55 -335 22 -137 47 -288 55 -335 8 -47 40
-238 70 -425 30 -187 63 -394 75 -460 11 -66 35 -217 55 -335 19 -118 41 -255
50 -305 27 -164 46 -278 76 -463 16 -104 36 -193 45 -207 9 -14 16 -46 16 -77
0 -29 7 -93 14 -143 18 -120 80 -507 99 -620 19 -109 43 -258 56 -340 5 -33
18 -116 29 -185 12 -69 27 -170 35 -225 8 -55 19 -120 24 -145 6 -25 15 -78
21 -118 l12 -73 129 2 c89 1 129 5 129 13 0 24 31 269 34 275 2 3 9 51 15 106
6 55 18 143 26 195 8 52 24 167 35 255 12 88 27 198 35 245 7 47 16 114 20
150 3 36 12 106 20 155 28 182 47 340 50 420 2 46 10 105 19 131 8 27 22 99
31 159 21 158 64 472 80 600 8 61 22 157 30 215 9 58 31 222 50 365 19 143 42
307 50 365 17 121 38 271 66 485 11 83 28 213 39 290 11 77 22 160 25 185 3
25 12 88 20 140 8 52 31 217 50 365 20 149 42 315 50 370 8 55 26 183 40 285
13 102 32 240 41 308 10 67 15 124 13 125 -11 9 -770 575 -874 653 -66 49
-133 99 -150 110 l-30 22 -80 -62z"/>
        <path d="M4949 2106 c-2 -2 -344 -11 -759 -20 -415 -9 -796 -19 -847 -22 l-92
-6 27 -23 c94 -79 406 -304 572 -412 213 -139 575 -346 765 -437 163 -79 287
-137 355 -165 41 -18 84 -36 95 -41 58 -26 147 -61 150 -58 2 3 22 593 32 991
l6 197 -150 0 c-82 0 -152 -2 -154 -4z"/>
        <path d="M10747 1853 c-13 -525 -20 -953 -15 -953 6 0 169 64 203 80 11 5 54
23 95 41 161 68 489 229 618 303 35 20 66 36 68 36 18 0 454 273 617 387 171
119 477 350 477 360 0 2 -463 3 -1028 3 l-1029 0 -6 -257z"/>
    </g>
</svg>