<svg width="70" height="70" viewBox="0 0 70 70" fill="none" xmlns="http://www.w3.org/2000/svg">
<path d="M8.69922 34.5776C8.69922 20.0397 20.4845 8.25447 35.0223 8.25447C49.5602 8.25447 61.3455 20.0397 61.3455 34.5776C61.3455 49.1154 49.5602 60.9007 35.0223 60.9007C20.4845 60.9007 8.69922 49.1154 8.69922 34.5776Z" fill="#009EB4"/>
<path d="M34.3537 51.0462C33.0835 50.8442 32.0139 49.9012 30.5431 48.4195C26.1309 44.2435 21.5849 33.0628 20.9833 23.6333H26.3314C27.7353 33.5343 29.9414 40.2697 34.6879 45.7253C37.0277 43.5027 38.9664 40.4044 40.3035 37.9123C37.6963 36.6999 36.2255 34.4098 35.4234 32.3218C32.9498 25.8559 35.0891 18.9858 42.1086 18.7837C47.2561 18.7837 48.9943 22.6902 49.0611 26.3947C48.9943 28.6174 48.66 30.1665 47.9915 32.0525C46.5207 32.3892 44.9832 31.9851 44.0472 31.3116C43.3119 30.7728 43.0445 31.0421 43.5124 29.5603C44.0472 27.6745 44.2478 23.5659 41.7075 23.4985C39.9692 23.6332 39.5013 25.7885 39.5013 27.2703C39.9693 33.3322 43.8467 36.0263 48.9943 34.6793V38.5858C47.323 38.9899 47.2561 38.9899 45.1837 39.0573C43.9804 41.8861 37.4289 51.6525 34.2869 51.0462H34.3537Z" fill="white"/>
</svg>
