<svg width="320" height="1080" viewBox="0 0 320 1080" fill="none" xmlns="http://www.w3.org/2000/svg">
<rect width="320" height="1080" rx="20" fill="black"/>
<rect x="26" y="296" width="267" height="50" rx="25" fill="#373737"/>
<path fill-rule="evenodd" clip-rule="evenodd" d="M51.698 311.799C52.0606 311.488 52.5224 311.317 53 311.317C53.4776 311.317 53.9395 311.488 54.302 311.799L60.638 317.229L63.125 319.219C63.2276 319.301 63.313 319.403 63.3763 319.518C63.4397 319.633 63.4797 319.759 63.4942 319.89C63.5087 320.02 63.4973 320.152 63.4607 320.279C63.4242 320.405 63.3631 320.522 63.281 320.625C63.1989 320.728 63.0975 320.813 62.9824 320.876C62.8673 320.94 62.7409 320.98 62.6103 320.994C62.4798 321.009 62.3476 320.997 62.2215 320.961C62.0953 320.924 61.9776 320.863 61.875 320.781L61 320.081V328C61 328.53 60.7893 329.039 60.4142 329.414C60.0392 329.789 59.5304 330 59 330H55V325C55 324.47 54.7893 323.961 54.4142 323.586C54.0392 323.211 53.5304 323 53 323C52.4696 323 51.9609 323.211 51.5858 323.586C51.2107 323.961 51 324.47 51 325V330H47C46.4696 330 45.9609 329.789 45.5858 329.414C45.2107 329.039 45 328.53 45 328V320.08L44.125 320.78C44.0231 320.867 43.9048 320.933 43.7771 320.973C43.6494 321.013 43.5149 321.028 43.3815 321.015C43.2482 321.002 43.1187 320.963 43.0008 320.9C42.8829 320.836 42.779 320.749 42.6953 320.645C42.6115 320.54 42.5496 320.42 42.5132 320.291C42.4769 320.162 42.4667 320.027 42.4835 319.894C42.5003 319.761 42.5436 319.633 42.6108 319.517C42.6781 319.402 42.7679 319.3 42.875 319.22L45.362 317.23L51.698 311.799V311.799Z" fill="#D0D0D0"/>
<path d="M90.0625 328H88.5547V322.742H82.8203V328H81.3203V316.625H82.8203V321.516H88.5547V316.625H90.0625V328ZM92.1172 323.695C92.1172 322.867 92.2786 322.122 92.6016 321.461C92.9297 320.799 93.3828 320.289 93.9609 319.93C94.5443 319.57 95.2083 319.391 95.9531 319.391C97.1042 319.391 98.0339 319.789 98.7422 320.586C99.4557 321.383 99.8125 322.443 99.8125 323.766V323.867C99.8125 324.69 99.6536 325.43 99.3359 326.086C99.0234 326.737 98.5729 327.245 97.9844 327.609C97.401 327.974 96.7292 328.156 95.9688 328.156C94.8229 328.156 93.8932 327.758 93.1797 326.961C92.4714 326.164 92.1172 325.109 92.1172 323.797V323.695ZM93.5703 323.867C93.5703 324.805 93.7865 325.557 94.2188 326.125C94.6562 326.693 95.2396 326.977 95.9688 326.977C96.7031 326.977 97.2865 326.69 97.7188 326.117C98.151 325.539 98.3672 324.732 98.3672 323.695C98.3672 322.768 98.1458 322.018 97.7031 321.445C97.2656 320.867 96.6823 320.578 95.9531 320.578C95.2396 320.578 94.6641 320.862 94.2266 321.43C93.7891 321.997 93.5703 322.81 93.5703 323.867ZM102.984 319.547L103.023 320.484C103.643 319.755 104.479 319.391 105.531 319.391C106.714 319.391 107.518 319.844 107.945 320.75C108.227 320.344 108.591 320.016 109.039 319.766C109.492 319.516 110.026 319.391 110.641 319.391C112.495 319.391 113.438 320.372 113.469 322.336V328H112.023V322.422C112.023 321.818 111.885 321.367 111.609 321.07C111.333 320.768 110.87 320.617 110.219 320.617C109.682 320.617 109.237 320.779 108.883 321.102C108.529 321.419 108.323 321.849 108.266 322.391V328H106.812V322.461C106.812 321.232 106.211 320.617 105.008 320.617C104.06 320.617 103.411 321.021 103.062 321.828V328H101.617V319.547H102.984ZM119.164 328.156C118.018 328.156 117.086 327.781 116.367 327.031C115.648 326.276 115.289 325.268 115.289 324.008V323.742C115.289 322.904 115.448 322.156 115.766 321.5C116.089 320.839 116.536 320.323 117.109 319.953C117.688 319.578 118.312 319.391 118.984 319.391C120.083 319.391 120.938 319.753 121.547 320.477C122.156 321.201 122.461 322.237 122.461 323.586V324.188H116.734C116.755 325.021 116.997 325.695 117.461 326.211C117.93 326.721 118.523 326.977 119.242 326.977C119.753 326.977 120.185 326.872 120.539 326.664C120.893 326.456 121.203 326.18 121.469 325.836L122.352 326.523C121.643 327.612 120.581 328.156 119.164 328.156ZM118.984 320.578C118.401 320.578 117.911 320.792 117.516 321.219C117.12 321.641 116.875 322.234 116.781 323H121.016V322.891C120.974 322.156 120.776 321.589 120.422 321.188C120.068 320.781 119.589 320.578 118.984 320.578Z" fill="#D0D0D0"/>
<path fill-rule="evenodd" clip-rule="evenodd" d="M44 393C44 393.796 44.3161 394.559 44.8787 395.121C45.4413 395.684 46.2044 396 47 396H59C59.7956 396 60.5587 395.684 61.1213 395.121C61.6839 394.559 62 393.796 62 393V382.828C61.9996 382.033 61.6834 381.27 61.121 380.708L57.293 376.878C56.7304 376.316 55.9674 376 55.172 376H47C46.2044 376 45.4413 376.316 44.8787 376.879C44.3161 377.441 44 378.204 44 379V393ZM49 386C48.7348 386 48.4804 386.105 48.2929 386.293C48.1054 386.48 48 386.735 48 387C48 387.265 48.1054 387.52 48.2929 387.707C48.4804 387.895 48.7348 388 49 388H57C57.2652 388 57.5196 387.895 57.7071 387.707C57.8946 387.52 58 387.265 58 387C58 386.735 57.8946 386.48 57.7071 386.293C57.5196 386.105 57.2652 386 57 386H49ZM49 390C48.7348 390 48.4804 390.105 48.2929 390.293C48.1054 390.48 48 390.735 48 391C48 391.265 48.1054 391.52 48.2929 391.707C48.4804 391.895 48.7348 392 49 392H53C53.2652 392 53.5196 391.895 53.7071 391.707C53.8946 391.52 54 391.265 54 391C54 390.735 53.8946 390.48 53.7071 390.293C53.5196 390.105 53.2652 390 53 390H49Z" fill="#373737"/>
<path d="M82.8203 388.547V393H81.3203V381.625H85.5156C86.7604 381.625 87.7344 381.943 88.4375 382.578C89.1458 383.214 89.5 384.055 89.5 385.102C89.5 386.206 89.1536 387.057 88.4609 387.656C87.7734 388.25 86.7865 388.547 85.5 388.547H82.8203ZM82.8203 387.32H85.5156C86.3177 387.32 86.9323 387.133 87.3594 386.758C87.7865 386.378 88 385.831 88 385.117C88 384.44 87.7865 383.898 87.3594 383.492C86.9323 383.086 86.3464 382.875 85.6016 382.859H82.8203V387.32ZM90.6953 388.695C90.6953 387.867 90.8568 387.122 91.1797 386.461C91.5078 385.799 91.9609 385.289 92.5391 384.93C93.1224 384.57 93.7865 384.391 94.5312 384.391C95.6823 384.391 96.612 384.789 97.3203 385.586C98.0339 386.383 98.3906 387.443 98.3906 388.766V388.867C98.3906 389.69 98.2318 390.43 97.9141 391.086C97.6016 391.737 97.151 392.245 96.5625 392.609C95.9792 392.974 95.3073 393.156 94.5469 393.156C93.401 393.156 92.4714 392.758 91.7578 391.961C91.0495 391.164 90.6953 390.109 90.6953 388.797V388.695ZM92.1484 388.867C92.1484 389.805 92.3646 390.557 92.7969 391.125C93.2344 391.693 93.8177 391.977 94.5469 391.977C95.2812 391.977 95.8646 391.69 96.2969 391.117C96.7292 390.539 96.9453 389.732 96.9453 388.695C96.9453 387.768 96.724 387.018 96.2812 386.445C95.8438 385.867 95.2604 385.578 94.5312 385.578C93.8177 385.578 93.2422 385.862 92.8047 386.43C92.3672 386.997 92.1484 387.81 92.1484 388.867ZM103.594 391.977C104.109 391.977 104.56 391.82 104.945 391.508C105.331 391.195 105.544 390.805 105.586 390.336H106.953C106.927 390.82 106.76 391.281 106.453 391.719C106.146 392.156 105.734 392.505 105.219 392.766C104.708 393.026 104.167 393.156 103.594 393.156C102.443 393.156 101.526 392.773 100.844 392.008C100.167 391.237 99.8281 390.185 99.8281 388.852V388.609C99.8281 387.786 99.9792 387.055 100.281 386.414C100.583 385.773 101.016 385.276 101.578 384.922C102.146 384.568 102.815 384.391 103.586 384.391C104.534 384.391 105.32 384.674 105.945 385.242C106.576 385.81 106.911 386.547 106.953 387.453H105.586C105.544 386.906 105.336 386.458 104.961 386.109C104.591 385.755 104.133 385.578 103.586 385.578C102.852 385.578 102.281 385.844 101.875 386.375C101.474 386.901 101.273 387.664 101.273 388.664V388.938C101.273 389.911 101.474 390.661 101.875 391.188C102.276 391.714 102.849 391.977 103.594 391.977ZM110.938 389.086L110.031 390.031V393H108.586V381H110.031V388.258L110.805 387.328L113.438 384.547H115.195L111.906 388.078L115.578 393H113.883L110.938 389.086ZM120.039 393.156C118.893 393.156 117.961 392.781 117.242 392.031C116.523 391.276 116.164 390.268 116.164 389.008V388.742C116.164 387.904 116.323 387.156 116.641 386.5C116.964 385.839 117.411 385.323 117.984 384.953C118.562 384.578 119.188 384.391 119.859 384.391C120.958 384.391 121.812 384.753 122.422 385.477C123.031 386.201 123.336 387.237 123.336 388.586V389.188H117.609C117.63 390.021 117.872 390.695 118.336 391.211C118.805 391.721 119.398 391.977 120.117 391.977C120.628 391.977 121.06 391.872 121.414 391.664C121.768 391.456 122.078 391.18 122.344 390.836L123.227 391.523C122.518 392.612 121.456 393.156 120.039 393.156ZM119.859 385.578C119.276 385.578 118.786 385.792 118.391 386.219C117.995 386.641 117.75 387.234 117.656 388H121.891V387.891C121.849 387.156 121.651 386.589 121.297 386.188C120.943 385.781 120.464 385.578 119.859 385.578ZM126.977 382.5V384.547H128.555V385.664H126.977V390.906C126.977 391.245 127.047 391.5 127.188 391.672C127.328 391.839 127.568 391.922 127.906 391.922C128.073 391.922 128.302 391.891 128.594 391.828V393C128.214 393.104 127.844 393.156 127.484 393.156C126.839 393.156 126.352 392.961 126.023 392.57C125.695 392.18 125.531 391.625 125.531 390.906V385.664H123.992V384.547H125.531V382.5H126.977Z" fill="#707070"/>
<path fill-rule="evenodd" clip-rule="evenodd" d="M49 441C49.2652 441 49.5196 441.105 49.7071 441.293C49.8946 441.48 50 441.735 50 442V443H56V442C56 441.735 56.1054 441.48 56.2929 441.293C56.4804 441.105 56.7348 441 57 441C57.2652 441 57.5196 441.105 57.7071 441.293C57.8946 441.48 58 441.735 58 442V443H59C59.7956 443 60.5587 443.316 61.1213 443.879C61.6839 444.441 62 445.204 62 446V447H44V446C44 445.204 44.3161 444.441 44.8787 443.879C45.4413 443.316 46.2044 443 47 443H48V442C48 441.735 48.1054 441.48 48.2929 441.293C48.4804 441.105 48.7348 441 49 441ZM44 449V458C44 458.796 44.3161 459.559 44.8787 460.121C45.4413 460.684 46.2044 461 47 461H59C59.7956 461 60.5587 460.684 61.1213 460.121C61.6839 459.559 62 458.796 62 458V449H44Z" fill="#373737"/>
<path d="M90.0625 458H88.5547V452.742H82.8203V458H81.3203V446.625H82.8203V451.516H88.5547V446.625H90.0625V458ZM94.0703 458H92.625V449.547H94.0703V458ZM92.5078 447.305C92.5078 447.07 92.5781 446.872 92.7188 446.711C92.8646 446.549 93.0781 446.469 93.3594 446.469C93.6406 446.469 93.8542 446.549 94 446.711C94.1458 446.872 94.2188 447.07 94.2188 447.305C94.2188 447.539 94.1458 447.734 94 447.891C93.8542 448.047 93.6406 448.125 93.3594 448.125C93.0781 448.125 92.8646 448.047 92.7188 447.891C92.5781 447.734 92.5078 447.539 92.5078 447.305ZM101.312 455.758C101.312 455.367 101.164 455.065 100.867 454.852C100.576 454.633 100.062 454.445 99.3281 454.289C98.599 454.133 98.0182 453.945 97.5859 453.727C97.1589 453.508 96.8411 453.247 96.6328 452.945C96.4297 452.643 96.3281 452.284 96.3281 451.867C96.3281 451.174 96.6198 450.589 97.2031 450.109C97.7917 449.63 98.5417 449.391 99.4531 449.391C100.411 449.391 101.188 449.638 101.781 450.133C102.38 450.628 102.68 451.26 102.68 452.031H101.227C101.227 451.635 101.057 451.294 100.719 451.008C100.385 450.721 99.9635 450.578 99.4531 450.578C98.9271 450.578 98.5156 450.693 98.2188 450.922C97.9219 451.151 97.7734 451.451 97.7734 451.82C97.7734 452.169 97.9115 452.432 98.1875 452.609C98.4635 452.786 98.9609 452.956 99.6797 453.117C100.404 453.279 100.99 453.471 101.438 453.695C101.885 453.919 102.216 454.19 102.43 454.508C102.648 454.82 102.758 455.203 102.758 455.656C102.758 456.411 102.456 457.018 101.852 457.477C101.247 457.93 100.464 458.156 99.5 458.156C98.8229 458.156 98.224 458.036 97.7031 457.797C97.1823 457.557 96.7734 457.224 96.4766 456.797C96.1849 456.365 96.0391 455.898 96.0391 455.398H97.4844C97.5104 455.883 97.7031 456.268 98.0625 456.555C98.4271 456.836 98.9062 456.977 99.5 456.977C100.047 456.977 100.484 456.867 100.812 456.648C101.146 456.424 101.312 456.128 101.312 455.758ZM106.602 447.5V449.547H108.18V450.664H106.602V455.906C106.602 456.245 106.672 456.5 106.812 456.672C106.953 456.839 107.193 456.922 107.531 456.922C107.698 456.922 107.927 456.891 108.219 456.828V458C107.839 458.104 107.469 458.156 107.109 458.156C106.464 458.156 105.977 457.961 105.648 457.57C105.32 457.18 105.156 456.625 105.156 455.906V450.664H103.617V449.547H105.156V447.5H106.602ZM109.336 453.695C109.336 452.867 109.497 452.122 109.82 451.461C110.148 450.799 110.602 450.289 111.18 449.93C111.763 449.57 112.427 449.391 113.172 449.391C114.323 449.391 115.253 449.789 115.961 450.586C116.674 451.383 117.031 452.443 117.031 453.766V453.867C117.031 454.69 116.872 455.43 116.555 456.086C116.242 456.737 115.792 457.245 115.203 457.609C114.62 457.974 113.948 458.156 113.188 458.156C112.042 458.156 111.112 457.758 110.398 456.961C109.69 456.164 109.336 455.109 109.336 453.797V453.695ZM110.789 453.867C110.789 454.805 111.005 455.557 111.438 456.125C111.875 456.693 112.458 456.977 113.188 456.977C113.922 456.977 114.505 456.69 114.938 456.117C115.37 455.539 115.586 454.732 115.586 453.695C115.586 452.768 115.365 452.018 114.922 451.445C114.484 450.867 113.901 450.578 113.172 450.578C112.458 450.578 111.883 450.862 111.445 451.43C111.008 451.997 110.789 452.81 110.789 453.867ZM122.93 450.844C122.711 450.807 122.474 450.789 122.219 450.789C121.271 450.789 120.628 451.193 120.289 452V458H118.844V449.547H120.25L120.273 450.523C120.747 449.768 121.419 449.391 122.289 449.391C122.57 449.391 122.784 449.427 122.93 449.5V450.844ZM127.172 455.883L129.141 449.547H130.688L127.289 459.305C126.763 460.711 125.927 461.414 124.781 461.414L124.508 461.391L123.969 461.289V460.117L124.359 460.148C124.849 460.148 125.229 460.049 125.5 459.852C125.776 459.654 126.003 459.292 126.18 458.766L126.5 457.906L123.484 449.547H125.062L127.172 455.883Z" fill="#707070"/>
<rect x="251.5" y="439.5" width="23" height="23" rx="4.5" fill="#9DF0D6" stroke="#9DF0D6"/>
<path d="M264.758 444.57V446.141H264.523C263.461 446.156 262.612 446.448 261.977 447.016C261.341 447.583 260.964 448.388 260.844 449.43C261.453 448.789 262.232 448.469 263.18 448.469C264.185 448.469 264.977 448.823 265.555 449.531C266.138 450.24 266.43 451.154 266.43 452.273C266.43 453.43 266.089 454.367 265.406 455.086C264.729 455.799 263.839 456.156 262.734 456.156C261.599 456.156 260.677 455.737 259.969 454.898C259.266 454.06 258.914 452.961 258.914 451.602V450.953C258.914 448.958 259.398 447.396 260.367 446.266C261.341 445.135 262.74 444.57 264.562 444.57H264.758ZM262.719 450C262.302 450 261.919 450.117 261.57 450.352C261.227 450.586 260.974 450.898 260.812 451.289V451.867C260.812 452.711 260.99 453.383 261.344 453.883C261.698 454.378 262.156 454.625 262.719 454.625C263.281 454.625 263.727 454.414 264.055 453.992C264.383 453.57 264.547 453.016 264.547 452.328C264.547 451.641 264.38 451.081 264.047 450.648C263.714 450.216 263.271 450 262.719 450Z" fill="black"/>
<rect x="198" y="439" width="46" height="24" rx="5" fill="#51A6E3"/>
<path d="M215.18 456H213.203L208.133 447.93V456H206.156V444.625H208.133L213.219 452.727V444.625H215.18V456ZM221.055 456.156C219.852 456.156 218.875 455.779 218.125 455.023C217.38 454.263 217.008 453.253 217.008 451.992V451.758C217.008 450.914 217.169 450.161 217.492 449.5C217.82 448.833 218.279 448.315 218.867 447.945C219.456 447.576 220.112 447.391 220.836 447.391C221.987 447.391 222.875 447.758 223.5 448.492C224.13 449.227 224.445 450.266 224.445 451.609V452.375H218.922C218.979 453.073 219.211 453.625 219.617 454.031C220.029 454.438 220.544 454.641 221.164 454.641C222.034 454.641 222.742 454.289 223.289 453.586L224.312 454.562C223.974 455.068 223.521 455.461 222.953 455.742C222.391 456.018 221.758 456.156 221.055 456.156ZM220.828 448.914C220.307 448.914 219.885 449.096 219.562 449.461C219.245 449.826 219.042 450.333 218.953 450.984H222.57V450.844C222.529 450.208 222.359 449.729 222.062 449.406C221.766 449.078 221.354 448.914 220.828 448.914ZM233.352 453.383L234.695 447.547H236.547L234.242 456H232.68L230.867 450.195L229.086 456H227.523L225.211 447.547H227.062L228.43 453.32L230.164 447.547H231.594L233.352 453.383Z" fill="white"/>
<rect x="26" y="491" width="267" height="50" rx="25" fill="#373737"/>
<path d="M84.6719 517.93C83.3854 517.56 82.4479 517.107 81.8594 516.57C81.276 516.029 80.9844 515.362 80.9844 514.57C80.9844 513.674 81.3411 512.935 82.0547 512.352C82.7734 511.763 83.7057 511.469 84.8516 511.469C85.6328 511.469 86.3281 511.62 86.9375 511.922C87.5521 512.224 88.026 512.641 88.3594 513.172C88.6979 513.703 88.8672 514.284 88.8672 514.914H87.3594C87.3594 514.227 87.1406 513.688 86.7031 513.297C86.2656 512.901 85.6484 512.703 84.8516 512.703C84.112 512.703 83.5339 512.867 83.1172 513.195C82.7057 513.518 82.5 513.969 82.5 514.547C82.5 515.01 82.6953 515.404 83.0859 515.727C83.4818 516.044 84.151 516.336 85.0938 516.602C86.0417 516.867 86.7812 517.161 87.3125 517.484C87.849 517.802 88.2448 518.174 88.5 518.602C88.7604 519.029 88.8906 519.531 88.8906 520.109C88.8906 521.031 88.5312 521.771 87.8125 522.328C87.0938 522.88 86.1328 523.156 84.9297 523.156C84.1484 523.156 83.4193 523.008 82.7422 522.711C82.0651 522.409 81.5417 521.997 81.1719 521.477C80.8073 520.956 80.625 520.365 80.625 519.703H82.1328C82.1328 520.391 82.3854 520.935 82.8906 521.336C83.401 521.732 84.0807 521.93 84.9297 521.93C85.7214 521.93 86.3281 521.768 86.75 521.445C87.1719 521.122 87.3828 520.682 87.3828 520.125C87.3828 519.568 87.1875 519.138 86.7969 518.836C86.4062 518.529 85.6979 518.227 84.6719 517.93ZM94.1016 523.156C92.9557 523.156 92.0234 522.781 91.3047 522.031C90.5859 521.276 90.2266 520.268 90.2266 519.008V518.742C90.2266 517.904 90.3854 517.156 90.7031 516.5C91.026 515.839 91.474 515.323 92.0469 514.953C92.625 514.578 93.25 514.391 93.9219 514.391C95.0208 514.391 95.875 514.753 96.4844 515.477C97.0938 516.201 97.3984 517.237 97.3984 518.586V519.188H91.6719C91.6927 520.021 91.9349 520.695 92.3984 521.211C92.8672 521.721 93.4609 521.977 94.1797 521.977C94.6901 521.977 95.1224 521.872 95.4766 521.664C95.8307 521.456 96.1406 521.18 96.4062 520.836L97.2891 521.523C96.5807 522.612 95.5182 523.156 94.1016 523.156ZM93.9219 515.578C93.3385 515.578 92.849 515.792 92.4531 516.219C92.0573 516.641 91.8125 517.234 91.7188 518H95.9531V517.891C95.9115 517.156 95.7135 516.589 95.3594 516.188C95.0052 515.781 94.526 515.578 93.9219 515.578ZM103.164 515.844C102.945 515.807 102.708 515.789 102.453 515.789C101.505 515.789 100.862 516.193 100.523 517V523H99.0781V514.547H100.484L100.508 515.523C100.982 514.768 101.654 514.391 102.523 514.391C102.805 514.391 103.018 514.427 103.164 514.5V515.844ZM107.43 521.039L109.523 514.547H111L107.969 523H106.867L103.805 514.547H105.281L107.43 521.039ZM113.961 523H112.516V514.547H113.961V523ZM112.398 512.305C112.398 512.07 112.469 511.872 112.609 511.711C112.755 511.549 112.969 511.469 113.25 511.469C113.531 511.469 113.745 511.549 113.891 511.711C114.036 511.872 114.109 512.07 114.109 512.305C114.109 512.539 114.036 512.734 113.891 512.891C113.745 513.047 113.531 513.125 113.25 513.125C112.969 513.125 112.755 513.047 112.609 512.891C112.469 512.734 112.398 512.539 112.398 512.305ZM119.672 521.977C120.188 521.977 120.638 521.82 121.023 521.508C121.409 521.195 121.622 520.805 121.664 520.336H123.031C123.005 520.82 122.839 521.281 122.531 521.719C122.224 522.156 121.812 522.505 121.297 522.766C120.786 523.026 120.245 523.156 119.672 523.156C118.521 523.156 117.604 522.773 116.922 522.008C116.245 521.237 115.906 520.185 115.906 518.852V518.609C115.906 517.786 116.057 517.055 116.359 516.414C116.661 515.773 117.094 515.276 117.656 514.922C118.224 514.568 118.893 514.391 119.664 514.391C120.612 514.391 121.398 514.674 122.023 515.242C122.654 515.81 122.99 516.547 123.031 517.453H121.664C121.622 516.906 121.414 516.458 121.039 516.109C120.669 515.755 120.211 515.578 119.664 515.578C118.93 515.578 118.359 515.844 117.953 516.375C117.552 516.901 117.352 517.664 117.352 518.664V518.938C117.352 519.911 117.552 520.661 117.953 521.188C118.354 521.714 118.927 521.977 119.672 521.977ZM128.164 523.156C127.018 523.156 126.086 522.781 125.367 522.031C124.648 521.276 124.289 520.268 124.289 519.008V518.742C124.289 517.904 124.448 517.156 124.766 516.5C125.089 515.839 125.536 515.323 126.109 514.953C126.688 514.578 127.312 514.391 127.984 514.391C129.083 514.391 129.938 514.753 130.547 515.477C131.156 516.201 131.461 517.237 131.461 518.586V519.188H125.734C125.755 520.021 125.997 520.695 126.461 521.211C126.93 521.721 127.523 521.977 128.242 521.977C128.753 521.977 129.185 521.872 129.539 521.664C129.893 521.456 130.203 521.18 130.469 520.836L131.352 521.523C130.643 522.612 129.581 523.156 128.164 523.156ZM127.984 515.578C127.401 515.578 126.911 515.792 126.516 516.219C126.12 516.641 125.875 517.234 125.781 518H130.016V517.891C129.974 517.156 129.776 516.589 129.422 516.188C129.068 515.781 128.589 515.578 127.984 515.578Z" fill="#D0D0D0"/>
<path fill-rule="evenodd" clip-rule="evenodd" d="M56 506C55.2044 506 54.4413 506.316 53.8787 506.879C53.3161 507.441 53 508.204 53 509H49C48.4696 509 47.9609 509.211 47.5858 509.586C47.2107 509.961 47 510.47 47 511V514C46.2044 514 45.4413 514.316 44.8787 514.879C44.3161 515.441 44 516.204 44 517C44 517.796 44.3161 518.559 44.8787 519.121C45.4413 519.684 46.2044 520 47 520V524C47 524.53 47.2107 525.039 47.5858 525.414C47.9609 525.789 48.4696 526 49 526H52.25C52.7141 526 53.1592 525.816 53.4874 525.487C53.8156 525.159 54 524.714 54 524.25C54 523.56 54.56 523 55.25 523H56.75C57.44 523 58 523.56 58 524.25C58 525.216 58.784 526 59.75 526H62C62.5304 526 63.0391 525.789 63.4142 525.414C63.7893 525.039 64 524.53 64 524V520.75C64 520.286 63.8156 519.841 63.4874 519.513C63.1592 519.184 62.7141 519 62.25 519C61.56 519 61 518.44 61 517.75V516.25C61 515.56 61.56 515 62.25 515C62.7141 515 63.1592 514.816 63.4874 514.487C63.8156 514.159 64 513.714 64 513.25V511C64 510.47 63.7893 509.961 63.4142 509.586C63.0391 509.211 62.5304 509 62 509H59C59 508.204 58.6839 507.441 58.1213 506.879C57.5587 506.316 56.7956 506 56 506V506Z" fill="#D0D0D0"/>
<path d="M271 514.17C271 514.319 270.968 514.467 270.903 514.602C270.839 514.737 270.746 514.856 270.63 514.95L264.63 519.78C264.451 519.927 264.227 520.007 263.995 520.007C263.763 520.007 263.539 519.927 263.36 519.78L257.36 514.78C257.156 514.61 257.027 514.366 257.003 514.102C256.979 513.837 257.06 513.574 257.23 513.37C257.4 513.166 257.644 513.037 257.908 513.013C258.172 512.989 258.436 513.07 258.64 513.24L264 517.71L269.36 513.39C269.507 513.268 269.685 513.19 269.875 513.166C270.065 513.142 270.257 513.173 270.43 513.255C270.602 513.337 270.747 513.467 270.849 513.629C270.95 513.791 271.002 513.979 271 514.17Z" fill="#D0D0D0"/>
<path d="M102.688 578.391C102.547 579.594 102.102 580.523 101.352 581.18C100.607 581.831 99.6146 582.156 98.375 582.156C97.0312 582.156 95.9531 581.674 95.1406 580.711C94.3333 579.747 93.9297 578.458 93.9297 576.844V575.75C93.9297 574.693 94.1172 573.763 94.4922 572.961C94.8724 572.159 95.4089 571.544 96.1016 571.117C96.7943 570.685 97.5964 570.469 98.5078 570.469C99.7161 570.469 100.685 570.807 101.414 571.484C102.143 572.156 102.568 573.089 102.688 574.281H101.18C101.049 573.375 100.766 572.719 100.328 572.312C99.8958 571.906 99.2891 571.703 98.5078 571.703C97.5495 571.703 96.7969 572.057 96.25 572.766C95.7083 573.474 95.4375 574.482 95.4375 575.789V576.891C95.4375 578.125 95.6953 579.107 96.2109 579.836C96.7266 580.565 97.4479 580.93 98.375 580.93C99.2083 580.93 99.8464 580.742 100.289 580.367C100.737 579.987 101.034 579.328 101.18 578.391H102.688ZM108.602 574.844C108.383 574.807 108.146 574.789 107.891 574.789C106.943 574.789 106.299 575.193 105.961 576V582H104.516V573.547H105.922L105.945 574.523C106.419 573.768 107.091 573.391 107.961 573.391C108.242 573.391 108.456 573.427 108.602 573.5V574.844ZM113.289 582.156C112.143 582.156 111.211 581.781 110.492 581.031C109.773 580.276 109.414 579.268 109.414 578.008V577.742C109.414 576.904 109.573 576.156 109.891 575.5C110.214 574.839 110.661 574.323 111.234 573.953C111.812 573.578 112.438 573.391 113.109 573.391C114.208 573.391 115.062 573.753 115.672 574.477C116.281 575.201 116.586 576.237 116.586 577.586V578.188H110.859C110.88 579.021 111.122 579.695 111.586 580.211C112.055 580.721 112.648 580.977 113.367 580.977C113.878 580.977 114.31 580.872 114.664 580.664C115.018 580.456 115.328 580.18 115.594 579.836L116.477 580.523C115.768 581.612 114.706 582.156 113.289 582.156ZM113.109 574.578C112.526 574.578 112.036 574.792 111.641 575.219C111.245 575.641 111 576.234 110.906 577H115.141V576.891C115.099 576.156 114.901 575.589 114.547 575.188C114.193 574.781 113.714 574.578 113.109 574.578ZM117.914 577.703C117.914 576.406 118.221 575.365 118.836 574.578C119.451 573.786 120.255 573.391 121.25 573.391C122.24 573.391 123.023 573.729 123.602 574.406V570H125.047V582H123.719L123.648 581.094C123.07 581.802 122.266 582.156 121.234 582.156C120.255 582.156 119.456 581.755 118.836 580.953C118.221 580.151 117.914 579.104 117.914 577.812V577.703ZM119.359 577.867C119.359 578.826 119.557 579.576 119.953 580.117C120.349 580.659 120.896 580.93 121.594 580.93C122.51 580.93 123.18 580.518 123.602 579.695V575.812C123.169 575.016 122.505 574.617 121.609 574.617C120.901 574.617 120.349 574.891 119.953 575.438C119.557 575.984 119.359 576.794 119.359 577.867ZM128.867 582H127.422V573.547H128.867V582ZM127.305 571.305C127.305 571.07 127.375 570.872 127.516 570.711C127.661 570.549 127.875 570.469 128.156 570.469C128.438 570.469 128.651 570.549 128.797 570.711C128.943 570.872 129.016 571.07 129.016 571.305C129.016 571.539 128.943 571.734 128.797 571.891C128.651 572.047 128.438 572.125 128.156 572.125C127.875 572.125 127.661 572.047 127.516 571.891C127.375 571.734 127.305 571.539 127.305 571.305ZM133.148 571.5V573.547H134.727V574.664H133.148V579.906C133.148 580.245 133.219 580.5 133.359 580.672C133.5 580.839 133.74 580.922 134.078 580.922C134.245 580.922 134.474 580.891 134.766 580.828V582C134.385 582.104 134.016 582.156 133.656 582.156C133.01 582.156 132.523 581.961 132.195 581.57C131.867 581.18 131.703 580.625 131.703 579.906V574.664H130.164V573.547H131.703V571.5H133.148Z" fill="#707070"/>
<g opacity="0.4">
<path d="M66 580.333C65.116 580.333 64.2681 579.982 63.643 579.357C63.0179 578.732 62.6667 577.884 62.6667 577C62.6667 576.116 63.0179 575.268 63.643 574.643C64.2681 574.018 65.116 573.667 66 573.667C66.8841 573.667 67.7319 574.018 68.357 574.643C68.9822 575.268 69.3334 576.116 69.3334 577C69.3334 577.884 68.9822 578.732 68.357 579.357C67.7319 579.982 66.8841 580.333 66 580.333Z" fill="#707070"/>
</g>
<path d="M102.18 620.859H98.5234V631H97.0312V620.859H93.3828V619.625H102.18V620.859ZM107.133 623.844C106.914 623.807 106.677 623.789 106.422 623.789C105.474 623.789 104.831 624.193 104.492 625V631H103.047V622.547H104.453L104.477 623.523C104.951 622.768 105.622 622.391 106.492 622.391C106.773 622.391 106.987 622.427 107.133 622.5V623.844ZM113.375 631C113.292 630.833 113.224 630.536 113.172 630.109C112.5 630.807 111.698 631.156 110.766 631.156C109.932 631.156 109.247 630.922 108.711 630.453C108.18 629.979 107.914 629.38 107.914 628.656C107.914 627.776 108.247 627.094 108.914 626.609C109.586 626.12 110.529 625.875 111.742 625.875H113.148V625.211C113.148 624.706 112.997 624.305 112.695 624.008C112.393 623.706 111.948 623.555 111.359 623.555C110.844 623.555 110.411 623.685 110.062 623.945C109.714 624.206 109.539 624.521 109.539 624.891H108.086C108.086 624.469 108.234 624.062 108.531 623.672C108.833 623.276 109.24 622.964 109.75 622.734C110.266 622.505 110.831 622.391 111.445 622.391C112.419 622.391 113.182 622.635 113.734 623.125C114.286 623.609 114.573 624.279 114.594 625.133V629.023C114.594 629.799 114.693 630.417 114.891 630.875V631H113.375ZM110.977 629.898C111.43 629.898 111.859 629.781 112.266 629.547C112.672 629.312 112.966 629.008 113.148 628.633V626.898H112.016C110.245 626.898 109.359 627.417 109.359 628.453C109.359 628.906 109.51 629.26 109.812 629.516C110.115 629.771 110.503 629.898 110.977 629.898ZM118.227 622.547L118.273 623.609C118.919 622.797 119.763 622.391 120.805 622.391C122.591 622.391 123.492 623.398 123.508 625.414V631H122.062V625.406C122.057 624.797 121.917 624.346 121.641 624.055C121.37 623.763 120.945 623.617 120.367 623.617C119.898 623.617 119.487 623.742 119.133 623.992C118.779 624.242 118.503 624.57 118.305 624.977V631H116.859V622.547H118.227ZM130.609 628.758C130.609 628.367 130.461 628.065 130.164 627.852C129.872 627.633 129.359 627.445 128.625 627.289C127.896 627.133 127.315 626.945 126.883 626.727C126.456 626.508 126.138 626.247 125.93 625.945C125.727 625.643 125.625 625.284 125.625 624.867C125.625 624.174 125.917 623.589 126.5 623.109C127.089 622.63 127.839 622.391 128.75 622.391C129.708 622.391 130.484 622.638 131.078 623.133C131.677 623.628 131.977 624.26 131.977 625.031H130.523C130.523 624.635 130.354 624.294 130.016 624.008C129.682 623.721 129.26 623.578 128.75 623.578C128.224 623.578 127.812 623.693 127.516 623.922C127.219 624.151 127.07 624.451 127.07 624.82C127.07 625.169 127.208 625.432 127.484 625.609C127.76 625.786 128.258 625.956 128.977 626.117C129.701 626.279 130.286 626.471 130.734 626.695C131.182 626.919 131.513 627.19 131.727 627.508C131.945 627.82 132.055 628.203 132.055 628.656C132.055 629.411 131.753 630.018 131.148 630.477C130.544 630.93 129.76 631.156 128.797 631.156C128.12 631.156 127.521 631.036 127 630.797C126.479 630.557 126.07 630.224 125.773 629.797C125.482 629.365 125.336 628.898 125.336 628.398H126.781C126.807 628.883 127 629.268 127.359 629.555C127.724 629.836 128.203 629.977 128.797 629.977C129.344 629.977 129.781 629.867 130.109 629.648C130.443 629.424 130.609 629.128 130.609 628.758ZM134.648 631V623.664H133.312V622.547H134.648V621.68C134.648 620.773 134.891 620.073 135.375 619.578C135.859 619.083 136.544 618.836 137.43 618.836C137.763 618.836 138.094 618.88 138.422 618.969L138.344 620.141C138.099 620.094 137.839 620.07 137.562 620.07C137.094 620.07 136.732 620.208 136.477 620.484C136.221 620.755 136.094 621.146 136.094 621.656V622.547H137.898V623.664H136.094V631H134.648ZM142.82 631.156C141.674 631.156 140.742 630.781 140.023 630.031C139.305 629.276 138.945 628.268 138.945 627.008V626.742C138.945 625.904 139.104 625.156 139.422 624.5C139.745 623.839 140.193 623.323 140.766 622.953C141.344 622.578 141.969 622.391 142.641 622.391C143.74 622.391 144.594 622.753 145.203 623.477C145.812 624.201 146.117 625.237 146.117 626.586V627.188H140.391C140.411 628.021 140.654 628.695 141.117 629.211C141.586 629.721 142.18 629.977 142.898 629.977C143.409 629.977 143.841 629.872 144.195 629.664C144.549 629.456 144.859 629.18 145.125 628.836L146.008 629.523C145.299 630.612 144.237 631.156 142.82 631.156ZM142.641 623.578C142.057 623.578 141.568 623.792 141.172 624.219C140.776 624.641 140.531 625.234 140.438 626H144.672V625.891C144.63 625.156 144.432 624.589 144.078 624.188C143.724 623.781 143.245 623.578 142.641 623.578ZM151.883 623.844C151.664 623.807 151.427 623.789 151.172 623.789C150.224 623.789 149.581 624.193 149.242 625V631H147.797V622.547H149.203L149.227 623.523C149.701 622.768 150.372 622.391 151.242 622.391C151.523 622.391 151.737 622.427 151.883 622.5V623.844Z" fill="#707070"/>
<g opacity="0.4">
<path d="M66 629.333C65.116 629.333 64.2681 628.982 63.643 628.357C63.0179 627.732 62.6667 626.884 62.6667 626C62.6667 625.116 63.0179 624.268 63.643 623.643C64.2681 623.018 65.116 622.667 66 622.667C66.8841 622.667 67.7319 623.018 68.357 623.643C68.9822 624.268 69.3334 625.116 69.3334 626C69.3334 626.884 68.9822 627.732 68.357 628.357C67.7319 628.982 66.8841 629.333 66 629.333Z" fill="#707070"/>
</g>
<path d="M102.688 676.391C102.547 677.594 102.102 678.523 101.352 679.18C100.607 679.831 99.6146 680.156 98.375 680.156C97.0312 680.156 95.9531 679.674 95.1406 678.711C94.3333 677.747 93.9297 676.458 93.9297 674.844V673.75C93.9297 672.693 94.1172 671.763 94.4922 670.961C94.8724 670.159 95.4089 669.544 96.1016 669.117C96.7943 668.685 97.5964 668.469 98.5078 668.469C99.7161 668.469 100.685 668.807 101.414 669.484C102.143 670.156 102.568 671.089 102.688 672.281H101.18C101.049 671.375 100.766 670.719 100.328 670.312C99.8958 669.906 99.2891 669.703 98.5078 669.703C97.5495 669.703 96.7969 670.057 96.25 670.766C95.7083 671.474 95.4375 672.482 95.4375 673.789V674.891C95.4375 676.125 95.6953 677.107 96.2109 677.836C96.7266 678.565 97.4479 678.93 98.375 678.93C99.2083 678.93 99.8464 678.742 100.289 678.367C100.737 677.987 101.034 677.328 101.18 676.391H102.688ZM109.734 680C109.651 679.833 109.583 679.536 109.531 679.109C108.859 679.807 108.057 680.156 107.125 680.156C106.292 680.156 105.607 679.922 105.07 679.453C104.539 678.979 104.273 678.38 104.273 677.656C104.273 676.776 104.607 676.094 105.273 675.609C105.945 675.12 106.888 674.875 108.102 674.875H109.508V674.211C109.508 673.706 109.357 673.305 109.055 673.008C108.753 672.706 108.307 672.555 107.719 672.555C107.203 672.555 106.771 672.685 106.422 672.945C106.073 673.206 105.898 673.521 105.898 673.891H104.445C104.445 673.469 104.594 673.062 104.891 672.672C105.193 672.276 105.599 671.964 106.109 671.734C106.625 671.505 107.19 671.391 107.805 671.391C108.779 671.391 109.542 671.635 110.094 672.125C110.646 672.609 110.932 673.279 110.953 674.133V678.023C110.953 678.799 111.052 679.417 111.25 679.875V680H109.734ZM107.336 678.898C107.789 678.898 108.219 678.781 108.625 678.547C109.031 678.312 109.326 678.008 109.508 677.633V675.898H108.375C106.604 675.898 105.719 676.417 105.719 677.453C105.719 677.906 105.87 678.26 106.172 678.516C106.474 678.771 106.862 678.898 107.336 678.898ZM118.141 677.758C118.141 677.367 117.992 677.065 117.695 676.852C117.404 676.633 116.891 676.445 116.156 676.289C115.427 676.133 114.846 675.945 114.414 675.727C113.987 675.508 113.669 675.247 113.461 674.945C113.258 674.643 113.156 674.284 113.156 673.867C113.156 673.174 113.448 672.589 114.031 672.109C114.62 671.63 115.37 671.391 116.281 671.391C117.24 671.391 118.016 671.638 118.609 672.133C119.208 672.628 119.508 673.26 119.508 674.031H118.055C118.055 673.635 117.885 673.294 117.547 673.008C117.214 672.721 116.792 672.578 116.281 672.578C115.755 672.578 115.344 672.693 115.047 672.922C114.75 673.151 114.602 673.451 114.602 673.82C114.602 674.169 114.74 674.432 115.016 674.609C115.292 674.786 115.789 674.956 116.508 675.117C117.232 675.279 117.818 675.471 118.266 675.695C118.714 675.919 119.044 676.19 119.258 676.508C119.477 676.82 119.586 677.203 119.586 677.656C119.586 678.411 119.284 679.018 118.68 679.477C118.076 679.93 117.292 680.156 116.328 680.156C115.651 680.156 115.052 680.036 114.531 679.797C114.01 679.557 113.602 679.224 113.305 678.797C113.013 678.365 112.867 677.898 112.867 677.398H114.312C114.339 677.883 114.531 678.268 114.891 678.555C115.255 678.836 115.734 678.977 116.328 678.977C116.875 678.977 117.312 678.867 117.641 678.648C117.974 678.424 118.141 678.128 118.141 677.758ZM122.914 672.57C123.555 671.784 124.388 671.391 125.414 671.391C127.201 671.391 128.102 672.398 128.117 674.414V680H126.672V674.406C126.667 673.797 126.526 673.346 126.25 673.055C125.979 672.763 125.555 672.617 124.977 672.617C124.508 672.617 124.096 672.742 123.742 672.992C123.388 673.242 123.112 673.57 122.914 673.977V680H121.469V668H122.914V672.57Z" fill="#707070"/>
<g opacity="0.4">
<path d="M66 678.333C65.116 678.333 64.2681 677.982 63.643 677.357C63.0179 676.732 62.6667 675.884 62.6667 675C62.6667 674.116 63.0179 673.268 63.643 672.643C64.2681 672.018 65.116 671.667 66 671.667C66.8841 671.667 67.7319 672.018 68.357 672.643C68.9822 673.268 69.3334 674.116 69.3334 675C69.3334 675.884 68.9822 676.732 68.357 677.357C67.7319 677.982 66.8841 678.333 66 678.333Z" fill="#707070"/>
</g>
<path d="M96.2578 717.625L99.9766 726.906L103.695 717.625H105.641V729H104.141V724.57L104.281 719.789L100.547 729H99.3984L95.6719 719.812L95.8203 724.57V729H94.3203V717.625H96.2578ZM110.828 726.883L112.797 720.547H114.344L110.945 730.305C110.419 731.711 109.583 732.414 108.438 732.414L108.164 732.391L107.625 732.289V731.117L108.016 731.148C108.505 731.148 108.885 731.049 109.156 730.852C109.432 730.654 109.659 730.292 109.836 729.766L110.156 728.906L107.141 720.547H108.719L110.828 726.883ZM119.836 729V717.625H123.555C124.789 717.625 125.716 717.88 126.336 718.391C126.961 718.901 127.273 719.656 127.273 720.656C127.273 721.188 127.122 721.659 126.82 722.07C126.518 722.477 126.107 722.792 125.586 723.016C126.201 723.188 126.685 723.516 127.039 724C127.398 724.479 127.578 725.052 127.578 725.719C127.578 726.74 127.247 727.542 126.586 728.125C125.924 728.708 124.99 729 123.781 729H119.836ZM121.336 723.68V727.773H123.812C124.51 727.773 125.06 727.594 125.461 727.234C125.867 726.87 126.07 726.37 126.07 725.734C126.07 724.365 125.326 723.68 123.836 723.68H121.336ZM121.336 722.477H123.602C124.258 722.477 124.781 722.312 125.172 721.984C125.568 721.656 125.766 721.211 125.766 720.648C125.766 720.023 125.583 719.57 125.219 719.289C124.854 719.003 124.299 718.859 123.555 718.859H121.336V722.477ZM131.148 729H129.703V720.547H131.148V729ZM129.586 718.305C129.586 718.07 129.656 717.872 129.797 717.711C129.943 717.549 130.156 717.469 130.438 717.469C130.719 717.469 130.932 717.549 131.078 717.711C131.224 717.872 131.297 718.07 131.297 718.305C131.297 718.539 131.224 718.734 131.078 718.891C130.932 719.047 130.719 719.125 130.438 719.125C130.156 719.125 129.943 719.047 129.797 718.891C129.656 718.734 129.586 718.539 129.586 718.305ZM135.039 729H133.594V717H135.039V729ZM138.93 729H137.484V717H138.93V729ZM146.172 726.758C146.172 726.367 146.023 726.065 145.727 725.852C145.435 725.633 144.922 725.445 144.188 725.289C143.458 725.133 142.878 724.945 142.445 724.727C142.018 724.508 141.701 724.247 141.492 723.945C141.289 723.643 141.188 723.284 141.188 722.867C141.188 722.174 141.479 721.589 142.062 721.109C142.651 720.63 143.401 720.391 144.312 720.391C145.271 720.391 146.047 720.638 146.641 721.133C147.24 721.628 147.539 722.26 147.539 723.031H146.086C146.086 722.635 145.917 722.294 145.578 722.008C145.245 721.721 144.823 721.578 144.312 721.578C143.786 721.578 143.375 721.693 143.078 721.922C142.781 722.151 142.633 722.451 142.633 722.82C142.633 723.169 142.771 723.432 143.047 723.609C143.323 723.786 143.82 723.956 144.539 724.117C145.263 724.279 145.849 724.471 146.297 724.695C146.745 724.919 147.076 725.19 147.289 725.508C147.508 725.82 147.617 726.203 147.617 726.656C147.617 727.411 147.315 728.018 146.711 728.477C146.107 728.93 145.323 729.156 144.359 729.156C143.682 729.156 143.083 729.036 142.562 728.797C142.042 728.557 141.633 728.224 141.336 727.797C141.044 727.365 140.898 726.898 140.898 726.398H142.344C142.37 726.883 142.562 727.268 142.922 727.555C143.286 727.836 143.766 727.977 144.359 727.977C144.906 727.977 145.344 727.867 145.672 727.648C146.005 727.424 146.172 727.128 146.172 726.758Z" fill="#707070"/>
<g opacity="0.4">
<path d="M66 727.333C65.116 727.333 64.2681 726.982 63.643 726.357C63.0179 725.732 62.6667 724.884 62.6667 724C62.6667 723.116 63.0179 722.268 63.643 721.643C64.2681 721.018 65.116 720.667 66 720.667C66.8841 720.667 67.7319 721.018 68.357 721.643C68.9822 722.268 69.3334 723.116 69.3334 724C69.3334 724.884 68.9822 725.732 68.357 726.357C67.7319 726.982 66.8841 727.333 66 727.333Z" fill="#707070"/>
</g>
<rect x="251.5" y="712.5" width="23" height="23" rx="4.5" fill="#9DF0D6" stroke="#9DF0D6"/>
<path d="M266.5 729H258.852V727.695L262.641 723.562C263.188 722.953 263.576 722.445 263.805 722.039C264.039 721.628 264.156 721.216 264.156 720.805C264.156 720.263 264.003 719.826 263.695 719.492C263.393 719.159 262.984 718.992 262.469 718.992C261.854 718.992 261.378 719.18 261.039 719.555C260.701 719.93 260.531 720.443 260.531 721.094H258.633C258.633 720.401 258.789 719.779 259.102 719.227C259.419 718.669 259.87 718.237 260.453 717.93C261.042 717.622 261.719 717.469 262.484 717.469C263.589 717.469 264.458 717.747 265.094 718.305C265.734 718.857 266.055 719.622 266.055 720.602C266.055 721.169 265.893 721.766 265.57 722.391C265.253 723.01 264.729 723.716 264 724.508L261.219 727.484H266.5V729Z" fill="#636363"/>
<rect width="267" height="50" transform="translate(26 556)" fill="black"/>
<rect x="26" y="556" width="267" height="215" rx="12" fill="black"/>
<path d="M84.6719 582.93C83.3854 582.56 82.4479 582.107 81.8594 581.57C81.276 581.029 80.9844 580.362 80.9844 579.57C80.9844 578.674 81.3411 577.935 82.0547 577.352C82.7734 576.763 83.7057 576.469 84.8516 576.469C85.6328 576.469 86.3281 576.62 86.9375 576.922C87.5521 577.224 88.026 577.641 88.3594 578.172C88.6979 578.703 88.8672 579.284 88.8672 579.914H87.3594C87.3594 579.227 87.1406 578.688 86.7031 578.297C86.2656 577.901 85.6484 577.703 84.8516 577.703C84.112 577.703 83.5339 577.867 83.1172 578.195C82.7057 578.518 82.5 578.969 82.5 579.547C82.5 580.01 82.6953 580.404 83.0859 580.727C83.4818 581.044 84.151 581.336 85.0938 581.602C86.0417 581.867 86.7812 582.161 87.3125 582.484C87.849 582.802 88.2448 583.174 88.5 583.602C88.7604 584.029 88.8906 584.531 88.8906 585.109C88.8906 586.031 88.5312 586.771 87.8125 587.328C87.0938 587.88 86.1328 588.156 84.9297 588.156C84.1484 588.156 83.4193 588.008 82.7422 587.711C82.0651 587.409 81.5417 586.997 81.1719 586.477C80.8073 585.956 80.625 585.365 80.625 584.703H82.1328C82.1328 585.391 82.3854 585.935 82.8906 586.336C83.401 586.732 84.0807 586.93 84.9297 586.93C85.7214 586.93 86.3281 586.768 86.75 586.445C87.1719 586.122 87.3828 585.682 87.3828 585.125C87.3828 584.568 87.1875 584.138 86.7969 583.836C86.4062 583.529 85.6979 583.227 84.6719 582.93ZM95.8125 588C95.7292 587.833 95.6615 587.536 95.6094 587.109C94.9375 587.807 94.1354 588.156 93.2031 588.156C92.3698 588.156 91.6849 587.922 91.1484 587.453C90.6172 586.979 90.3516 586.38 90.3516 585.656C90.3516 584.776 90.6849 584.094 91.3516 583.609C92.0234 583.12 92.9661 582.875 94.1797 582.875H95.5859V582.211C95.5859 581.706 95.4349 581.305 95.1328 581.008C94.8307 580.706 94.3854 580.555 93.7969 580.555C93.2812 580.555 92.849 580.685 92.5 580.945C92.151 581.206 91.9766 581.521 91.9766 581.891H90.5234C90.5234 581.469 90.6719 581.062 90.9688 580.672C91.2708 580.276 91.6771 579.964 92.1875 579.734C92.7031 579.505 93.2682 579.391 93.8828 579.391C94.8568 579.391 95.6198 579.635 96.1719 580.125C96.724 580.609 97.0104 581.279 97.0312 582.133V586.023C97.0312 586.799 97.1302 587.417 97.3281 587.875V588H95.8125ZM93.4141 586.898C93.8672 586.898 94.2969 586.781 94.7031 586.547C95.1094 586.312 95.4036 586.008 95.5859 585.633V583.898H94.4531C92.6823 583.898 91.7969 584.417 91.7969 585.453C91.7969 585.906 91.9479 586.26 92.25 586.516C92.5521 586.771 92.9401 586.898 93.4141 586.898ZM101.961 586.039L104.055 579.547H105.531L102.5 588H101.398L98.3359 579.547H99.8125L101.961 586.039ZM110.32 588.156C109.174 588.156 108.242 587.781 107.523 587.031C106.805 586.276 106.445 585.268 106.445 584.008V583.742C106.445 582.904 106.604 582.156 106.922 581.5C107.245 580.839 107.693 580.323 108.266 579.953C108.844 579.578 109.469 579.391 110.141 579.391C111.24 579.391 112.094 579.753 112.703 580.477C113.312 581.201 113.617 582.237 113.617 583.586V584.188H107.891C107.911 585.021 108.154 585.695 108.617 586.211C109.086 586.721 109.68 586.977 110.398 586.977C110.909 586.977 111.341 586.872 111.695 586.664C112.049 586.456 112.359 586.18 112.625 585.836L113.508 586.523C112.799 587.612 111.737 588.156 110.32 588.156ZM110.141 580.578C109.557 580.578 109.068 580.792 108.672 581.219C108.276 581.641 108.031 582.234 107.938 583H112.172V582.891C112.13 582.156 111.932 581.589 111.578 581.188C111.224 580.781 110.745 580.578 110.141 580.578ZM114.945 583.703C114.945 582.406 115.253 581.365 115.867 580.578C116.482 579.786 117.286 579.391 118.281 579.391C119.271 579.391 120.055 579.729 120.633 580.406V576H122.078V588H120.75L120.68 587.094C120.102 587.802 119.297 588.156 118.266 588.156C117.286 588.156 116.487 587.755 115.867 586.953C115.253 586.151 114.945 585.104 114.945 583.812V583.703ZM116.391 583.867C116.391 584.826 116.589 585.576 116.984 586.117C117.38 586.659 117.927 586.93 118.625 586.93C119.542 586.93 120.211 586.518 120.633 585.695V581.812C120.201 581.016 119.536 580.617 118.641 580.617C117.932 580.617 117.38 580.891 116.984 581.438C116.589 581.984 116.391 582.794 116.391 583.867Z" fill="#707070"/>
<path fill-rule="evenodd" clip-rule="evenodd" d="M49 571C48.2044 571 47.4413 571.316 46.8787 571.879C46.3161 572.441 46 573.204 46 574V589.138C45.9999 589.401 46.0688 589.659 46.1999 589.887C46.331 590.114 46.5196 590.304 46.7468 590.436C46.974 590.568 47.2319 590.638 47.4947 590.639C47.7574 590.639 48.0158 590.571 48.244 590.441L53.504 587.435C53.6551 587.349 53.826 587.303 54 587.303C54.174 587.303 54.3449 587.349 54.496 587.435L59.756 590.441C59.9842 590.571 60.2426 590.639 60.5053 590.639C60.7681 590.638 61.026 590.568 61.2532 590.436C61.4805 590.304 61.669 590.114 61.8001 589.887C61.9312 589.659 62.0001 589.401 62 589.138V574C62 573.204 61.6839 572.441 61.1213 571.879C60.5587 571.316 59.7956 571 59 571H49Z" fill="#373737"/>
<path d="M116.58 152.125C116.58 159.518 113.552 166.608 108.163 171.836C102.774 177.063 95.4642 180 87.8425 180C80.2209 180 72.9114 177.063 67.522 171.836C62.1327 166.608 59.105 159.518 59.105 152.125C59.105 145.13 62.1911 137.07 68.2791 128.169C68.4608 127.904 68.6946 127.675 68.9673 127.498C69.24 127.32 69.5461 127.196 69.8682 127.133C70.1903 127.07 70.5221 127.069 70.8445 127.131C71.1668 127.192 71.4736 127.315 71.747 127.492L81.8289 134.012L91.4654 114.382C91.6372 114.032 91.8932 113.727 92.2118 113.492C92.5305 113.258 92.9025 113.101 93.2965 113.035C93.6905 112.969 94.0951 112.996 94.4763 113.113C94.8575 113.23 95.2041 113.435 95.4871 113.709C100.093 118.168 105.351 123.578 109.435 129.886C114.243 137.313 116.58 144.587 116.58 152.125L116.58 152.125Z" fill="#00EDDF"/>
<path d="M87.8425 180C95.4642 180 102.774 177.063 108.163 171.836C102.198 154.285 96.5332 145.939 81.8289 134.012L71.747 127.492C71.4735 127.315 71.1669 127.192 70.8445 127.131C70.5221 127.069 70.1903 127.07 69.8682 127.133C69.5461 127.196 69.24 127.32 68.9673 127.498C68.6946 127.675 68.4608 127.904 68.2791 128.169C62.1911 137.07 59.105 145.13 59.105 152.125C59.105 159.518 62.1327 166.608 67.522 171.836C72.9114 177.063 80.2209 180 87.8425 180Z" fill="#51A6E3"/>
<path d="M147.078 156.977V169H140.047V134.875H153.359C155.922 134.875 158.172 135.344 160.109 136.281C162.062 137.219 163.562 138.555 164.609 140.289C165.656 142.008 166.18 143.969 166.18 146.172C166.18 149.516 165.031 152.156 162.734 154.094C160.453 156.016 157.289 156.977 153.242 156.977H147.078ZM147.078 151.281H153.359C155.219 151.281 156.633 150.844 157.602 149.969C158.586 149.094 159.078 147.844 159.078 146.219C159.078 144.547 158.586 143.195 157.602 142.164C156.617 141.133 155.258 140.602 153.523 140.57H147.078V151.281ZM187.4 169C187.088 168.391 186.861 167.633 186.72 166.727C185.08 168.555 182.947 169.469 180.322 169.469C177.838 169.469 175.775 168.75 174.134 167.312C172.509 165.875 171.697 164.062 171.697 161.875C171.697 159.188 172.689 157.125 174.673 155.688C176.673 154.25 179.556 153.523 183.322 153.508H186.439V152.055C186.439 150.883 186.134 149.945 185.525 149.242C184.931 148.539 183.986 148.188 182.689 148.188C181.548 148.188 180.65 148.461 179.994 149.008C179.353 149.555 179.033 150.305 179.033 151.258H172.259C172.259 149.789 172.713 148.43 173.619 147.18C174.525 145.93 175.806 144.953 177.463 144.25C179.119 143.531 180.978 143.172 183.041 143.172C186.166 143.172 188.642 143.961 190.47 145.539C192.314 147.102 193.236 149.305 193.236 152.148V163.141C193.252 165.547 193.588 167.367 194.244 168.602V169H187.4ZM181.798 164.289C182.798 164.289 183.72 164.07 184.564 163.633C185.408 163.18 186.033 162.578 186.439 161.828V157.469H183.908C180.517 157.469 178.713 158.641 178.494 160.984L178.47 161.383C178.47 162.227 178.767 162.922 179.361 163.469C179.955 164.016 180.767 164.289 181.798 164.289ZM209.933 159.414L214.62 143.641H221.886L211.691 172.938L211.128 174.273C209.612 177.586 207.112 179.242 203.628 179.242C202.644 179.242 201.644 179.094 200.628 178.797V173.664L201.659 173.688C202.941 173.688 203.894 173.492 204.519 173.102C205.159 172.711 205.659 172.062 206.019 171.156L206.816 169.07L197.933 143.641H205.222L209.933 159.414ZM252.177 134.875V158.172C252.161 160.469 251.653 162.469 250.653 164.172C249.653 165.875 248.239 167.188 246.411 168.109C244.598 169.016 242.512 169.469 240.153 169.469C236.559 169.469 233.677 168.492 231.505 166.539C229.348 164.57 228.231 161.852 228.153 158.383V134.875H231.012V157.961C231.012 160.836 231.833 163.07 233.473 164.664C235.114 166.242 237.341 167.031 240.153 167.031C242.966 167.031 245.184 166.234 246.809 164.641C248.45 163.047 249.27 160.828 249.27 157.984V134.875H252.177Z" fill="#D0D0D0"/>
</svg>
