<svg width="319" height="53" viewBox="0 0 319 53" fill="none" xmlns="http://www.w3.org/2000/svg">
<rect y="19" width="319" height="34" fill="#FFEF9B"/>
<path d="M36.234 42L28.4181 30.7617L20.7409 42H12.1387L24.117 25.5356L12.74 9.62627H21.2496L28.6956 20.1246L36.0028 9.62627H44.0962L32.8117 25.2582L44.8825 42H36.234ZM55.2146 9.62627H62.7068V42H55.2146V9.62627ZM107.481 9.62627V42H101.33L85.1892 22.3445V42H77.7895V9.62627H83.9867L100.081 29.2818V9.62627H107.481ZM158.53 42.555C155.231 42.555 152.241 41.8458 149.558 40.4276C146.907 38.9785 144.81 36.9898 143.269 34.4615C141.758 31.9025 141.002 29.0197 141.002 25.8131C141.002 22.6066 141.758 19.7392 143.269 17.211C144.81 14.6519 146.907 12.6632 149.558 11.245C152.241 9.79585 155.247 9.0713 158.577 9.0713C161.382 9.0713 163.911 9.56461 166.161 10.5512C168.443 11.5379 170.355 12.9561 171.896 14.8061L167.086 19.2459C164.897 16.7177 162.184 15.4535 158.947 15.4535C156.943 15.4535 155.154 15.9006 153.582 16.7947C152.009 17.658 150.776 18.8759 149.882 20.4483C149.019 22.0208 148.587 23.809 148.587 25.8131C148.587 27.8172 149.019 29.6055 149.882 31.1779C150.776 32.7504 152.009 33.9836 153.582 34.8778C155.154 35.7411 156.943 36.1727 158.947 36.1727C162.184 36.1727 164.897 34.8932 167.086 32.3341L171.896 36.774C170.355 38.6547 168.443 40.0884 166.161 41.075C163.88 42.0617 161.336 42.555 158.53 42.555ZM214.047 9.62627V42H206.555V28.7268H191.848V42H184.355V9.62627H191.848V22.3908H206.555V9.62627H214.047ZM250.426 35.0628H235.396L232.528 42H224.851L239.281 9.62627H246.68L261.156 42H253.294L250.426 35.0628ZM248.068 29.3742L242.934 16.9797L237.801 29.3742H248.068ZM233.176 0.330392H240.945L247.189 6.99013H241.547L233.176 0.330392ZM287.141 42.555C283.78 42.555 280.743 41.8304 278.03 40.3813C275.348 38.9322 273.236 36.9435 271.694 34.4153C270.183 31.8562 269.428 28.9888 269.428 25.8131C269.428 22.6374 270.183 19.7855 271.694 17.2572C273.236 14.6982 275.348 12.6941 278.03 11.245C280.743 9.79585 283.78 9.0713 287.141 9.0713C290.502 9.0713 293.523 9.79585 296.206 11.245C298.888 12.6941 301 14.6982 302.542 17.2572C304.083 19.7855 304.854 22.6374 304.854 25.8131C304.854 28.9888 304.083 31.8562 302.542 34.4153C301 36.9435 298.888 38.9322 296.206 40.3813C293.523 41.8304 290.502 42.555 287.141 42.555ZM287.141 36.1727C289.052 36.1727 290.779 35.7411 292.321 34.8778C293.862 33.9836 295.065 32.7504 295.928 31.1779C296.822 29.6055 297.269 27.8172 297.269 25.8131C297.269 23.809 296.822 22.0208 295.928 20.4483C295.065 18.8759 293.862 17.658 292.321 16.7947C290.779 15.9006 289.052 15.4535 287.141 15.4535C285.229 15.4535 283.503 15.9006 281.961 16.7947C280.419 17.658 279.202 18.8759 278.307 20.4483C277.444 22.0208 277.013 23.809 277.013 25.8131C277.013 27.8172 277.444 29.6055 278.307 31.1779C279.202 32.7504 280.419 33.9836 281.961 34.8778C283.503 35.7411 285.229 36.1727 287.141 36.1727Z" fill="black"/>
</svg>
