<svg width="24" height="24" viewBox="0 0 24 24" fill="none" xmlns="http://www.w3.org/2000/svg">
<path d="M12 15C13.6569 15 15 13.6569 15 12C15 10.3431 13.6569 9 12 9C10.3431 9 9 10.3431 9 12C9 13.6569 10.3431 15 12 15Z" stroke="#707070" stroke-width="2" stroke-linecap="round" stroke-linejoin="round"/>
<path d="M19.4 9C19.2669 8.69838 19.2272 8.36381 19.286 8.03941C19.3448 7.71502 19.4995 7.41568 19.73 7.18L19.79 7.12C19.976 6.93425 20.1235 6.71368 20.2241 6.47088C20.3248 6.22808 20.3766 5.96783 20.3766 5.705C20.3766 5.44217 20.3248 5.18192 20.2241 4.93912C20.1235 4.69632 19.976 4.47575 19.79 4.29C19.6043 4.10405 19.3837 3.95653 19.1409 3.85588C18.8981 3.75523 18.6378 3.70343 18.375 3.70343C18.1122 3.70343 17.8519 3.75523 17.6091 3.85588C17.3663 3.95653 17.1457 4.10405 16.96 4.29L16.9 4.35C16.6643 4.58054 16.365 4.73519 16.0406 4.794C15.7162 4.85282 15.3816 4.81312 15.08 4.68C14.7842 4.55324 14.532 4.34275 14.3543 4.07446C14.1766 3.80617 14.0813 3.49179 14.08 3.17V3C14.08 2.46957 13.8693 1.96086 13.4942 1.58579C13.1191 1.21071 12.6104 1 12.08 1C11.5496 1 11.0409 1.21071 10.6658 1.58579C10.2907 1.96086 10.08 2.46957 10.08 3V3.09C10.0723 3.42099 9.96512 3.742 9.77251 4.0113C9.5799 4.28059 9.31074 4.48572 9 4.6C8.69838 4.73312 8.36381 4.77282 8.03941 4.714C7.71502 4.65519 7.41568 4.50054 7.18 4.27L7.12 4.21C6.93425 4.02405 6.71368 3.87653 6.47088 3.77588C6.22808 3.67523 5.96783 3.62343 5.705 3.62343C5.44217 3.62343 5.18192 3.67523 4.93912 3.77588C4.69632 3.87653 4.47575 4.02405 4.29 4.21C4.10405 4.39575 3.95653 4.61632 3.85588 4.85912C3.75523 5.10192 3.70343 5.36217 3.70343 5.625C3.70343 5.88783 3.75523 6.14808 3.85588 6.39088C3.95653 6.63368 4.10405 6.85425 4.29 7.04L4.35 7.1C4.58054 7.33568 4.73519 7.63502 4.794 7.95941C4.85282 8.28381 4.81312 8.61838 4.68 8.92C4.55324 9.21577 4.34276 9.46802 4.07447 9.64569C3.80618 9.82337 3.49179 9.91872 3.17 9.92H3C2.46957 9.92 1.96086 10.1307 1.58579 10.5058C1.21071 10.8809 1 11.3896 1 11.92C1 12.4504 1.21071 12.9591 1.58579 13.3342C1.96086 13.7093 2.46957 13.92 3 13.92H3.09C3.42099 13.9277 3.742 14.0349 4.0113 14.2275C4.28059 14.4201 4.48572 14.6893 4.6 15C4.73312 15.3016 4.77282 15.6362 4.714 15.9606C4.65519 16.285 4.50054 16.5843 4.27 16.82L4.21 16.88C4.02405 17.0657 3.87653 17.2863 3.77588 17.5291C3.67523 17.7719 3.62343 18.0322 3.62343 18.295C3.62343 18.5578 3.67523 18.8181 3.77588 19.0609C3.87653 19.3037 4.02405 19.5243 4.21 19.71C4.39575 19.896 4.61632 20.0435 4.85912 20.1441C5.10192 20.2448 5.36217 20.2966 5.625 20.2966C5.88783 20.2966 6.14808 20.2448 6.39088 20.1441C6.63368 20.0435 6.85425 19.896 7.04 19.71L7.1 19.65C7.33568 19.4195 7.63502 19.2648 7.95941 19.206C8.28381 19.1472 8.61838 19.1869 8.92 19.32H9C9.29577 19.4468 9.54802 19.6572 9.72569 19.9255C9.90337 20.1938 9.99872 20.5082 10 20.83V21C10 21.5304 10.2107 22.0391 10.5858 22.4142C10.9609 22.7893 11.4696 23 12 23C12.5304 23 13.0391 22.7893 13.4142 22.4142C13.7893 22.0391 14 21.5304 14 21V20.91C14.0013 20.5882 14.0966 20.2738 14.2743 20.0055C14.452 19.7372 14.7042 19.5268 15 19.4C15.3016 19.2669 15.6362 19.2272 15.9606 19.286C16.285 19.3448 16.5843 19.4995 16.82 19.73L16.88 19.79C17.0657 19.976 17.2863 20.1235 17.5291 20.2241C17.7719 20.3248 18.0322 20.3766 18.295 20.3766C18.5578 20.3766 18.8181 20.3248 19.0609 20.2241C19.3037 20.1235 19.5243 19.976 19.71 19.79C19.896 19.6043 20.0435 19.3837 20.1441 19.1409C20.2448 18.8981 20.2966 18.6378 20.2966 18.375C20.2966 18.1122 20.2448 17.8519 20.1441 17.6091C20.0435 17.3663 19.896 17.1457 19.71 16.96L19.65 16.9C19.4195 16.6643 19.2648 16.365 19.206 16.0406C19.1472 15.7162 19.1869 15.3816 19.32 15.08V15C19.4468 14.7042 19.6572 14.452 19.9255 14.2743C20.1938 14.0966 20.5082 14.0013 20.83 14H21C21.5304 14 22.0391 13.7893 22.4142 13.4142C22.7893 13.0391 23 12.5304 23 12C23 11.4696 22.7893 10.9609 22.4142 10.5858C22.0391 10.2107 21.5304 10 21 10H20.91C20.5882 9.99872 20.2738 9.90337 20.0055 9.72569C19.7372 9.54802 19.5268 9.29577 19.4 9V9Z" stroke="#707070" stroke-width="2" stroke-linecap="round" stroke-linejoin="round"/>
</svg>
