<svg width="95" height="19" viewBox="0 0 95 19" fill="none" xmlns="http://www.w3.org/2000/svg">
<path d="M13.1016 14.4375C13.1016 14.4844 13.0859 14.5312 13.0547 14.5781C13.0391 14.6094 13.0234 14.6484 13.0078 14.6953C12.9922 14.8516 12.9688 14.9453 12.9375 14.9766C12.9219 15.1484 12.8984 15.2422 12.8672 15.2578C12.8516 15.2734 12.8594 15.2969 12.8906 15.3281C12.8281 15.3594 12.7891 15.4219 12.7734 15.5156C12.7578 15.5938 12.7344 15.6719 12.7031 15.75C12.6719 15.8281 12.6406 15.9062 12.6094 15.9844C12.5938 16.0469 12.5703 16.1094 12.5391 16.1719C12.5234 16.2812 12.5156 16.3516 12.5156 16.3828C12.5156 16.3984 12.5 16.4219 12.4688 16.4531L12.3281 16.7344C12.3281 16.8125 12.3125 16.875 12.2812 16.9219C12.25 16.9688 12.2422 17.0234 12.2578 17.0859C12.1484 17.2891 12.0859 17.4688 12.0703 17.625C11.9297 17.75 11.8516 17.8438 11.8359 17.9062C11.7109 18 11.6406 18.0547 11.625 18.0703C11.625 18.0859 11.6172 18.1016 11.6016 18.1172C11.5391 18.1172 11.4922 18.125 11.4609 18.1406C11.4297 18.1719 11.3828 18.1875 11.3203 18.1875C11.1641 18.2188 11.0547 18.25 10.9922 18.2812C10.8984 18.2969 10.8359 18.3125 10.8047 18.3281C10.7734 18.3438 10.7422 18.3594 10.7109 18.375C10.6641 18.375 10.6172 18.3672 10.5703 18.3516C10.5234 18.3516 10.4609 18.3516 10.3828 18.3516C10.3203 18.3516 10.2578 18.3594 10.1953 18.375C10.1328 18.3906 10.0703 18.3984 10.0078 18.3984C9.88281 18.3828 9.80469 18.375 9.77344 18.375C9.74219 18.3906 9.71094 18.3984 9.67969 18.3984C9.50781 18.3672 9.39844 18.3516 9.35156 18.3516C9.30469 18.3672 9.25781 18.375 9.21094 18.375C9.03906 18.3438 8.94531 18.3281 8.92969 18.3281C8.92969 18.3438 8.92188 18.3516 8.90625 18.3516C8.71875 18.3359 8.5625 18.3125 8.4375 18.2812C8.32812 18.2969 8.25 18.2969 8.20312 18.2812C8.15625 18.2656 8.10938 18.2812 8.0625 18.3281C7.92188 18.3125 7.83594 18.2891 7.80469 18.2578C7.78906 18.2422 7.77344 18.25 7.75781 18.2812C7.57031 18.1875 7.44531 18.1328 7.38281 18.1172C7.33594 18.1172 7.29688 18.0938 7.26562 18.0469C7.21875 18.0781 7.16406 18.0781 7.10156 18.0469C7.05469 18.0312 7.01562 18.0391 6.98438 18.0703C6.89062 18.0078 6.80469 17.9766 6.72656 17.9766C6.63281 17.9141 6.53125 17.875 6.42188 17.8594C6.26562 17.8125 6.17969 17.7891 6.16406 17.7891C6.02344 17.7422 5.9375 17.7109 5.90625 17.6953C5.76562 17.6016 5.66406 17.5391 5.60156 17.5078C5.55469 17.4766 5.49219 17.4609 5.41406 17.4609L5.13281 17.2969C4.96094 17.2031 4.86719 17.1484 4.85156 17.1328C4.83594 17.1172 4.80469 17.1094 4.75781 17.1094C4.63281 17 4.55469 16.9375 4.52344 16.9219C4.50781 16.8906 4.47656 16.875 4.42969 16.875L4.17188 16.6875C4.01562 16.625 3.92188 16.5703 3.89062 16.5234C3.875 16.4766 3.84375 16.4609 3.79688 16.4766C3.70312 16.3984 3.64062 16.3438 3.60938 16.3125C3.57812 16.2656 3.52344 16.2422 3.44531 16.2422C3.27344 16.1172 3.16406 16.0312 3.11719 15.9844C3.08594 15.9375 3.03906 15.9062 2.97656 15.8906C2.96094 15.7812 2.91406 15.7031 2.83594 15.6562C2.82031 15.5781 2.79688 15.5234 2.76562 15.4922C2.73438 15.4453 2.70312 15.3906 2.67188 15.3281C2.45312 15.2031 2.28906 15.0234 2.17969 14.7891C2.11719 14.7266 2.07031 14.6562 2.03906 14.5781C2.02344 14.5 1.99219 14.4219 1.94531 14.3438C1.91406 14.3125 1.89062 14.2656 1.875 14.2031C1.85938 14.1406 1.83594 14.0938 1.80469 14.0625C1.77344 14 1.74219 13.9297 1.71094 13.8516C1.69531 13.7734 1.66406 13.7109 1.61719 13.6641C1.63281 13.5859 1.625 13.5312 1.59375 13.5C1.57812 13.4531 1.57031 13.4062 1.57031 13.3594C1.47656 13.2344 1.42188 13.1484 1.40625 13.1016C1.40625 13.0391 1.39062 12.9922 1.35938 12.9609C1.29688 12.8359 1.26562 12.7656 1.26562 12.75C1.28125 12.7344 1.28125 12.7109 1.26562 12.6797C1.23438 12.6328 1.21094 12.5781 1.19531 12.5156C1.17969 12.4375 1.15625 12.3672 1.125 12.3047C1.09375 12.1953 1.07031 12.125 1.05469 12.0938C1.05469 12.0469 1.03906 12.0078 1.00781 11.9766C0.976562 11.8047 0.960938 11.6562 0.960938 11.5312C0.960938 11.3906 0.929688 11.2812 0.867188 11.2031C0.898438 11.0781 0.90625 11.0156 0.890625 11.0156C0.875 11 0.867188 10.9766 0.867188 10.9453C0.867188 10.7891 0.867188 10.6641 0.867188 10.5703C0.867188 10.4922 0.859375 10.4141 0.84375 10.3359C0.828125 10.2422 0.8125 10.1562 0.796875 10.0781C0.796875 9.96875 0.796875 9.875 0.796875 9.79688C0.796875 9.70312 0.789062 9.60938 0.773438 9.51562C0.773438 9.40625 0.765625 9.33594 0.75 9.30469C0.75 9.27344 0.757812 9.25 0.773438 9.23438C0.773438 9.0625 0.773438 8.91406 0.773438 8.78906C0.773438 8.66406 0.804688 8.5625 0.867188 8.48438C0.898438 8.3125 0.90625 8.20312 0.890625 8.15625C0.890625 8.09375 0.882812 8.03906 0.867188 7.99219C0.914062 7.77344 0.9375 7.64062 0.9375 7.59375C0.9375 7.53125 0.945312 7.46875 0.960938 7.40625L1.00781 7.07812L1.07812 6.75C1.125 6.67188 1.14844 6.60156 1.14844 6.53906C1.16406 6.47656 1.1875 6.42188 1.21875 6.375C1.25 6.26562 1.26562 6.17969 1.26562 6.11719C1.26562 6.05469 1.28125 5.99219 1.3125 5.92969C1.35938 5.85156 1.38281 5.80469 1.38281 5.78906C1.38281 5.75781 1.39844 5.72656 1.42969 5.69531C1.52344 5.58594 1.5625 5.52344 1.54688 5.50781C1.54688 5.49219 1.55469 5.47656 1.57031 5.46094C1.60156 5.36719 1.625 5.3125 1.64062 5.29688C1.65625 5.28125 1.67188 5.25781 1.6875 5.22656C1.75 5.07031 1.78906 4.98438 1.80469 4.96875C1.91406 4.82812 1.96875 4.72656 1.96875 4.66406C2.07812 4.52344 2.13281 4.45312 2.13281 4.45312C2.13281 4.4375 2.14844 4.42188 2.17969 4.40625C2.25781 4.3125 2.29688 4.25781 2.29688 4.24219C2.3125 4.21094 2.33594 4.17969 2.36719 4.14844C2.47656 3.99219 2.53125 3.91406 2.53125 3.91406C2.53125 3.89844 2.53906 3.88281 2.55469 3.86719C2.69531 3.74219 2.76562 3.67188 2.76562 3.65625C2.76562 3.64062 2.77344 3.625 2.78906 3.60938C2.86719 3.48438 2.92969 3.39844 2.97656 3.35156C3.03906 3.28906 3.08594 3.25 3.11719 3.23438C3.14844 3.20312 3.16406 3.17188 3.16406 3.14062C3.24219 3.125 3.29688 3.10156 3.32812 3.07031C3.375 3.02344 3.4375 2.98438 3.51562 2.95312C3.67188 2.79688 3.75781 2.70312 3.77344 2.67188C3.88281 2.57812 3.92969 2.52344 3.91406 2.50781C3.91406 2.49219 3.92188 2.47656 3.9375 2.46094C4.04688 2.39844 4.11719 2.35938 4.14844 2.34375C4.19531 2.3125 4.23438 2.28125 4.26562 2.25C4.35938 2.17188 4.41406 2.125 4.42969 2.10938C4.46094 2.07812 4.49219 2.04688 4.52344 2.01562C4.74219 1.92188 4.89062 1.83594 4.96875 1.75781L5.27344 1.66406C5.38281 1.61719 5.46875 1.54688 5.53125 1.45312C5.71875 1.40625 5.82031 1.375 5.83594 1.35938C5.94531 1.28125 6.00781 1.24219 6.02344 1.24219C6.05469 1.22656 6.07812 1.20313 6.09375 1.17188C6.21875 1.15625 6.28906 1.14844 6.30469 1.14844C6.33594 1.13281 6.36719 1.11719 6.39844 1.10156C6.53906 1.03906 6.63281 1.00781 6.67969 1.00781C6.74219 1.00781 6.78906 1 6.82031 0.984375C6.96094 0.921875 7.03125 0.898438 7.03125 0.914062C7.04688 0.914062 7.0625 0.90625 7.07812 0.890625C7.125 0.875 7.16406 0.859375 7.19531 0.84375C7.24219 0.828125 7.28906 0.8125 7.33594 0.796875C7.49219 0.75 7.59375 0.726562 7.64062 0.726562C7.6875 0.726562 7.74219 0.710938 7.80469 0.679688C7.96094 0.601562 8.0625 0.570313 8.10938 0.585938C8.15625 0.585938 8.19531 0.578125 8.22656 0.5625C8.38281 0.546875 8.47656 0.53125 8.50781 0.515625C8.55469 0.484375 8.59375 0.460937 8.625 0.445312C8.70312 0.429688 8.77344 0.421875 8.83594 0.421875C8.91406 0.421875 9 0.421875 9.09375 0.421875C9.17188 0.40625 9.25 0.390625 9.32812 0.375C9.42188 0.359375 9.51562 0.351562 9.60938 0.351562H9.98438C10.0312 0.398438 10.0938 0.421875 10.1719 0.421875C10.2656 0.40625 10.3594 0.398438 10.4531 0.398438C10.6406 0.414062 10.75 0.429688 10.7812 0.445312C10.8125 0.445312 10.8438 0.445312 10.875 0.445312C11.0469 0.492188 11.1484 0.515625 11.1797 0.515625C11.2266 0.5 11.2812 0.507812 11.3438 0.539062C11.3906 0.554687 11.4297 0.578125 11.4609 0.609375C11.4922 0.640625 11.5312 0.671875 11.5781 0.703125C11.6094 0.734375 11.6406 0.765625 11.6719 0.796875C11.7031 0.828125 11.7344 0.859375 11.7656 0.890625C11.7656 1.01563 11.7891 1.10156 11.8359 1.14844C11.8828 1.30469 11.9141 1.41406 11.9297 1.47656C11.9453 1.53906 11.9688 1.60156 12 1.66406C12.0312 1.85156 12.0781 1.97656 12.1406 2.03906C12.1562 2.21094 12.1719 2.29688 12.1875 2.29688C12.2656 2.4375 12.2969 2.53125 12.2812 2.57812C12.2812 2.60938 12.2891 2.64062 12.3047 2.67188C12.3516 2.73438 12.3828 2.78906 12.3984 2.83594C12.4141 2.88281 12.4531 2.92188 12.5156 2.95312C12.5469 3.10938 12.5703 3.21875 12.5859 3.28125C12.6172 3.34375 12.6484 3.40625 12.6797 3.46875C12.7422 3.65625 12.7656 3.75781 12.75 3.77344C12.75 3.78906 12.75 3.8125 12.75 3.84375C12.75 3.875 12.75 3.92188 12.75 3.98438C12.7656 4.03125 12.7812 4.09375 12.7969 4.17188C12.7344 4.28125 12.6953 4.34375 12.6797 4.35938C12.6641 4.375 12.6484 4.39844 12.6328 4.42969C12.5078 4.44531 12.4375 4.46875 12.4219 4.5C12.4219 4.51562 12.4062 4.53906 12.375 4.57031C12.3125 4.57031 12.25 4.5625 12.1875 4.54688C12.1406 4.53125 12.1016 4.53906 12.0703 4.57031C11.8984 4.55469 11.7969 4.55469 11.7656 4.57031C11.75 4.57031 11.7266 4.57031 11.6953 4.57031C11.6641 4.57031 11.6172 4.5625 11.5547 4.54688C11.5078 4.53125 11.4688 4.52344 11.4375 4.52344C11.375 4.49219 11.3047 4.46875 11.2266 4.45312C11.1484 4.4375 11.0859 4.42969 11.0391 4.42969C10.9297 4.44531 10.8438 4.45312 10.7812 4.45312C10.7344 4.4375 10.6719 4.42188 10.5938 4.40625C10.4688 4.48438 10.3281 4.49219 10.1719 4.42969C10.1406 4.46094 10.0938 4.47656 10.0312 4.47656C9.96875 4.47656 9.92188 4.5 9.89062 4.54688C9.76562 4.54688 9.67188 4.55469 9.60938 4.57031C9.375 4.61719 9.21875 4.64062 9.14062 4.64062C8.92188 4.70312 8.77344 4.75781 8.69531 4.80469C8.63281 4.83594 8.5625 4.86719 8.48438 4.89844C8.42188 4.92969 8.34375 4.97656 8.25 5.03906C8.14062 5.11719 8.07031 5.15625 8.03906 5.15625C8.00781 5.15625 7.97656 5.16406 7.94531 5.17969C7.91406 5.21094 7.875 5.24219 7.82812 5.27344C7.79688 5.28906 7.75781 5.3125 7.71094 5.34375C7.64844 5.42188 7.57812 5.49219 7.5 5.55469C7.42188 5.61719 7.34375 5.6875 7.26562 5.76562C7.23438 5.79688 7.20312 5.82812 7.17188 5.85938C7.14062 5.89062 7.10938 5.92188 7.07812 5.95312C6.96875 6.03125 6.89844 6.09375 6.86719 6.14062C6.83594 6.17188 6.80469 6.21094 6.77344 6.25781C6.58594 6.38281 6.47656 6.46875 6.44531 6.51562C6.35156 6.59375 6.26562 6.71094 6.1875 6.86719C6.125 7.02344 6.08594 7.10938 6.07031 7.125C6.05469 7.14062 6.04688 7.16406 6.04688 7.19531C5.90625 7.33594 5.83594 7.4375 5.83594 7.5C5.83594 7.5625 5.82031 7.60938 5.78906 7.64062C5.72656 7.78125 5.6875 7.85938 5.67188 7.875C5.67188 7.89062 5.67188 7.91406 5.67188 7.94531C5.65625 7.97656 5.63281 8.02344 5.60156 8.08594C5.58594 8.13281 5.57812 8.1875 5.57812 8.25C5.5 8.375 5.46094 8.46094 5.46094 8.50781C5.47656 8.53906 5.46875 8.55469 5.4375 8.55469C5.40625 8.74219 5.38281 8.85156 5.36719 8.88281C5.36719 8.91406 5.35938 8.94531 5.34375 8.97656C5.32812 9.16406 5.32031 9.26562 5.32031 9.28125C5.33594 9.29688 5.34375 9.32031 5.34375 9.35156C5.28125 9.50781 5.25 9.60938 5.25 9.65625C5.25 9.6875 5.25 9.71875 5.25 9.75C5.21875 9.98438 5.22656 10.1016 5.27344 10.1016C5.25781 10.3359 5.24219 10.5234 5.22656 10.6641C5.22656 10.8047 5.24219 10.9453 5.27344 11.0859C5.30469 11.2266 5.32812 11.3281 5.34375 11.3906C5.35938 11.4375 5.36719 11.5 5.36719 11.5781C5.38281 11.6562 5.39062 11.7188 5.39062 11.7656C5.39062 11.8125 5.40625 11.8672 5.4375 11.9297C5.54688 12.1641 5.64062 12.3438 5.71875 12.4688C5.85938 12.625 5.92969 12.7188 5.92969 12.75C5.94531 12.7656 5.96875 12.7891 6 12.8203C6.0625 13.0078 6.11719 13.125 6.16406 13.1719C6.21094 13.2031 6.26562 13.2422 6.32812 13.2891C6.40625 13.3516 6.46094 13.3984 6.49219 13.4297C6.52344 13.4453 6.5625 13.4531 6.60938 13.4531C6.64062 13.5156 6.6875 13.5625 6.75 13.5938C6.8125 13.625 6.88281 13.6562 6.96094 13.6875C7.11719 13.7812 7.20312 13.8359 7.21875 13.8516C7.25 13.8672 7.28125 13.875 7.3125 13.875C7.46875 13.9219 7.54688 13.9688 7.54688 14.0156C7.70312 14.0781 7.78906 14.1094 7.80469 14.1094C7.82031 14.0938 7.82812 14.1016 7.82812 14.1328C7.90625 14.1328 7.96875 14.1484 8.01562 14.1797C8.07812 14.1953 8.13281 14.2188 8.17969 14.25C8.35156 14.2656 8.44531 14.2812 8.46094 14.2969C8.49219 14.3125 8.53125 14.3281 8.57812 14.3438C8.65625 14.3594 8.73438 14.3672 8.8125 14.3672C8.89062 14.3672 8.95312 14.3828 9 14.4141C9.125 14.4141 9.19531 14.4141 9.21094 14.4141C9.22656 14.4141 9.25 14.4297 9.28125 14.4609C9.45312 14.4766 9.55469 14.4844 9.58594 14.4844C9.63281 14.4688 9.67188 14.4609 9.70312 14.4609C9.875 14.5078 9.96875 14.5234 9.98438 14.5078C10.1562 14.4922 10.2734 14.4922 10.3359 14.5078C10.3984 14.5078 10.4609 14.4922 10.5234 14.4609C10.6797 14.4609 10.7656 14.4688 10.7812 14.4844C10.7969 14.4844 10.8125 14.4844 10.8281 14.4844C10.875 14.4844 10.9219 14.4766 10.9688 14.4609C11.0312 14.4297 11.0859 14.4062 11.1328 14.3906C11.2578 14.4062 11.3281 14.4062 11.3438 14.3906C11.375 14.375 11.4062 14.3594 11.4375 14.3438C11.625 14.3438 11.7422 14.3203 11.7891 14.2734C11.8672 14.2734 11.9297 14.2656 11.9766 14.25C12.0391 14.2344 12.0859 14.2188 12.1172 14.2031C12.3047 14.1562 12.3984 14.1094 12.3984 14.0625C12.4609 14.0781 12.5156 14.0938 12.5625 14.1094C12.6094 14.125 12.6641 14.125 12.7266 14.1094C12.7578 14.1406 12.7969 14.1797 12.8438 14.2266C12.8906 14.2578 12.9375 14.2734 12.9844 14.2734L13.1016 14.4375ZM19.7859 2.69531C19.7547 2.67969 19.7078 2.6875 19.6453 2.71875C19.5984 2.73438 19.5594 2.74219 19.5281 2.74219C19.3562 2.72656 19.2469 2.72656 19.2 2.74219C19.1531 2.75781 19.1141 2.76562 19.0828 2.76562C19.0359 2.76562 18.9891 2.75781 18.9422 2.74219C18.8953 2.72656 18.8406 2.71875 18.7781 2.71875L18.4266 2.76562H18.0281C17.9812 2.75 17.9344 2.73438 17.8875 2.71875C17.8406 2.70312 17.7937 2.69531 17.7469 2.69531C17.6687 2.69531 17.6062 2.71094 17.5594 2.74219C17.5125 2.75781 17.4578 2.75781 17.3953 2.74219C17.2547 2.77344 17.1453 2.79688 17.0672 2.8125C16.9891 2.82812 16.9109 2.82031 16.8328 2.78906C16.6453 2.74219 16.5437 2.71094 16.5281 2.69531C16.5281 2.66406 16.5125 2.64062 16.4812 2.625C16.3875 2.54688 16.3406 2.5 16.3406 2.48438C16.3562 2.45312 16.3562 2.42188 16.3406 2.39062C16.3094 2.25 16.2937 2.125 16.2937 2.01562C16.3094 1.89062 16.3094 1.76563 16.2937 1.64062C16.2937 1.5625 16.2859 1.49219 16.2703 1.42969C16.2547 1.36719 16.2391 1.30469 16.2234 1.24219C16.1922 1.07031 16.1687 0.960938 16.1531 0.914062C16.2 0.804688 16.2234 0.679688 16.2234 0.539062C16.3484 0.398438 16.4187 0.3125 16.4344 0.28125C16.45 0.25 16.4891 0.226562 16.5516 0.210938C16.6609 0.148438 16.7234 0.125 16.7391 0.140625C16.7547 0.140625 16.7937 0.148438 16.8562 0.164062C16.9969 0.132812 17.0906 0.117188 17.1375 0.117188C17.1844 0.101563 17.2312 0.09375 17.2781 0.09375C17.4187 0.09375 17.4969 0.09375 17.5125 0.09375C17.5437 0.078125 17.575 0.0703125 17.6062 0.0703125C17.7312 0.0703125 17.8016 0.078125 17.8172 0.09375C17.8484 0.09375 17.8797 0.09375 17.9109 0.09375C17.9891 0.109375 18.0594 0.117188 18.1219 0.117188C18.1844 0.101563 18.2469 0.09375 18.3094 0.09375C18.3562 0.09375 18.4031 0.101563 18.45 0.117188C18.4969 0.132812 18.5359 0.140625 18.5672 0.140625C18.6453 0.125 18.7 0.125 18.7312 0.140625C18.7625 0.15625 18.7937 0.164062 18.825 0.164062C18.8875 0.164062 18.9422 0.15625 18.9891 0.140625C19.0359 0.109375 19.0906 0.09375 19.1531 0.09375C19.325 0.125 19.4344 0.140625 19.4812 0.140625C19.5281 0.140625 19.5906 0.148438 19.6687 0.164062C19.7 0.242188 19.7625 0.3125 19.8562 0.375C19.9187 0.546875 19.9422 0.632812 19.9266 0.632812C19.9266 0.632812 19.9266 0.640625 19.9266 0.65625C19.9578 0.890625 19.9656 1.0625 19.95 1.17188C19.9344 1.26562 19.9422 1.36719 19.9734 1.47656C19.9422 1.50781 19.9266 1.55469 19.9266 1.61719C19.9422 1.66406 19.95 1.71875 19.95 1.78125C19.95 1.82812 19.9422 1.88281 19.9266 1.94531C19.9109 1.99219 19.9031 2.03906 19.9031 2.08594C19.9344 2.38281 19.8953 2.58594 19.7859 2.69531ZM16.4578 17.8359C16.4266 17.6016 16.4109 17.4062 16.4109 17.25C16.4109 17.0938 16.4266 16.9375 16.4578 16.7812C16.4422 16.7344 16.4344 16.6875 16.4344 16.6406C16.45 16.5938 16.4578 16.5547 16.4578 16.5234C16.5203 16.3828 16.5516 16.2891 16.5516 16.2422L16.5984 15.8203C16.5984 15.7734 16.5984 15.7344 16.5984 15.7031C16.6141 15.6562 16.6219 15.6094 16.6219 15.5625C16.6062 15.3906 16.5984 15.2969 16.5984 15.2812L16.6687 14.6484C16.6844 14.5078 16.6844 14.3672 16.6687 14.2266C16.6687 14.0859 16.6687 13.9453 16.6687 13.8047C16.6687 13.6484 16.6609 13.5703 16.6453 13.5703C16.6297 13.5547 16.6219 13.5391 16.6219 13.5234C16.6062 13.3359 16.5984 13.1797 16.5984 13.0547C16.5672 12.8516 16.5672 12.6797 16.5984 12.5391C16.6609 12.3828 16.6687 12.2734 16.6219 12.2109C16.575 12.0547 16.5437 11.8594 16.5281 11.625C16.5125 11.4844 16.5047 11.3906 16.5047 11.3438C16.5047 11.2812 16.4969 11.2188 16.4812 11.1562C16.45 10.9688 16.4422 10.8516 16.4578 10.8047C16.4734 10.7578 16.4812 10.7188 16.4812 10.6875C16.4812 10.625 16.4734 10.5625 16.4578 10.5C16.4578 10.4375 16.4734 10.3672 16.5047 10.2891C16.5203 10.2266 16.5125 10.1172 16.4812 9.96094C16.4812 9.88281 16.4812 9.75781 16.4812 9.58594C16.4812 9.41406 16.4734 9.27344 16.4578 9.16406C16.4422 8.97656 16.4344 8.875 16.4344 8.85938C16.45 8.84375 16.4578 8.82812 16.4578 8.8125C16.4109 8.65625 16.3875 8.54688 16.3875 8.48438C16.4031 8.42188 16.4031 8.35938 16.3875 8.29688C16.3875 8.14062 16.3719 8.00781 16.3406 7.89844L16.3172 7.61719C16.3016 7.53906 16.2859 7.47656 16.2703 7.42969C16.2547 7.36719 16.2391 7.29688 16.2234 7.21875C16.1922 7.03125 16.1766 6.92969 16.1766 6.91406C16.1922 6.89844 16.1922 6.875 16.1766 6.84375C16.2078 6.79688 16.2078 6.72656 16.1766 6.63281C16.1453 6.53906 16.1297 6.46094 16.1297 6.39844C16.1141 6.24219 16.1062 6.14844 16.1062 6.11719C16.1062 6.07031 16.1062 6.02344 16.1062 5.97656C16.1219 5.91406 16.1297 5.84375 16.1297 5.76562C16.1141 5.67188 16.1062 5.57031 16.1062 5.46094C16.1062 5.33594 16.1219 5.21094 16.1531 5.08594C16.1844 5.05469 16.2234 5.02344 16.2703 4.99219C16.3328 4.96094 16.3875 4.92969 16.4344 4.89844C16.5594 4.86719 16.6375 4.85938 16.6687 4.875C16.7 4.875 16.7312 4.875 16.7625 4.875C16.95 4.84375 17.1062 4.8125 17.2312 4.78125C17.325 4.8125 17.4344 4.82812 17.5594 4.82812C17.6844 4.8125 17.7937 4.80469 17.8875 4.80469C17.9656 4.77344 18.0437 4.76562 18.1219 4.78125C18.2 4.79688 18.2859 4.79688 18.3797 4.78125C18.5672 4.79688 18.6609 4.80469 18.6609 4.80469C18.8016 4.77344 18.8719 4.76562 18.8719 4.78125C18.8875 4.78125 18.9109 4.78125 18.9422 4.78125C19.1141 4.76562 19.1922 4.75781 19.1766 4.75781C19.1609 4.74219 19.1687 4.75 19.2 4.78125C19.3562 4.8125 19.4578 4.84375 19.5047 4.875C19.5516 4.90625 19.6141 4.92969 19.6922 4.94531C19.7859 5.11719 19.8328 5.22656 19.8328 5.27344C19.8484 5.32031 19.8641 5.38281 19.8797 5.46094C19.8797 5.50781 19.8719 5.55469 19.8562 5.60156C19.8562 5.63281 19.8641 5.67188 19.8797 5.71875C19.8953 5.84375 19.8953 5.91406 19.8797 5.92969C19.8797 5.94531 19.8797 5.96875 19.8797 6C19.8953 6.03125 19.8953 6.07812 19.8797 6.14062C19.8797 6.1875 19.8797 6.23438 19.8797 6.28125C19.8953 6.35938 19.9109 6.4375 19.9266 6.51562C19.9578 6.59375 19.9656 6.65625 19.95 6.70312C19.9344 6.76562 19.9422 6.86719 19.9734 7.00781C19.9734 7.08594 19.9656 7.15625 19.95 7.21875C19.95 7.28125 19.9656 7.35156 19.9969 7.42969C19.9656 7.52344 19.9578 7.625 19.9734 7.73438C19.9891 7.82812 19.9891 7.92969 19.9734 8.03906C19.9734 8.10156 19.9656 8.16406 19.95 8.22656C19.95 8.27344 19.95 8.32812 19.95 8.39062C19.9344 8.46875 19.9187 8.53906 19.9031 8.60156C19.9031 8.64844 19.9031 8.70312 19.9031 8.76562C19.9031 8.8125 19.9109 8.86719 19.9266 8.92969C19.9422 8.99219 19.95 9.04688 19.95 9.09375C19.9344 9.32812 19.9187 9.54688 19.9031 9.75C19.9031 9.9375 19.8953 10.1172 19.8797 10.2891C19.8797 10.3828 19.8797 10.4766 19.8797 10.5703C19.8797 10.6484 19.8641 10.7188 19.8328 10.7812C19.8328 10.875 19.825 10.9531 19.8094 11.0156C19.8094 11.0625 19.8094 11.1016 19.8094 11.1328C19.8094 11.3984 19.8172 11.625 19.8328 11.8125C19.8484 12 19.8562 12.1875 19.8562 12.375C19.8562 12.5 19.8484 12.6094 19.8328 12.7031C19.8172 12.7969 19.8172 12.8984 19.8328 13.0078C19.8797 13.1953 19.8953 13.3203 19.8797 13.3828C19.8797 13.4453 19.8875 13.5156 19.9031 13.5938C19.9187 13.75 19.9266 13.8594 19.9266 13.9219C19.9422 13.9844 19.95 14.0781 19.95 14.2031C19.95 14.3594 19.95 14.4922 19.95 14.6016C19.9656 14.6953 20.0047 14.7812 20.0672 14.8594C20.0359 14.9375 20.0281 15.0156 20.0437 15.0938C20.0594 15.1719 20.0672 15.25 20.0672 15.3281C20.0828 15.375 20.0828 15.4219 20.0672 15.4688C20.0516 15.5156 20.0516 15.5625 20.0672 15.6094C20.0672 15.6406 20.0672 15.6875 20.0672 15.75C20.0828 15.7969 20.0906 15.8359 20.0906 15.8672C20.1219 16.0391 20.1375 16.1328 20.1375 16.1484C20.1375 16.1484 20.1453 16.1641 20.1609 16.1953C20.1766 16.5234 20.2078 16.7422 20.2547 16.8516C20.2547 16.9297 20.2703 17.0312 20.3016 17.1562C20.3328 17.3438 20.3484 17.4688 20.3484 17.5312C20.3641 17.5781 20.3641 17.6406 20.3484 17.7188C20.2391 17.8594 20.1844 17.9297 20.1844 17.9297C20.0437 18.0703 19.9266 18.1406 19.8328 18.1406C19.6453 18.1875 19.5203 18.2031 19.4578 18.1875C19.4109 18.1875 19.3641 18.2031 19.3172 18.2344C19.1922 18.2344 19.1219 18.2266 19.1062 18.2109C19.1062 18.2109 19.0906 18.2109 19.0594 18.2109C18.8875 18.1797 18.7781 18.1641 18.7312 18.1641C18.5437 18.1953 18.4422 18.2031 18.4266 18.1875C18.4109 18.1719 18.3875 18.1641 18.3562 18.1641C18.2 18.1797 18.0984 18.1797 18.0516 18.1641C18.0047 18.1641 17.9578 18.1641 17.9109 18.1641C17.7547 18.2109 17.6531 18.2266 17.6062 18.2109C17.5594 18.2109 17.5203 18.2109 17.4891 18.2109C17.3641 18.2109 17.2625 18.2109 17.1844 18.2109C17.1062 18.2266 17.0281 18.2188 16.95 18.1875C16.8562 18.1875 16.7703 18.1641 16.6922 18.1172C16.5828 18.0078 16.5203 17.9531 16.5047 17.9531C16.5047 17.9531 16.4969 17.9453 16.4812 17.9297L16.4578 17.8359ZM28.4391 4.73438C28.5328 4.75 28.6187 4.75781 28.6969 4.75781C28.7906 4.75781 28.8766 4.74219 28.9547 4.71094C29.1266 4.75781 29.2203 4.78125 29.2359 4.78125C29.2672 4.76562 29.2984 4.75781 29.3297 4.75781C29.4703 4.75781 29.5562 4.75 29.5875 4.73438C29.6187 4.71875 29.65 4.71094 29.6812 4.71094C29.8531 4.77344 29.9781 4.80469 30.0562 4.80469C30.15 4.78906 30.2281 4.79688 30.2906 4.82812C30.4 4.98438 30.4625 5.07812 30.4781 5.10938C30.4937 5.125 30.5016 5.14844 30.5016 5.17969C30.4547 5.36719 30.4312 5.48438 30.4312 5.53125C30.4312 5.57812 30.4469 5.61719 30.4781 5.64844C30.4469 5.75781 30.4391 5.86719 30.4547 5.97656C30.4703 6.08594 30.4781 6.20312 30.4781 6.32812C30.4781 6.35938 30.4703 6.40625 30.4547 6.46875C30.4547 6.51562 30.4547 6.57812 30.4547 6.65625C30.4547 6.84375 30.4547 6.97656 30.4547 7.05469C30.4703 7.13281 30.4781 7.25781 30.4781 7.42969C30.4625 7.67969 30.4547 7.85938 30.4547 7.96875C30.4703 8.0625 30.4547 8.14844 30.4078 8.22656C30.2984 8.36719 30.2125 8.44531 30.15 8.46094C30.0875 8.47656 30.0172 8.5 29.9391 8.53125C29.6891 8.48438 29.4859 8.46875 29.3297 8.48438C29.1734 8.48438 29.025 8.48438 28.8844 8.48438C28.6969 8.48438 28.5797 8.49219 28.5328 8.50781C28.5016 8.52344 28.4703 8.51562 28.4391 8.48438C28.4078 8.59375 28.3844 8.70312 28.3687 8.8125C28.3687 8.92188 28.3609 9.03125 28.3453 9.14062C28.3453 9.26562 28.3375 9.39062 28.3219 9.51562C28.3219 9.625 28.3375 9.73438 28.3687 9.84375L28.3453 10.3828C28.3609 10.5547 28.3609 10.6484 28.3453 10.6641C28.3453 10.6797 28.3453 10.7031 28.3453 10.7344C28.3453 10.9219 28.3531 11.0234 28.3687 11.0391C28.3844 11.0391 28.3922 11.0547 28.3922 11.0859C28.3922 11.2266 28.3922 11.3281 28.3922 11.3906C28.3922 11.4375 28.4 11.5 28.4156 11.5781C28.4156 11.8125 28.4312 11.9922 28.4625 12.1172C28.4625 12.2266 28.4547 12.3047 28.4391 12.3516C28.4391 12.3984 28.4547 12.4375 28.4859 12.4688L28.4625 12.9375L28.5094 13.2422C28.5094 13.2891 28.5094 13.3359 28.5094 13.3828C28.525 13.4297 28.5406 13.4844 28.5562 13.5469L28.65 13.875C28.6812 14.0156 28.7125 14.125 28.7437 14.2031C28.7906 14.2656 28.8453 14.3125 28.9078 14.3438C28.9391 14.4531 28.9859 14.5391 29.0484 14.6016C29.2047 14.6328 29.2828 14.6641 29.2828 14.6953C29.2984 14.7266 29.3219 14.7422 29.3531 14.7422C29.4312 14.7734 29.4859 14.7969 29.5172 14.8125C29.5484 14.8125 29.5797 14.8281 29.6109 14.8594C29.6578 14.8438 29.7047 14.8516 29.7516 14.8828C29.7984 14.8984 29.8531 14.9141 29.9156 14.9297C29.9469 14.9297 29.9859 14.9297 30.0328 14.9297C30.0953 14.9141 30.15 14.9062 30.1969 14.9062C30.3687 14.9531 30.5016 14.9766 30.5953 14.9766C30.6891 14.9609 30.775 14.9531 30.8531 14.9531H31.1109C31.1578 15.2031 31.1656 15.3672 31.1344 15.4453C31.0719 15.5234 31.0406 15.5781 31.0406 15.6094C31.0406 15.6406 31.0172 15.6641 30.9703 15.6797C30.9234 15.8359 30.9 15.9375 30.9 15.9844C30.9 16.0312 30.8844 16.0859 30.8531 16.1484C30.8219 16.2891 30.7984 16.3672 30.7828 16.3828C30.7672 16.3828 30.7594 16.3906 30.7594 16.4062C30.7437 16.5625 30.7281 16.6562 30.7125 16.6875C30.65 16.7969 30.6109 16.8516 30.5953 16.8516C30.5797 16.8516 30.5641 16.8672 30.5484 16.8984C30.5328 16.9922 30.5172 17.0547 30.5016 17.0859C30.4859 17.1016 30.4703 17.125 30.4547 17.1562C30.4078 17.2969 30.3844 17.375 30.3844 17.3906C30.3844 17.3906 30.3766 17.3984 30.3609 17.4141C30.3297 17.4766 30.3062 17.5391 30.2906 17.6016C30.2906 17.6641 30.275 17.7266 30.2437 17.7891C30.2125 17.8516 30.1812 17.9062 30.15 17.9531C30.1187 17.9844 30.0875 18.0312 30.0562 18.0938C29.9781 18.125 29.9156 18.1562 29.8687 18.1875C29.8375 18.2344 29.7984 18.2734 29.7516 18.3047C29.6266 18.3047 29.5562 18.3125 29.5406 18.3281C29.5406 18.3438 29.525 18.3516 29.4937 18.3516C29.4312 18.3359 29.3766 18.3359 29.3297 18.3516C29.2984 18.3672 29.2594 18.375 29.2125 18.375C29.0406 18.4062 28.9234 18.4062 28.8609 18.375C28.6266 18.3438 28.4547 18.3047 28.3453 18.2578C28.2516 18.2578 28.1812 18.25 28.1344 18.2344C28.1031 18.2344 28.0719 18.2344 28.0406 18.2344C27.9469 18.2188 27.8609 18.1953 27.7828 18.1641C27.7047 18.1484 27.6266 18.1406 27.5484 18.1406C27.5172 18.0781 27.4625 18.0391 27.3844 18.0234C27.3062 18.0078 27.2281 17.9844 27.15 17.9531C26.9781 17.8906 26.8844 17.8672 26.8687 17.8828C26.8531 17.8828 26.8297 17.875 26.7984 17.8594C26.7516 17.8594 26.6969 17.8438 26.6344 17.8125C26.5875 17.7812 26.5406 17.75 26.4937 17.7188C26.4312 17.6875 26.3766 17.6562 26.3297 17.625C26.2984 17.5938 26.2516 17.5625 26.1891 17.5312C26.1578 17.4844 26.1266 17.4453 26.0953 17.4141C26.0797 17.3828 26.0328 17.3672 25.9547 17.3672C25.8922 17.2734 25.8453 17.2188 25.8141 17.2031C25.7828 17.1875 25.7516 17.1641 25.7203 17.1328C25.6266 16.9766 25.5719 16.8672 25.5562 16.8047C25.5406 16.7422 25.5094 16.6953 25.4625 16.6641C25.4312 16.5547 25.4 16.4766 25.3687 16.4297C25.3531 16.3672 25.3219 16.3203 25.275 16.2891C25.275 16.1953 25.2516 16.1094 25.2047 16.0312C25.1578 15.9375 25.15 15.8516 25.1812 15.7734C25.1656 15.5078 25.0953 15.3125 24.9703 15.1875C24.9703 15.0625 24.9625 14.9922 24.9469 14.9766C24.9312 14.9609 24.9234 14.9375 24.9234 14.9062C24.9234 14.875 24.9234 14.8359 24.9234 14.7891C24.9391 14.7266 24.9469 14.6719 24.9469 14.625C24.9625 14.5938 24.9625 14.5547 24.9469 14.5078C24.9312 14.4453 24.9234 14.3984 24.9234 14.3672C24.9234 14.1016 24.9156 13.9609 24.9 13.9453C24.9 13.8047 24.9 13.7109 24.9 13.6641C24.9156 13.6172 24.9234 13.5703 24.9234 13.5234V13.2422C24.9078 13.1016 24.8922 12.9922 24.8766 12.9141C24.8766 12.8359 24.8687 12.7578 24.8531 12.6797V12.4219C24.8531 12.375 24.8453 12.3359 24.8297 12.3047C24.8141 12.2578 24.8062 12.2109 24.8062 12.1641C24.8531 12.0078 24.8687 11.9062 24.8531 11.8594C24.8375 11.7969 24.8219 11.7266 24.8062 11.6484C24.8062 11.4922 24.8062 11.3828 24.8062 11.3203C24.8219 11.2422 24.8219 11.1797 24.8062 11.1328C24.8062 10.9141 24.7984 10.7109 24.7828 10.5234C24.7828 10.3359 24.7906 10.1406 24.8062 9.9375C24.8219 9.78125 24.8219 9.69531 24.8062 9.67969C24.8062 9.64844 24.8062 9.61719 24.8062 9.58594C24.8062 9.46094 24.8062 9.33594 24.8062 9.21094C24.8219 9.08594 24.8141 8.96094 24.7828 8.83594C24.8141 8.78906 24.8219 8.73438 24.8062 8.67188C24.7906 8.59375 24.7984 8.51562 24.8297 8.4375C24.7984 8.42188 24.7516 8.41406 24.6891 8.41406C24.6266 8.39844 24.5797 8.40625 24.5484 8.4375C24.4547 8.40625 24.3766 8.39844 24.3141 8.41406C24.2516 8.42969 24.2047 8.4375 24.1734 8.4375C24.0016 8.45312 23.8922 8.46094 23.8453 8.46094C23.8141 8.46094 23.7828 8.48438 23.7516 8.53125C23.7203 8.5 23.6734 8.49219 23.6109 8.50781C23.5641 8.50781 23.525 8.49219 23.4937 8.46094C23.3531 8.38281 23.2672 8.34375 23.2359 8.34375C23.2047 8.34375 23.1734 8.33594 23.1422 8.32031C23.1109 8.16406 23.0719 8.0625 23.025 8.01562C22.9937 7.95312 22.9703 7.88281 22.9547 7.80469C22.9547 7.77344 22.9469 7.73438 22.9312 7.6875C22.9312 7.625 22.9391 7.57812 22.9547 7.54688C22.9703 7.45312 22.9703 7.39062 22.9547 7.35938C22.9391 7.32812 22.9234 7.29688 22.9078 7.26562C22.8922 7.09375 22.8844 6.98438 22.8844 6.9375C22.9 6.89062 22.9078 6.83594 22.9078 6.77344C22.8922 6.69531 22.8844 6.64844 22.8844 6.63281C22.9 6.60156 22.9078 6.5625 22.9078 6.51562C22.9078 6.39062 22.9 6.32031 22.8844 6.30469C22.8687 6.27344 22.8687 6.24219 22.8844 6.21094C22.8687 6.05469 22.8687 5.96094 22.8844 5.92969C22.9 5.86719 22.9 5.78125 22.8844 5.67188C22.8844 5.54688 22.8844 5.44531 22.8844 5.36719C22.9 5.21094 22.9 5.09375 22.8844 5.01562C22.8687 4.9375 22.8766 4.86719 22.9078 4.80469C23.0641 4.63281 23.1422 4.53906 23.1422 4.52344C23.3297 4.55469 23.4391 4.57031 23.4703 4.57031C23.5172 4.57031 23.5641 4.58594 23.6109 4.61719C23.7047 4.66406 23.775 4.6875 23.8219 4.6875C23.8844 4.67188 23.9391 4.6875 23.9859 4.73438C24.1266 4.70312 24.2594 4.70312 24.3844 4.73438C24.525 4.76562 24.6656 4.76562 24.8062 4.73438C24.8219 4.65625 24.8219 4.57812 24.8062 4.5C24.7906 4.42188 24.7906 4.35938 24.8062 4.3125C24.7906 4.20312 24.7828 4.07031 24.7828 3.91406C24.7984 3.75781 24.8062 3.625 24.8062 3.51562C24.775 3.34375 24.7594 3.25781 24.7594 3.25781C24.775 3.24219 24.7828 3.22656 24.7828 3.21094C24.7672 3.02344 24.7516 2.92188 24.7359 2.90625C24.7359 2.79688 24.7125 2.69531 24.6656 2.60156C24.65 2.57031 24.6422 2.53125 24.6422 2.48438C24.6422 2.42188 24.6422 2.375 24.6422 2.34375C24.5953 2.26562 24.5719 2.21094 24.5719 2.17969C24.5875 2.13281 24.5797 2.08594 24.5484 2.03906C24.5641 1.97656 24.5641 1.92188 24.5484 1.875C24.5328 1.8125 24.525 1.75781 24.525 1.71094C24.525 1.55469 24.5172 1.46094 24.5016 1.42969C24.5016 1.39844 24.5016 1.36719 24.5016 1.33594C24.5016 1.25781 24.5094 1.1875 24.525 1.125C24.5562 1.0625 24.5797 0.992188 24.5953 0.914062C24.5328 0.773438 24.5094 0.6875 24.525 0.65625C24.5406 0.625 24.5406 0.585938 24.525 0.539062C24.5875 0.476563 24.65 0.429688 24.7125 0.398438C24.7906 0.351562 24.8609 0.296875 24.9234 0.234375C24.9859 0.25 25.0484 0.25 25.1109 0.234375C25.1734 0.21875 25.2359 0.210938 25.2984 0.210938C25.4859 0.210938 25.5875 0.210938 25.6031 0.210938C25.6344 0.195313 25.6656 0.1875 25.6969 0.1875L26.0484 0.210938C26.0953 0.210938 26.1422 0.21875 26.1891 0.234375C26.2359 0.234375 26.275 0.226562 26.3062 0.210938C26.4937 0.179687 26.6031 0.171875 26.6344 0.1875C26.6812 0.1875 26.7203 0.179687 26.7516 0.164062H27.1266C27.2359 0.179687 27.3375 0.1875 27.4312 0.1875C27.5406 0.1875 27.65 0.195313 27.7594 0.210938C27.8219 0.210938 27.8766 0.21875 27.9234 0.234375C27.9859 0.25 28.0562 0.25 28.1344 0.234375C28.2906 0.3125 28.3766 0.359375 28.3922 0.375C28.4234 0.390625 28.4391 0.421875 28.4391 0.46875C28.5797 0.5625 28.6422 0.617188 28.6266 0.632812C28.6266 0.648437 28.6344 0.664063 28.65 0.679688C28.6969 0.710938 28.7203 0.757813 28.7203 0.820312C28.7359 0.882812 28.7359 0.929687 28.7203 0.960938C28.6891 1.14844 28.6812 1.25781 28.6969 1.28906C28.7125 1.32031 28.7203 1.35156 28.7203 1.38281C28.7047 1.55469 28.6969 1.65625 28.6969 1.6875C28.7125 1.71875 28.7203 1.75 28.7203 1.78125C28.7047 1.84375 28.6891 1.90625 28.6734 1.96875C28.6578 2.03125 28.6422 2.09375 28.6266 2.15625C28.6422 2.3125 28.6422 2.42188 28.6266 2.48438C28.6109 2.53125 28.6031 2.57031 28.6031 2.60156C28.6031 2.74219 28.5953 2.82031 28.5797 2.83594C28.5641 2.85156 28.5562 2.875 28.5562 2.90625C28.5406 3.03125 28.5328 3.16406 28.5328 3.30469C28.5328 3.42969 28.5328 3.57031 28.5328 3.72656C28.5172 3.80469 28.5016 3.88281 28.4859 3.96094C28.4703 4.03906 28.4625 4.10156 28.4625 4.14844C28.4469 4.33594 28.4391 4.46094 28.4391 4.52344C28.4547 4.58594 28.4547 4.65625 28.4391 4.73438ZM37.1391 2.69531C37.1078 2.67969 37.0609 2.6875 36.9984 2.71875C36.9516 2.73438 36.9125 2.74219 36.8812 2.74219C36.7094 2.72656 36.6 2.72656 36.5531 2.74219C36.5062 2.75781 36.4672 2.76562 36.4359 2.76562C36.3891 2.76562 36.3422 2.75781 36.2953 2.74219C36.2484 2.72656 36.1937 2.71875 36.1312 2.71875L35.7797 2.76562H35.3812C35.3344 2.75 35.2875 2.73438 35.2406 2.71875C35.1937 2.70312 35.1469 2.69531 35.1 2.69531C35.0219 2.69531 34.9594 2.71094 34.9125 2.74219C34.8656 2.75781 34.8109 2.75781 34.7484 2.74219C34.6078 2.77344 34.4984 2.79688 34.4203 2.8125C34.3422 2.82812 34.2641 2.82031 34.1859 2.78906C33.9984 2.74219 33.8969 2.71094 33.8812 2.69531C33.8812 2.66406 33.8656 2.64062 33.8344 2.625C33.7406 2.54688 33.6937 2.5 33.6937 2.48438C33.7094 2.45312 33.7094 2.42188 33.6937 2.39062C33.6625 2.25 33.6469 2.125 33.6469 2.01562C33.6625 1.89062 33.6625 1.76563 33.6469 1.64062C33.6469 1.5625 33.6391 1.49219 33.6234 1.42969C33.6078 1.36719 33.5922 1.30469 33.5766 1.24219C33.5453 1.07031 33.5219 0.960938 33.5062 0.914062C33.5531 0.804688 33.5766 0.679688 33.5766 0.539062C33.7016 0.398438 33.7719 0.3125 33.7875 0.28125C33.8031 0.25 33.8422 0.226562 33.9047 0.210938C34.0141 0.148438 34.0766 0.125 34.0922 0.140625C34.1078 0.140625 34.1469 0.148438 34.2094 0.164062C34.35 0.132812 34.4437 0.117188 34.4906 0.117188C34.5375 0.101563 34.5844 0.09375 34.6312 0.09375C34.7719 0.09375 34.85 0.09375 34.8656 0.09375C34.8969 0.078125 34.9281 0.0703125 34.9594 0.0703125C35.0844 0.0703125 35.1547 0.078125 35.1703 0.09375C35.2016 0.09375 35.2328 0.09375 35.2641 0.09375C35.3422 0.109375 35.4125 0.117188 35.475 0.117188C35.5375 0.101563 35.6 0.09375 35.6625 0.09375C35.7094 0.09375 35.7562 0.101563 35.8031 0.117188C35.85 0.132812 35.8891 0.140625 35.9203 0.140625C35.9984 0.125 36.0531 0.125 36.0844 0.140625C36.1156 0.15625 36.1469 0.164062 36.1781 0.164062C36.2406 0.164062 36.2953 0.15625 36.3422 0.140625C36.3891 0.109375 36.4437 0.09375 36.5062 0.09375C36.6781 0.125 36.7875 0.140625 36.8344 0.140625C36.8812 0.140625 36.9437 0.148438 37.0219 0.164062C37.0531 0.242188 37.1156 0.3125 37.2094 0.375C37.2719 0.546875 37.2953 0.632812 37.2797 0.632812C37.2797 0.632812 37.2797 0.640625 37.2797 0.65625C37.3109 0.890625 37.3187 1.0625 37.3031 1.17188C37.2875 1.26562 37.2953 1.36719 37.3266 1.47656C37.2953 1.50781 37.2797 1.55469 37.2797 1.61719C37.2953 1.66406 37.3031 1.71875 37.3031 1.78125C37.3031 1.82812 37.2953 1.88281 37.2797 1.94531C37.2641 1.99219 37.2562 2.03906 37.2562 2.08594C37.2875 2.38281 37.2484 2.58594 37.1391 2.69531ZM33.8109 17.8359C33.7797 17.6016 33.7641 17.4062 33.7641 17.25C33.7641 17.0938 33.7797 16.9375 33.8109 16.7812C33.7953 16.7344 33.7875 16.6875 33.7875 16.6406C33.8031 16.5938 33.8109 16.5547 33.8109 16.5234C33.8734 16.3828 33.9047 16.2891 33.9047 16.2422L33.9516 15.8203C33.9516 15.7734 33.9516 15.7344 33.9516 15.7031C33.9672 15.6562 33.975 15.6094 33.975 15.5625C33.9594 15.3906 33.9516 15.2969 33.9516 15.2812L34.0219 14.6484C34.0375 14.5078 34.0375 14.3672 34.0219 14.2266C34.0219 14.0859 34.0219 13.9453 34.0219 13.8047C34.0219 13.6484 34.0141 13.5703 33.9984 13.5703C33.9828 13.5547 33.975 13.5391 33.975 13.5234C33.9594 13.3359 33.9516 13.1797 33.9516 13.0547C33.9203 12.8516 33.9203 12.6797 33.9516 12.5391C34.0141 12.3828 34.0219 12.2734 33.975 12.2109C33.9281 12.0547 33.8969 11.8594 33.8812 11.625C33.8656 11.4844 33.8578 11.3906 33.8578 11.3438C33.8578 11.2812 33.85 11.2188 33.8344 11.1562C33.8031 10.9688 33.7953 10.8516 33.8109 10.8047C33.8266 10.7578 33.8344 10.7188 33.8344 10.6875C33.8344 10.625 33.8266 10.5625 33.8109 10.5C33.8109 10.4375 33.8266 10.3672 33.8578 10.2891C33.8734 10.2266 33.8656 10.1172 33.8344 9.96094C33.8344 9.88281 33.8344 9.75781 33.8344 9.58594C33.8344 9.41406 33.8266 9.27344 33.8109 9.16406C33.7953 8.97656 33.7875 8.875 33.7875 8.85938C33.8031 8.84375 33.8109 8.82812 33.8109 8.8125C33.7641 8.65625 33.7406 8.54688 33.7406 8.48438C33.7562 8.42188 33.7562 8.35938 33.7406 8.29688C33.7406 8.14062 33.725 8.00781 33.6937 7.89844L33.6703 7.61719C33.6547 7.53906 33.6391 7.47656 33.6234 7.42969C33.6078 7.36719 33.5922 7.29688 33.5766 7.21875C33.5453 7.03125 33.5297 6.92969 33.5297 6.91406C33.5453 6.89844 33.5453 6.875 33.5297 6.84375C33.5609 6.79688 33.5609 6.72656 33.5297 6.63281C33.4984 6.53906 33.4828 6.46094 33.4828 6.39844C33.4672 6.24219 33.4594 6.14844 33.4594 6.11719C33.4594 6.07031 33.4594 6.02344 33.4594 5.97656C33.475 5.91406 33.4828 5.84375 33.4828 5.76562C33.4672 5.67188 33.4594 5.57031 33.4594 5.46094C33.4594 5.33594 33.475 5.21094 33.5062 5.08594C33.5375 5.05469 33.5766 5.02344 33.6234 4.99219C33.6859 4.96094 33.7406 4.92969 33.7875 4.89844C33.9125 4.86719 33.9906 4.85938 34.0219 4.875C34.0531 4.875 34.0844 4.875 34.1156 4.875C34.3031 4.84375 34.4594 4.8125 34.5844 4.78125C34.6781 4.8125 34.7875 4.82812 34.9125 4.82812C35.0375 4.8125 35.1469 4.80469 35.2406 4.80469C35.3187 4.77344 35.3969 4.76562 35.475 4.78125C35.5531 4.79688 35.6391 4.79688 35.7328 4.78125C35.9203 4.79688 36.0141 4.80469 36.0141 4.80469C36.1547 4.77344 36.225 4.76562 36.225 4.78125C36.2406 4.78125 36.2641 4.78125 36.2953 4.78125C36.4672 4.76562 36.5453 4.75781 36.5297 4.75781C36.5141 4.74219 36.5219 4.75 36.5531 4.78125C36.7094 4.8125 36.8109 4.84375 36.8578 4.875C36.9047 4.90625 36.9672 4.92969 37.0453 4.94531C37.1391 5.11719 37.1859 5.22656 37.1859 5.27344C37.2016 5.32031 37.2172 5.38281 37.2328 5.46094C37.2328 5.50781 37.225 5.55469 37.2094 5.60156C37.2094 5.63281 37.2172 5.67188 37.2328 5.71875C37.2484 5.84375 37.2484 5.91406 37.2328 5.92969C37.2328 5.94531 37.2328 5.96875 37.2328 6C37.2484 6.03125 37.2484 6.07812 37.2328 6.14062C37.2328 6.1875 37.2328 6.23438 37.2328 6.28125C37.2484 6.35938 37.2641 6.4375 37.2797 6.51562C37.3109 6.59375 37.3187 6.65625 37.3031 6.70312C37.2875 6.76562 37.2953 6.86719 37.3266 7.00781C37.3266 7.08594 37.3187 7.15625 37.3031 7.21875C37.3031 7.28125 37.3187 7.35156 37.35 7.42969C37.3187 7.52344 37.3109 7.625 37.3266 7.73438C37.3422 7.82812 37.3422 7.92969 37.3266 8.03906C37.3266 8.10156 37.3187 8.16406 37.3031 8.22656C37.3031 8.27344 37.3031 8.32812 37.3031 8.39062C37.2875 8.46875 37.2719 8.53906 37.2562 8.60156C37.2562 8.64844 37.2562 8.70312 37.2562 8.76562C37.2562 8.8125 37.2641 8.86719 37.2797 8.92969C37.2953 8.99219 37.3031 9.04688 37.3031 9.09375C37.2875 9.32812 37.2719 9.54688 37.2562 9.75C37.2562 9.9375 37.2484 10.1172 37.2328 10.2891C37.2328 10.3828 37.2328 10.4766 37.2328 10.5703C37.2328 10.6484 37.2172 10.7188 37.1859 10.7812C37.1859 10.875 37.1781 10.9531 37.1625 11.0156C37.1625 11.0625 37.1625 11.1016 37.1625 11.1328C37.1625 11.3984 37.1703 11.625 37.1859 11.8125C37.2016 12 37.2094 12.1875 37.2094 12.375C37.2094 12.5 37.2016 12.6094 37.1859 12.7031C37.1703 12.7969 37.1703 12.8984 37.1859 13.0078C37.2328 13.1953 37.2484 13.3203 37.2328 13.3828C37.2328 13.4453 37.2406 13.5156 37.2562 13.5938C37.2719 13.75 37.2797 13.8594 37.2797 13.9219C37.2953 13.9844 37.3031 14.0781 37.3031 14.2031C37.3031 14.3594 37.3031 14.4922 37.3031 14.6016C37.3187 14.6953 37.3578 14.7812 37.4203 14.8594C37.3891 14.9375 37.3812 15.0156 37.3969 15.0938C37.4125 15.1719 37.4203 15.25 37.4203 15.3281C37.4359 15.375 37.4359 15.4219 37.4203 15.4688C37.4047 15.5156 37.4047 15.5625 37.4203 15.6094C37.4203 15.6406 37.4203 15.6875 37.4203 15.75C37.4359 15.7969 37.4437 15.8359 37.4437 15.8672C37.475 16.0391 37.4906 16.1328 37.4906 16.1484C37.4906 16.1484 37.4984 16.1641 37.5141 16.1953C37.5297 16.5234 37.5609 16.7422 37.6078 16.8516C37.6078 16.9297 37.6234 17.0312 37.6547 17.1562C37.6859 17.3438 37.7016 17.4688 37.7016 17.5312C37.7172 17.5781 37.7172 17.6406 37.7016 17.7188C37.5922 17.8594 37.5375 17.9297 37.5375 17.9297C37.3969 18.0703 37.2797 18.1406 37.1859 18.1406C36.9984 18.1875 36.8734 18.2031 36.8109 18.1875C36.7641 18.1875 36.7172 18.2031 36.6703 18.2344C36.5453 18.2344 36.475 18.2266 36.4594 18.2109C36.4594 18.2109 36.4437 18.2109 36.4125 18.2109C36.2406 18.1797 36.1312 18.1641 36.0844 18.1641C35.8969 18.1953 35.7953 18.2031 35.7797 18.1875C35.7641 18.1719 35.7406 18.1641 35.7094 18.1641C35.5531 18.1797 35.4516 18.1797 35.4047 18.1641C35.3578 18.1641 35.3109 18.1641 35.2641 18.1641C35.1078 18.2109 35.0062 18.2266 34.9594 18.2109C34.9125 18.2109 34.8734 18.2109 34.8422 18.2109C34.7172 18.2109 34.6156 18.2109 34.5375 18.2109C34.4594 18.2266 34.3812 18.2188 34.3031 18.1875C34.2094 18.1875 34.1234 18.1641 34.0453 18.1172C33.9359 18.0078 33.8734 17.9531 33.8578 17.9531C33.8578 17.9531 33.85 17.9453 33.8344 17.9297L33.8109 17.8359ZM41.8547 4.40625C42.1984 4.375 42.4875 4.41406 42.7219 4.52344C42.925 4.53906 43.1047 4.53906 43.2609 4.52344C43.4016 4.52344 43.4875 4.53125 43.5187 4.54688C43.5656 4.5625 43.6047 4.57031 43.6359 4.57031C43.8547 4.55469 44.0266 4.55469 44.1516 4.57031C44.2922 4.57031 44.4328 4.57812 44.5734 4.59375C44.6828 4.60938 44.7453 4.61719 44.7609 4.61719C44.7766 4.60156 44.8 4.59375 44.8312 4.59375C44.8781 4.59375 44.925 4.60156 44.9719 4.61719C45.0187 4.63281 45.0812 4.64062 45.1594 4.64062C45.3 4.65625 45.4172 4.64062 45.5109 4.59375C45.6828 4.57812 45.8078 4.57812 45.8859 4.59375C45.9641 4.59375 46.0422 4.59375 46.1203 4.59375C46.1984 4.59375 46.2766 4.59375 46.3547 4.59375C46.4328 4.57812 46.5109 4.57031 46.5891 4.57031C46.6672 4.57031 46.7375 4.57812 46.8 4.59375C46.8781 4.59375 46.9562 4.60156 47.0344 4.61719C47.0812 4.58594 47.1359 4.57031 47.1984 4.57031C47.2609 4.57031 47.3312 4.57031 47.4094 4.57031H47.8078C47.9953 4.60156 48.1047 4.60938 48.1359 4.59375C48.1828 4.57812 48.2219 4.57031 48.2531 4.57031L48.9094 4.54688C48.9875 4.54688 49.05 4.54688 49.0969 4.54688C49.1594 4.53125 49.2531 4.52344 49.3781 4.52344C49.4406 4.52344 49.5109 4.51562 49.5891 4.5C49.6672 4.48438 49.7453 4.49219 49.8234 4.52344C50.0422 4.53906 50.175 4.54688 50.2219 4.54688C50.2687 4.53125 50.3078 4.53125 50.3391 4.54688C50.5109 4.625 50.6125 4.66406 50.6437 4.66406C50.675 4.66406 50.6984 4.67969 50.7141 4.71094C50.7453 4.72656 50.7609 4.76562 50.7609 4.82812C50.7766 4.875 50.8 4.92188 50.8312 4.96875C50.8781 5.125 50.9094 5.21094 50.925 5.22656C50.9406 5.28906 50.9484 5.34375 50.9484 5.39062C50.9641 5.4375 50.9719 5.49219 50.9719 5.55469C50.9719 5.69531 50.9641 5.78906 50.9484 5.83594C50.9484 5.88281 50.9641 5.92188 50.9953 5.95312C50.9484 6.09375 50.9328 6.17188 50.9484 6.1875C50.9641 6.1875 50.9719 6.20312 50.9719 6.23438L50.9484 6.72656C50.9328 6.96094 50.9406 7.10156 50.9719 7.14844C51.0031 7.19531 51.0187 7.25 51.0187 7.3125C51.0187 7.35938 51.0031 7.40625 50.9719 7.45312C50.9562 7.48438 50.9562 7.53906 50.9719 7.61719L50.9953 8.01562C50.9641 8.17188 50.9406 8.26562 50.925 8.29688C50.9094 8.32812 50.8859 8.35938 50.8547 8.39062C50.8391 8.4375 50.8312 8.48438 50.8312 8.53125C50.8312 8.57812 50.8078 8.61719 50.7609 8.64844C50.6516 8.78906 50.5969 8.875 50.5969 8.90625C50.5969 8.9375 50.5812 8.96875 50.55 9L50.2219 9.375L50.0344 9.58594C49.8937 9.69531 49.8234 9.75 49.8234 9.75C49.7297 9.82812 49.6672 9.875 49.6359 9.89062C49.6203 9.90625 49.5969 9.92969 49.5656 9.96094C49.4406 10.0859 49.3312 10.1797 49.2375 10.2422C49.1125 10.3047 49.0422 10.3516 49.0266 10.3828C49.0266 10.3984 49.0109 10.4062 48.9797 10.4062C48.9172 10.4062 48.8781 10.4375 48.8625 10.5C48.8469 10.5625 48.8078 10.5859 48.7453 10.5703C48.6516 10.6641 48.6047 10.7188 48.6047 10.7344C48.6047 10.75 48.5891 10.7656 48.5578 10.7812C48.4016 10.875 48.2922 10.9531 48.2297 11.0156C48.1984 11.0469 48.1672 11.0859 48.1359 11.1328C48.1047 11.1641 48.0734 11.1953 48.0422 11.2266C47.9016 11.3516 47.8 11.4375 47.7375 11.4844C47.6125 11.5938 47.5344 11.6797 47.5031 11.7422C47.425 11.8359 47.3469 11.8828 47.2687 11.8828C47.1281 11.9922 47.05 12.0625 47.0344 12.0938C47.0344 12.1094 47.0187 12.125 46.9875 12.1406L46.7766 12.3047C46.6516 12.4141 46.5656 12.4844 46.5187 12.5156C46.4875 12.5312 46.4562 12.5547 46.425 12.5859C46.3625 12.6172 46.3 12.6562 46.2375 12.7031C46.1906 12.7344 46.1516 12.7734 46.1203 12.8203C46.0734 12.8359 46.0266 12.8672 45.9797 12.9141C45.9484 12.9453 45.9172 12.9766 45.8859 13.0078C45.7453 13.1484 45.6359 13.2344 45.5578 13.2656C45.4797 13.375 45.4328 13.4375 45.4172 13.4531C45.4016 13.4688 45.3937 13.5 45.3937 13.5469C45.3156 13.5781 45.2531 13.6172 45.2062 13.6641C45.1594 13.6953 45.1125 13.7266 45.0656 13.7578C44.9719 13.8672 44.9094 13.9375 44.8781 13.9688C44.8625 13.9844 44.8469 14.0078 44.8312 14.0391C44.7375 14.2109 44.6828 14.3047 44.6672 14.3203C44.6672 14.3359 44.6594 14.3672 44.6437 14.4141C44.6906 14.5859 44.7297 14.6719 44.7609 14.6719C44.8078 14.6562 44.8625 14.6641 44.925 14.6953C45.1281 14.7422 45.2453 14.7578 45.2766 14.7422C45.3234 14.7266 45.3781 14.7266 45.4406 14.7422C45.6125 14.7734 45.7453 14.7812 45.8391 14.7656C45.9484 14.75 46.0422 14.7422 46.1203 14.7422C46.1672 14.7266 46.2062 14.7266 46.2375 14.7422C46.2844 14.7422 46.3391 14.7422 46.4016 14.7422C46.4484 14.7422 46.4953 14.7422 46.5422 14.7422C46.6047 14.7266 46.6594 14.7266 46.7062 14.7422C46.7531 14.7422 46.8 14.75 46.8469 14.7656C46.8937 14.7812 46.9484 14.7891 47.0109 14.7891C47.1047 14.8047 47.1984 14.8047 47.2922 14.7891C47.4016 14.7734 47.4953 14.7578 47.5734 14.7422C47.8078 14.7734 47.9719 14.7812 48.0656 14.7656C48.175 14.7344 48.3 14.7188 48.4406 14.7188C48.5031 14.7031 48.5656 14.7031 48.6281 14.7188C48.7062 14.7188 48.7609 14.7188 48.7922 14.7188C48.8703 14.7188 48.9484 14.7031 49.0266 14.6719C49.1047 14.6406 49.175 14.6328 49.2375 14.6484C49.4406 14.6172 49.5812 14.5859 49.6594 14.5547C49.7375 14.5078 49.8156 14.4688 49.8937 14.4375C50.0187 14.4062 50.1047 14.3984 50.1516 14.4141C50.2141 14.4141 50.2531 14.3828 50.2687 14.3203C50.3469 14.3516 50.4484 14.3516 50.5734 14.3203C50.7297 14.2422 50.8469 14.2031 50.925 14.2031C51.1437 14.2656 51.2687 14.3359 51.3 14.4141C51.3156 14.4453 51.3156 14.5 51.3 14.5781C51.3 14.6406 51.3078 14.7031 51.3234 14.7656C51.2922 14.8125 51.2766 14.8828 51.2766 14.9766C51.2766 15.0703 51.2687 15.1562 51.2531 15.2344C51.2531 15.3438 51.2375 15.4375 51.2062 15.5156C51.1906 15.5781 51.175 15.6406 51.1594 15.7031C51.1906 15.8594 51.1906 15.9375 51.1594 15.9375C51.1281 15.9375 51.1203 15.9531 51.1359 15.9844C51.0891 16.1094 51.0344 16.2031 50.9719 16.2656C50.9719 16.3125 50.9641 16.3594 50.9484 16.4062C50.9484 16.4531 50.9406 16.5078 50.925 16.5703L50.8781 16.8281C50.8469 16.9219 50.8312 16.9922 50.8312 17.0391C50.8312 17.0703 50.8234 17.1016 50.8078 17.1328C50.7453 17.3203 50.7141 17.4453 50.7141 17.5078C50.7141 17.5547 50.7062 17.6172 50.6906 17.6953C50.6594 17.8047 50.6359 17.8672 50.6203 17.8828C50.6047 17.8828 50.5891 17.8984 50.5734 17.9297C50.4953 18.0078 50.4406 18.0547 50.4094 18.0703C50.3781 18.0859 50.3469 18.0781 50.3156 18.0469C50.1906 18.0781 50.1047 18.1016 50.0578 18.1172C50.0266 18.1328 49.9953 18.1328 49.9641 18.1172C49.8859 18.0703 49.7766 18.0547 49.6359 18.0703L49.3312 18.0469C49.2531 18.0469 49.1672 18.0469 49.0734 18.0469C48.9797 18.0625 48.8937 18.0625 48.8156 18.0469C48.7687 18.0312 48.7141 18.0156 48.6516 18C48.6047 17.9688 48.5422 17.9531 48.4641 17.9531C48.3859 17.9531 48.3156 17.9609 48.2531 17.9766C48.1906 17.9922 48.1437 18 48.1125 18C48.0656 18.0156 48.0187 18.0156 47.9719 18C47.925 18 47.8781 18 47.8312 18C47.7062 18 47.5734 18.0078 47.4328 18.0234C47.3078 18.0547 47.1828 18.0703 47.0578 18.0703C46.7922 18.0703 46.6047 18.0703 46.4953 18.0703C46.3859 18.0859 46.2922 18.1016 46.2141 18.1172C46.0578 18.1328 45.9797 18.1328 45.9797 18.1172C45.9797 18.1016 45.9641 18.0938 45.9328 18.0938C45.8078 18.125 45.6906 18.125 45.5812 18.0938C45.4719 18.0781 45.3547 18.0938 45.2297 18.1406C45.1828 18.1094 45.1359 18.0938 45.0891 18.0938C45.0422 18.1094 44.9797 18.1172 44.9016 18.1172C44.8703 18.1172 44.8312 18.1094 44.7844 18.0938C44.7531 18.0938 44.7062 18.1016 44.6437 18.1172C44.4562 18.1172 44.3547 18.125 44.3391 18.1406C44.3391 18.1562 44.3234 18.1562 44.2922 18.1406C44.2609 18.1406 44.2141 18.1406 44.1516 18.1406C44.1047 18.1562 44.0656 18.1641 44.0344 18.1641C43.925 18.1641 43.8469 18.1719 43.8 18.1875C43.7531 18.2031 43.6984 18.2188 43.6359 18.2344C43.4328 18.2188 43.2922 18.2031 43.2141 18.1875C43.1359 18.1719 43.0578 18.1641 42.9797 18.1641C42.9016 18.1641 42.8312 18.1719 42.7687 18.1875C42.7219 18.2031 42.6516 18.2109 42.5578 18.2109C42.4172 18.1953 42.3234 18.1875 42.2766 18.1875C42.1984 18.1875 42.1281 18.1875 42.0656 18.1875C42.0031 18.2031 41.9406 18.1875 41.8781 18.1406C41.7531 18.2031 41.6516 18.2031 41.5734 18.1406C41.5109 18.0938 41.4328 18.0312 41.3391 17.9531C41.2297 17.8594 41.175 17.8047 41.175 17.7891C41.1906 17.7734 41.1906 17.7578 41.175 17.7422C41.0969 17.6328 41.05 17.5547 41.0344 17.5078C41.0187 17.4609 41.0031 17.4219 40.9875 17.3906C40.9719 17.2812 40.9484 17.1953 40.9172 17.1328V16.7344C40.9172 16.5938 40.9172 16.5078 40.9172 16.4766C40.9328 16.4297 40.9406 16.3906 40.9406 16.3594C40.9562 16.2188 40.9484 16.0781 40.9172 15.9375C40.9172 15.7812 40.8937 15.6562 40.8469 15.5625C40.8156 15.4688 40.8 15.3906 40.8 15.3281C40.8 15.25 40.8078 15.1719 40.8234 15.0938C40.8547 15.0156 40.8625 14.9375 40.8469 14.8594C40.8 14.6875 40.7766 14.5859 40.7766 14.5547C40.7922 14.5234 40.7844 14.4844 40.7531 14.4375C40.7844 14.3906 40.8 14.3359 40.8 14.2734C40.8 14.2109 40.8078 14.1484 40.8234 14.0859C40.8547 14.0391 40.8859 14 40.9172 13.9688C40.9484 13.9219 40.9641 13.8672 40.9641 13.8047C41.0109 13.7734 41.05 13.7344 41.0812 13.6875C41.1125 13.6406 41.1437 13.5938 41.175 13.5469C41.3 13.375 41.3703 13.2812 41.3859 13.2656C41.4172 13.25 41.4484 13.2266 41.4797 13.1953C41.5734 13.1172 41.6203 13.0703 41.6203 13.0547C41.6359 13.0234 41.6594 12.9922 41.6906 12.9609C41.8312 12.8516 41.9172 12.7812 41.9484 12.75C41.9797 12.7031 42.0187 12.6641 42.0656 12.6328C42.0969 12.5859 42.1281 12.5547 42.1594 12.5391C42.2062 12.5078 42.2375 12.4531 42.2531 12.375C42.3937 12.2656 42.4719 12.2109 42.4875 12.2109C42.5031 12.2109 42.5266 12.1953 42.5578 12.1641L42.9094 11.9062C42.9406 11.875 42.9797 11.8438 43.0266 11.8125C43.0734 11.7812 43.1125 11.75 43.1437 11.7188C43.175 11.6875 43.2062 11.6562 43.2375 11.625C43.2844 11.5781 43.3156 11.5312 43.3312 11.4844C43.3937 11.4688 43.4328 11.4453 43.4484 11.4141C43.4797 11.3828 43.5109 11.3516 43.5422 11.3203C43.6516 11.2109 43.7141 11.1484 43.7297 11.1328C43.8859 10.9922 43.9797 10.9062 44.0109 10.875C44.0578 10.8281 44.0969 10.7734 44.1281 10.7109C44.2062 10.6797 44.2609 10.6328 44.2922 10.5703C44.3391 10.5078 44.4094 10.4609 44.5031 10.4297C44.5344 10.3828 44.5656 10.3516 44.5969 10.3359C44.6437 10.3047 44.6828 10.2656 44.7141 10.2188C44.8078 10.0938 44.8625 10.0234 44.8781 10.0078C44.9094 9.97656 44.9406 9.94531 44.9719 9.91406C45.0031 9.88281 45.0344 9.85156 45.0656 9.82031C45.1125 9.78906 45.1516 9.75781 45.1828 9.72656C45.3391 9.63281 45.4484 9.54688 45.5109 9.46875C45.5891 9.375 45.6672 9.28906 45.7453 9.21094C45.8703 9.14844 45.9484 9.10156 45.9797 9.07031C46.0734 8.91406 46.1516 8.82031 46.2141 8.78906C46.2922 8.71094 46.3547 8.64844 46.4016 8.60156C46.4641 8.52344 46.5266 8.46875 46.5891 8.4375C46.6672 8.40625 46.7219 8.35156 46.7531 8.27344C46.675 8.19531 46.5812 8.15625 46.4719 8.15625C46.3156 8.1875 46.2219 8.20312 46.1906 8.20312C46.1594 8.1875 46.1281 8.17969 46.0969 8.17969C46.05 8.17969 46.0031 8.1875 45.9562 8.20312C45.9094 8.20312 45.8625 8.20312 45.8156 8.20312C45.6281 8.21875 45.4953 8.22656 45.4172 8.22656C45.3391 8.21094 45.2766 8.20312 45.2297 8.20312C45.1828 8.20312 45.1359 8.21094 45.0891 8.22656C45.0422 8.22656 44.9953 8.22656 44.9484 8.22656H44.6906C44.5187 8.25781 44.425 8.27344 44.4094 8.27344C44.3937 8.25781 44.3703 8.25 44.3391 8.25C44.1828 8.29688 44.0969 8.3125 44.0812 8.29688C44.0656 8.28125 44.05 8.28906 44.0344 8.32031C43.8625 8.30469 43.7531 8.30469 43.7062 8.32031C43.675 8.33594 43.6359 8.34375 43.5891 8.34375C43.5578 8.35938 43.5187 8.36719 43.4719 8.36719C43.425 8.35156 43.3781 8.34375 43.3312 8.34375C43.2844 8.35938 43.2375 8.36719 43.1906 8.36719C43.1594 8.35156 43.1203 8.35156 43.0734 8.36719C42.8703 8.42969 42.7141 8.46875 42.6047 8.48438C42.5109 8.48438 42.425 8.5 42.3469 8.53125C42.1125 8.5625 41.9562 8.60156 41.8781 8.64844C41.8156 8.67969 41.7297 8.6875 41.6203 8.67188H41.3391C41.2609 8.67188 41.1906 8.66406 41.1281 8.64844C41.0656 8.63281 40.9953 8.63281 40.9172 8.64844C40.7766 8.52344 40.7062 8.45312 40.7062 8.4375C40.6125 8.28125 40.5578 8.16406 40.5422 8.08594C40.5422 7.99219 40.5109 7.91406 40.4484 7.85156C40.4172 7.67969 40.3937 7.57031 40.3781 7.52344C40.3469 7.33594 40.3312 7.20312 40.3312 7.125C40.3625 6.92188 40.3625 6.8125 40.3312 6.79688C40.3156 6.76562 40.2922 6.73438 40.2609 6.70312C40.2766 6.59375 40.2766 6.53125 40.2609 6.51562C40.2609 6.5 40.2609 6.47656 40.2609 6.44531C40.2766 6.28906 40.2766 6.19531 40.2609 6.16406C40.2453 6.11719 40.2297 6.0625 40.2141 6C40.1984 5.9375 40.1984 5.89062 40.2141 5.85938C40.2297 5.82812 40.2375 5.78125 40.2375 5.71875C40.2531 5.67188 40.2531 5.63281 40.2375 5.60156C40.2375 5.55469 40.2453 5.50781 40.2609 5.46094C40.3547 5.22656 40.4016 5.03906 40.4016 4.89844C40.4328 4.85156 40.4641 4.82031 40.4953 4.80469C40.5422 4.77344 40.5734 4.73438 40.5891 4.6875C40.7766 4.65625 40.9719 4.60156 41.175 4.52344C41.3781 4.44531 41.5656 4.42188 41.7375 4.45312L41.8547 4.40625ZM53.5781 10.4297C53.6406 10.2578 53.6719 10.1172 53.6719 10.0078C53.6719 9.89844 53.6953 9.8125 53.7422 9.75V9.44531C53.8203 9.25781 53.8594 9.14062 53.8594 9.09375C53.8906 8.92188 53.9062 8.82812 53.9062 8.8125C53.9062 8.78125 53.9141 8.75 53.9297 8.71875C53.9453 8.65625 53.9766 8.55469 54.0234 8.41406C54.0859 8.22656 54.1328 8.09375 54.1641 8.01562C54.1953 7.9375 54.2266 7.86719 54.2578 7.80469C54.3359 7.67969 54.375 7.60156 54.375 7.57031C54.375 7.53906 54.3906 7.50781 54.4219 7.47656C54.4531 7.42969 54.4922 7.38281 54.5391 7.33594C54.5859 7.27344 54.6094 7.20312 54.6094 7.125C54.7344 6.96875 54.8438 6.875 54.9375 6.84375C55 6.6875 55.0547 6.60156 55.1016 6.58594C55.1484 6.55469 55.1641 6.5 55.1484 6.42188C55.2109 6.39062 55.2578 6.35938 55.2891 6.32812C55.3203 6.28125 55.375 6.24219 55.4531 6.21094C55.5156 6.07031 55.5469 5.99219 55.5469 5.97656C55.5625 5.96094 55.5859 5.94531 55.6172 5.92969C55.6641 5.89844 55.7109 5.85938 55.7578 5.8125C55.8047 5.76562 55.8516 5.71875 55.8984 5.67188C56.0234 5.59375 56.1094 5.55469 56.1562 5.55469C56.3125 5.44531 56.4297 5.375 56.5078 5.34375C56.5859 5.3125 56.6406 5.25781 56.6719 5.17969C56.7344 5.17969 56.7812 5.17188 56.8125 5.15625C56.8594 5.14062 56.9062 5.125 56.9531 5.10938C57.1094 5.03125 57.1953 4.98438 57.2109 4.96875C57.2422 4.95312 57.2656 4.94531 57.2812 4.94531C57.3125 4.91406 57.3516 4.88281 57.3984 4.85156C57.4453 4.82031 57.4844 4.78906 57.5156 4.75781C57.6094 4.75781 57.6953 4.73438 57.7734 4.6875L58.0547 4.64062C58.2109 4.57812 58.2969 4.55469 58.3125 4.57031C58.3438 4.58594 58.3828 4.58594 58.4297 4.57031C58.5391 4.55469 58.6094 4.53906 58.6406 4.52344C58.6719 4.49219 58.7031 4.46875 58.7344 4.45312C58.8594 4.4375 59 4.41406 59.1562 4.38281C59.2188 4.36719 59.2656 4.35156 59.2969 4.33594C59.3438 4.32031 59.3984 4.30469 59.4609 4.28906C59.5859 4.30469 59.6875 4.30469 59.7656 4.28906C59.8438 4.27344 59.9219 4.26562 60 4.26562C60.0625 4.26562 60.125 4.27344 60.1875 4.28906C60.25 4.30469 60.3125 4.32031 60.375 4.33594C60.4844 4.33594 60.5781 4.33594 60.6562 4.33594C60.75 4.33594 60.8516 4.34375 60.9609 4.35938C61.0234 4.40625 61.0859 4.44531 61.1484 4.47656C61.2266 4.49219 61.3047 4.51562 61.3828 4.54688C61.5703 4.625 61.7031 4.69531 61.7812 4.75781C61.9688 4.80469 62.1094 4.85938 62.2031 4.92188C62.3594 5.01562 62.4531 5.07031 62.4844 5.08594C62.5156 5.10156 62.5469 5.10938 62.5781 5.10938C62.7812 5.21875 62.9297 5.30469 63.0234 5.36719C63.1172 5.44531 63.1875 5.50781 63.2344 5.55469C63.2656 5.58594 63.2969 5.60938 63.3281 5.625C63.375 5.64062 63.4219 5.66406 63.4688 5.69531L63.6797 6C63.7578 6.07812 63.8047 6.13281 63.8203 6.16406C63.8359 6.17969 63.8594 6.17969 63.8906 6.16406C63.9688 6.28906 64.0078 6.36719 64.0078 6.39844C64.0234 6.41406 64.0469 6.42969 64.0781 6.44531C64.2031 6.61719 64.2656 6.71094 64.2656 6.72656C64.3594 6.88281 64.4141 6.98438 64.4297 7.03125C64.4609 7.0625 64.4922 7.10938 64.5234 7.17188C64.5703 7.32812 64.6016 7.42969 64.6172 7.47656C64.6484 7.52344 64.6719 7.57031 64.6875 7.61719C64.7344 7.69531 64.7578 7.75781 64.7578 7.80469C64.7734 7.85156 64.8047 7.88281 64.8516 7.89844C64.8359 7.97656 64.8438 8.05469 64.875 8.13281C64.9062 8.21094 64.9375 8.28125 64.9688 8.34375C64.9688 8.40625 64.9844 8.5 65.0156 8.625C65.0469 8.8125 65.0625 8.92969 65.0625 8.97656C65.0781 9.02344 65.0859 9.0625 65.0859 9.09375C65.1328 9.1875 65.1484 9.25781 65.1328 9.30469C65.1328 9.33594 65.1406 9.375 65.1562 9.42188C65.1562 9.48438 65.1641 9.53906 65.1797 9.58594C65.1953 9.63281 65.2109 9.67969 65.2266 9.72656C65.2578 9.99219 65.2578 10.2891 65.2266 10.6172C65.2109 10.7266 65.1953 10.8125 65.1797 10.875C65.1797 10.9375 65.1641 11.0156 65.1328 11.1094C64.9766 11.1719 64.8672 11.2188 64.8047 11.25C64.6953 11.3281 64.6016 11.3672 64.5234 11.3672C64.4453 11.3672 64.3828 11.4062 64.3359 11.4844C64.2109 11.4531 64.1406 11.4531 64.125 11.4844C64.125 11.5156 64.1094 11.5312 64.0781 11.5312C63.9062 11.5938 63.8047 11.625 63.7734 11.625C63.7422 11.625 63.7188 11.6406 63.7031 11.6719C63.6406 11.6562 63.5781 11.6641 63.5156 11.6953C63.4688 11.7266 63.4141 11.75 63.3516 11.7656C63.1484 11.75 62.9688 11.7734 62.8125 11.8359C62.6875 11.8672 62.5625 11.9062 62.4375 11.9531C62.3281 11.9844 62.2109 12.0156 62.0859 12.0469C61.9609 12.1094 61.8516 12.1406 61.7578 12.1406C61.6016 12.2344 61.4922 12.2891 61.4297 12.3047C61.3672 12.3047 61.3125 12.3203 61.2656 12.3516C61.1719 12.3984 61.0625 12.4453 60.9375 12.4922C60.8125 12.5234 60.6875 12.5312 60.5625 12.5156C60.5312 12.5469 60.4922 12.5625 60.4453 12.5625C60.4141 12.5469 60.3672 12.5469 60.3047 12.5625C60.1484 12.625 60.0703 12.6641 60.0703 12.6797C60.0703 12.6797 60.0625 12.6797 60.0469 12.6797C59.9688 12.7109 59.8906 12.7344 59.8125 12.75C59.7344 12.75 59.6562 12.7656 59.5781 12.7969C59.5312 12.8281 59.4609 12.8516 59.3672 12.8672C59.2891 12.8828 59.2188 12.9141 59.1562 12.9609C59.1094 12.9453 59.0625 12.9531 59.0156 12.9844C58.9688 13 58.9141 13.0156 58.8516 13.0312C58.7734 12.9844 58.7188 12.9688 58.6875 12.9844C58.6562 12.9844 58.625 12.9766 58.5938 12.9609C58.5312 12.8984 58.4766 12.8672 58.4297 12.8672C58.3828 12.8516 58.3438 12.8359 58.3125 12.8203C58.2031 12.7109 58.1406 12.6328 58.125 12.5859C58.0938 12.5547 58.0547 12.5156 58.0078 12.4688C57.9766 12.4219 57.9453 12.3828 57.9141 12.3516C57.8828 12.2734 57.8359 12.2109 57.7734 12.1641C57.7266 12.1172 57.6875 12.0547 57.6562 11.9766C57.5312 11.8672 57.4688 11.7812 57.4688 11.7188C57.3594 11.5625 57.2969 11.4766 57.2812 11.4609C57.2812 11.4453 57.2812 11.4219 57.2812 11.3906C57.2188 11.3125 57.1562 11.2344 57.0938 11.1562C57.0312 11.0781 56.9844 10.9766 56.9531 10.8516C56.875 11.0391 56.8359 11.1641 56.8359 11.2266C56.8516 11.2891 56.8594 11.3516 56.8594 11.4141C56.875 11.5547 56.9062 11.6641 56.9531 11.7422C56.9219 11.7734 56.9141 11.8203 56.9297 11.8828C56.9453 11.9297 56.9531 11.9844 56.9531 12.0469C56.9688 12.1406 56.9766 12.2109 56.9766 12.2578C56.9766 12.2891 56.9844 12.3203 57 12.3516L57.0469 12.6328C57.1406 12.8359 57.1875 12.9609 57.1875 13.0078C57.2031 13.0391 57.2188 13.0703 57.2344 13.1016C57.3438 13.2266 57.4141 13.3281 57.4453 13.4062L57.5625 13.6641C57.6875 13.8359 57.7578 13.9375 57.7734 13.9688C57.8828 14.0938 57.9688 14.1875 58.0312 14.25C58.2344 14.4062 58.3438 14.5156 58.3594 14.5781C58.5156 14.6406 58.6172 14.7031 58.6641 14.7656C58.7578 14.7969 58.8125 14.8203 58.8281 14.8359C58.8594 14.8516 58.8906 14.8672 58.9219 14.8828C58.9531 14.9141 58.9922 14.9375 59.0391 14.9531C59.0859 14.9688 59.125 14.9922 59.1562 15.0234C59.2344 15.0391 59.3203 15.0469 59.4141 15.0469C59.6016 15.0938 59.7422 15.1172 59.8359 15.1172C59.9453 15.1016 60.0391 15.1094 60.1172 15.1406C60.2422 15.1406 60.3672 15.125 60.4922 15.0938C60.5703 15.0625 60.625 15.0469 60.6562 15.0469C60.6875 15.0469 60.7188 15.0312 60.75 15C60.8438 14.9844 60.8984 14.9766 60.9141 14.9766C60.9453 14.9609 60.9766 14.9453 61.0078 14.9297C61.1484 14.8516 61.2266 14.8125 61.2422 14.8125C61.2578 14.7969 61.2812 14.7734 61.3125 14.7422C61.4844 14.6797 61.5703 14.6484 61.5703 14.6484C61.6797 14.5703 61.7422 14.5156 61.7578 14.4844C61.7734 14.4375 61.7969 14.3984 61.8281 14.3672C61.9375 14.2891 62 14.25 62.0156 14.25C62.0469 14.2344 62.0625 14.2109 62.0625 14.1797C62.1875 14.1328 62.25 14.1094 62.25 14.1094C62.2656 14.0938 62.2891 14.0938 62.3203 14.1094C62.4297 14.0781 62.4922 14.0703 62.5078 14.0859C62.5391 14.0859 62.5625 14.0938 62.5781 14.1094C62.625 14.1406 62.6719 14.1797 62.7188 14.2266C62.7656 14.2578 62.8203 14.2891 62.8828 14.3203C62.9766 14.4297 63.0312 14.5 63.0469 14.5312C63.0625 14.5469 63.0859 14.5625 63.1172 14.5781C63.1953 14.7344 63.2344 14.8125 63.2344 14.8125C63.3125 14.9219 63.3594 14.9844 63.375 15C63.4062 15 63.4297 15.0156 63.4453 15.0469C63.5078 15.2031 63.5469 15.2891 63.5625 15.3047C63.5781 15.3047 63.6016 15.3203 63.6328 15.3516C63.6797 15.4453 63.7188 15.5078 63.75 15.5391C63.7969 15.5703 63.8359 15.6094 63.8672 15.6562C63.9141 15.6875 63.9453 15.7266 63.9609 15.7734C63.9922 15.8047 64.0312 15.8359 64.0781 15.8672C64.1406 16.0703 64.1797 16.1953 64.1953 16.2422C64.2266 16.2734 64.25 16.3281 64.2656 16.4062C64.2656 16.4375 64.2578 16.4766 64.2422 16.5234C64.2266 16.5703 64.2188 16.6172 64.2188 16.6641C64.1094 16.8359 64.0391 16.9531 64.0078 17.0156C63.9766 17.0625 63.9297 17.1016 63.8672 17.1328C63.8047 17.1797 63.7266 17.2188 63.6328 17.25C63.5547 17.2812 63.5 17.3438 63.4688 17.4375C63.4062 17.4531 63.3516 17.4609 63.3047 17.4609C63.2578 17.4609 63.2344 17.5 63.2344 17.5781C63.0781 17.6406 62.9922 17.6719 62.9766 17.6719C62.8516 17.7031 62.7578 17.75 62.6953 17.8125C62.5078 17.875 62.3828 17.9219 62.3203 17.9531C62.2734 17.9844 62.2188 18.0156 62.1562 18.0469C62.0156 18.0469 61.8984 18.0625 61.8047 18.0938C61.6328 18.1406 61.5156 18.1719 61.4531 18.1875C61.3906 18.2031 61.3281 18.2188 61.2656 18.2344C61.0312 18.2812 60.875 18.3047 60.7969 18.3047C60.7188 18.3047 60.625 18.3203 60.5156 18.3516C60.4688 18.3672 60.4062 18.3828 60.3281 18.3984C60.25 18.4141 60.1953 18.4297 60.1641 18.4453C60.0859 18.4453 60.0078 18.4375 59.9297 18.4219C59.8672 18.4219 59.8047 18.4062 59.7422 18.375C59.5234 18.375 59.4219 18.3906 59.4375 18.4219C59.3906 18.3906 59.3359 18.375 59.2734 18.375C59.2266 18.375 59.1797 18.3672 59.1328 18.3516C58.9609 18.3203 58.8438 18.2891 58.7812 18.2578H58.5234C58.4453 18.2422 58.375 18.2188 58.3125 18.1875C58.25 18.1719 58.1797 18.1484 58.1016 18.1172C57.9453 18.0703 57.8594 18.0469 57.8438 18.0469C57.8281 18.0469 57.8047 18.0391 57.7734 18.0234C57.6172 17.9453 57.5078 17.8906 57.4453 17.8594C57.2422 17.7969 57.125 17.7578 57.0938 17.7422C57.0156 17.6797 56.9609 17.6484 56.9297 17.6484C56.8984 17.6484 56.8672 17.6406 56.8359 17.625C56.7578 17.5469 56.7031 17.5 56.6719 17.4844C56.6406 17.4688 56.6094 17.4453 56.5781 17.4141C56.4844 17.3203 56.4219 17.2734 56.3906 17.2734C56.3594 17.2578 56.3281 17.25 56.2969 17.25C56.1719 17.1094 56.0938 17.0234 56.0625 16.9922C56.0312 16.9609 56 16.9297 55.9688 16.8984C55.8906 16.8047 55.8359 16.7344 55.8047 16.6875C55.7734 16.6406 55.7344 16.5938 55.6875 16.5469C55.5625 16.3906 55.4844 16.2969 55.4531 16.2656C55.4219 16.2188 55.3828 16.1797 55.3359 16.1484C55.3203 16.1016 55.2891 16.0625 55.2422 16.0312C55.2109 16 55.1797 15.9688 55.1484 15.9375C55.0859 15.8125 55.0469 15.7344 55.0312 15.7031C55.0312 15.6719 55.0078 15.6641 54.9609 15.6797C54.9141 15.5391 54.8438 15.4219 54.75 15.3281C54.7031 15.2188 54.6719 15.1562 54.6562 15.1406C54.6562 15.125 54.6562 15.1016 54.6562 15.0703C54.5625 14.9297 54.5078 14.8516 54.4922 14.8359C54.3516 14.6484 54.2656 14.5156 54.2344 14.4375C54.1875 14.3438 54.1562 14.2891 54.1406 14.2734C54.125 14.2578 54.1016 14.2422 54.0703 14.2266C54.0078 13.9766 53.9453 13.8281 53.8828 13.7812C53.8359 13.7188 53.8203 13.6328 53.8359 13.5234C53.8047 13.3516 53.7656 13.2422 53.7188 13.1953C53.6875 13.1484 53.6641 13.1016 53.6484 13.0547V12.75C53.6328 12.6875 53.625 12.5859 53.625 12.4453C53.6094 12.3828 53.5938 12.3203 53.5781 12.2578C53.5625 12.1953 53.5469 12.125 53.5312 12.0469C53.5312 11.8594 53.5391 11.7578 53.5547 11.7422C53.5078 11.6484 53.4922 11.5312 53.5078 11.3906C53.5391 11.2344 53.5547 11.0938 53.5547 10.9688C53.5703 10.875 53.5781 10.7969 53.5781 10.7344C53.5781 10.6562 53.5938 10.5938 53.625 10.5469L53.5781 10.4297ZM61.125 8.74219C61.0938 8.71094 61.0703 8.67188 61.0547 8.625C61.0547 8.57812 61.0391 8.52344 61.0078 8.46094C60.9297 8.41406 60.8672 8.35938 60.8203 8.29688C60.7891 8.21875 60.7266 8.16406 60.6328 8.13281C60.6016 8.07031 60.5391 8.03125 60.4453 8.01562C60.3672 8 60.3047 7.96094 60.2578 7.89844C60.1797 7.88281 60.1094 7.875 60.0469 7.875C59.9844 7.875 59.9141 7.86719 59.8359 7.85156C59.6641 7.83594 59.5625 7.83594 59.5312 7.85156C59.4062 7.85156 59.3203 7.85938 59.2734 7.875C59.2266 7.89062 59.1797 7.90625 59.1328 7.92188C59.1016 7.9375 59.0547 7.94531 58.9922 7.94531C58.9453 7.92969 58.9062 7.92969 58.875 7.94531C58.6875 8.07031 58.5469 8.14844 58.4531 8.17969C58.3125 8.35156 58.2266 8.45312 58.1953 8.48438C58.1016 8.59375 58.0469 8.65625 58.0312 8.67188C58.0156 8.6875 58 8.71094 57.9844 8.74219C57.8594 8.88281 57.7812 8.98438 57.75 9.04688C57.6094 9.21875 57.5234 9.3125 57.4922 9.32812C57.4609 9.375 57.4297 9.42969 57.3984 9.49219C57.3672 9.53906 57.3281 9.57812 57.2812 9.60938C57.2188 9.78125 57.1719 9.89062 57.1406 9.9375C57.125 9.96875 57.1172 10.0156 57.1172 10.0781C57.2109 10.0469 57.3047 10.0234 57.3984 10.0078C57.5078 9.97656 57.6016 9.94531 57.6797 9.91406C57.7891 9.91406 57.8594 9.90625 57.8906 9.89062C57.9375 9.875 57.9844 9.85156 58.0312 9.82031C58.1094 9.78906 58.1797 9.77344 58.2422 9.77344C58.3047 9.75781 58.3906 9.74219 58.5 9.72656C58.6562 9.66406 58.7578 9.625 58.8047 9.60938C58.8672 9.59375 58.9219 9.57812 58.9688 9.5625C59.0469 9.53125 59.125 9.51562 59.2031 9.51562C59.2969 9.51562 59.3672 9.5 59.4141 9.46875C59.6328 9.40625 59.7812 9.36719 59.8594 9.35156C59.9844 9.35156 60.0781 9.34375 60.1406 9.32812C60.3125 9.26562 60.4219 9.23438 60.4688 9.23438C60.6094 9.21875 60.7266 9.19531 60.8203 9.16406C60.9297 9.11719 61.0234 9.0625 61.1016 9C61.1797 8.92188 61.2031 8.86719 61.1719 8.83594C61.1562 8.80469 61.1406 8.77344 61.125 8.74219ZM75.5672 15.5625C75.6297 15.3906 75.6609 15.3047 75.6609 15.3047C75.6766 15.1953 75.6844 15.0859 75.6844 14.9766C75.6844 14.8516 75.6844 14.75 75.6844 14.6719C75.7 14.5781 75.7 14.5156 75.6844 14.4844C75.6844 14.4531 75.6844 14.4219 75.6844 14.3906C75.6844 14.2969 75.6687 14.2031 75.6375 14.1094C75.6687 14.0781 75.6766 14.0391 75.6609 13.9922C75.6609 13.9297 75.6609 13.8672 75.6609 13.8047C75.6766 13.6328 75.6766 13.5312 75.6609 13.5C75.6609 13.4531 75.6609 13.4141 75.6609 13.3828C75.6609 13.1953 75.6609 13.0781 75.6609 13.0312C75.6766 12.9688 75.6844 12.9141 75.6844 12.8672C75.6687 12.7422 75.6531 12.625 75.6375 12.5156C75.6219 12.3906 75.6219 12.2656 75.6375 12.1406C75.6687 11.9688 75.6766 11.8672 75.6609 11.8359C75.6609 11.8047 75.6687 11.7734 75.6844 11.7422C75.6844 11.6797 75.6922 11.6094 75.7078 11.5312C75.7234 11.4375 75.7312 11.3516 75.7312 11.2734C75.7312 11.1484 75.7234 11.0391 75.7078 10.9453C75.6922 10.8359 75.6922 10.7188 75.7078 10.5938C75.7547 10.1875 75.7469 9.86719 75.6844 9.63281C75.6375 9.41406 75.6141 9.30469 75.6141 9.30469C75.5828 9.22656 75.5359 9.15625 75.4734 9.09375C75.4109 9.03125 75.3484 8.96875 75.2859 8.90625C75.1609 8.82812 75.0984 8.75781 75.0984 8.69531C75.0047 8.67969 74.8953 8.67188 74.7703 8.67188C74.6453 8.65625 74.5516 8.6875 74.4891 8.76562C74.3797 8.78125 74.2937 8.8125 74.2312 8.85938C74.1687 8.90625 74.0984 8.94531 74.0203 8.97656C73.9422 9.07031 73.8953 9.125 73.8797 9.14062C73.8641 9.14062 73.8484 9.15625 73.8328 9.1875C73.6922 9.34375 73.6062 9.45312 73.575 9.51562C73.5281 9.53125 73.4812 9.5625 73.4344 9.60938C73.4031 9.65625 73.3719 9.69531 73.3406 9.72656C73.2312 9.78906 73.1687 9.82812 73.1531 9.84375C73.1375 9.85938 73.1062 9.875 73.0594 9.89062C73.0125 9.92188 72.9578 9.9375 72.8953 9.9375C72.8484 9.92188 72.7937 9.92969 72.7312 9.96094C72.6531 9.92969 72.575 9.90625 72.4969 9.89062C72.4344 9.875 72.3641 9.85156 72.2859 9.82031C72.1766 9.72656 72.1141 9.67969 72.0984 9.67969C72.0828 9.67969 72.0672 9.66406 72.0516 9.63281C71.9422 9.55469 71.8641 9.5 71.8172 9.46875C71.7859 9.42188 71.7391 9.39062 71.6766 9.375C71.6141 9.59375 71.5984 9.80469 71.6297 10.0078C71.6609 10.2109 71.6609 10.4141 71.6297 10.6172C71.6141 10.7109 71.6062 10.8125 71.6062 10.9219C71.6219 11.0312 71.6297 11.125 71.6297 11.2031C71.6141 11.3438 71.6062 11.4453 71.6062 11.5078C71.6219 11.5703 71.6297 11.6328 71.6297 11.6953C71.6297 11.7734 71.6297 11.8438 71.6297 11.9062C71.6453 11.9531 71.6609 12.0156 71.6766 12.0938V12.4688C71.7078 12.7031 71.7156 12.8594 71.7 12.9375C71.6844 13.0156 71.6766 13.0938 71.6766 13.1719C71.6766 13.25 71.6922 13.3516 71.7234 13.4766C71.7234 13.6172 71.7391 13.7109 71.7703 13.7578C71.7547 13.9609 71.7469 14.1172 71.7469 14.2266C71.7625 14.3359 71.7703 14.4531 71.7703 14.5781C71.8016 14.75 71.8094 14.8672 71.7937 14.9297C71.7937 14.9766 71.7937 15.0234 71.7937 15.0703C71.825 15.2734 71.8328 15.4062 71.8172 15.4688C71.8172 15.5156 71.8328 15.5703 71.8641 15.6328C71.8797 15.8047 71.8953 15.9219 71.9109 15.9844C71.9266 16.0469 71.9422 16.1172 71.9578 16.1953C71.9578 16.2578 71.95 16.3203 71.9344 16.3828C71.9344 16.4453 71.9422 16.5156 71.9578 16.5938C71.9578 16.6406 71.9656 16.6875 71.9812 16.7344C71.9969 16.7812 72.0125 16.8281 72.0281 16.875L72.0516 17.2031C72.0672 17.25 72.0672 17.3047 72.0516 17.3672C72.0359 17.4297 72.0516 17.4844 72.0984 17.5312C72.0516 17.7031 72.0203 17.8125 72.0047 17.8594C71.9891 17.8906 71.9812 17.9453 71.9812 18.0234C71.7937 18.0391 71.7 18.0625 71.7 18.0938C71.7156 18.125 71.7078 18.1328 71.6766 18.1172C71.5984 18.1484 71.4656 18.1641 71.2781 18.1641C71.075 18.1641 70.9422 18.1484 70.8797 18.1172C70.7859 18.1328 70.6687 18.1328 70.5281 18.1172C70.3875 18.1172 70.2547 18.1328 70.1297 18.1641C69.9266 18.2109 69.7937 18.2266 69.7312 18.2109C69.6687 18.2109 69.6141 18.2266 69.5672 18.2578C69.4734 18.2266 69.3797 18.2109 69.2859 18.2109C69.1922 18.2266 69.1297 18.2422 69.0984 18.2578C68.8797 18.1797 68.7391 18.1172 68.6766 18.0703C68.6141 18.0391 68.5437 18.0156 68.4656 18C68.4812 17.9375 68.4656 17.8906 68.4187 17.8594C68.3875 17.8125 68.3562 17.7656 68.325 17.7188C68.2937 17.6875 68.2547 17.6484 68.2078 17.6016C68.1766 17.5391 68.1687 17.4609 68.1844 17.3672C68.2156 17.1953 68.2234 17.0781 68.2078 17.0156C68.2078 16.9531 68.2156 16.8828 68.2312 16.8047C68.2312 16.7734 68.2312 16.7422 68.2312 16.7109C68.2469 16.6641 68.2547 16.6016 68.2547 16.5234C68.2703 16.3203 68.2781 16.1484 68.2781 16.0078C68.3094 15.8984 68.3172 15.8125 68.3016 15.75C68.2859 15.6875 68.2859 15.6172 68.3016 15.5391C68.3328 15.3359 68.3484 15.1953 68.3484 15.1172C68.3484 15.0391 68.3562 14.9688 68.3719 14.9062C68.3562 14.7656 68.3484 14.6641 68.3484 14.6016C68.3641 14.5391 68.3719 14.4688 68.3719 14.3906C68.3406 14.2031 68.325 14.0859 68.325 14.0391C68.3406 13.9766 68.3328 13.9297 68.3016 13.8984C68.3172 13.7422 68.325 13.6172 68.325 13.5234C68.325 13.4141 68.325 13.3359 68.325 13.2891C68.2937 13.1172 68.2781 13.0156 68.2781 12.9844C68.2937 12.9375 68.3016 12.8984 68.3016 12.8672C68.3016 12.7422 68.3016 12.6328 68.3016 12.5391C68.3016 12.4453 68.2937 12.3594 68.2781 12.2812L68.2547 11.7656V11.4609L68.2312 10.9219C68.2156 10.8594 68.2 10.7891 68.1844 10.7109C68.1687 10.6328 68.1687 10.5547 68.1844 10.4766C68.1844 10.3516 68.1687 10.2578 68.1375 10.1953V9.79688C68.1375 9.64062 68.1297 9.54688 68.1141 9.51562C68.1141 9.46875 68.1141 9.42969 68.1141 9.39844C68.0984 9.21094 68.0906 9.08594 68.0906 9.02344C68.1062 8.96094 68.1141 8.89062 68.1141 8.8125C68.0984 8.60938 68.0984 8.48438 68.1141 8.4375C68.1297 8.39062 68.1375 8.35156 68.1375 8.32031C68.1375 8.24219 68.1297 8.17188 68.1141 8.10938C68.0984 8.03125 68.0828 7.95312 68.0672 7.875C68.0984 7.75 68.0984 7.63281 68.0672 7.52344C68.0359 7.39844 68.0281 7.32031 68.0437 7.28906C68.0594 7.24219 68.0594 7.20312 68.0437 7.17188C68.0281 6.98438 68.0125 6.85156 67.9969 6.77344C67.9812 6.67969 67.9734 6.59375 67.9734 6.51562C67.9891 6.42188 67.9812 6.35156 67.95 6.30469C67.9344 6.24219 67.9266 6.17969 67.9266 6.11719C67.9422 5.92969 67.95 5.78906 67.95 5.69531C67.95 5.60156 67.9344 5.50781 67.9031 5.41406C67.9812 5.25781 68.0203 5.15625 68.0203 5.10938C68.0359 5.0625 68.0594 5.02344 68.0906 4.99219C68.1531 4.97656 68.1922 4.94531 68.2078 4.89844C68.2391 4.85156 68.2859 4.8125 68.3484 4.78125C68.4891 4.75 68.5672 4.75 68.5828 4.78125C68.5984 4.79688 68.6219 4.8125 68.6531 4.82812C68.8094 4.76562 68.8953 4.73438 68.9109 4.73438L69.3562 4.71094C69.5125 4.72656 69.5984 4.73438 69.6141 4.73438C69.7703 4.76562 69.8484 4.78125 69.8484 4.78125C69.8484 4.76562 69.8641 4.76562 69.8953 4.78125C69.9109 4.79688 69.95 4.8125 70.0125 4.82812C70.0906 4.82812 70.1453 4.82812 70.1766 4.82812C70.3016 4.84375 70.3719 4.85156 70.3875 4.85156C70.4031 4.83594 70.4266 4.82812 70.4578 4.82812C70.6141 4.82812 70.7 4.83594 70.7156 4.85156C70.7469 4.85156 70.7625 4.83594 70.7625 4.80469C70.9344 4.83594 71.0437 4.85156 71.0906 4.85156C71.1531 4.85156 71.2 4.85938 71.2312 4.875C71.325 4.875 71.3797 4.86719 71.3953 4.85156C71.4109 4.83594 71.4422 4.84375 71.4891 4.875C71.5516 5.03125 71.5906 5.125 71.6062 5.15625C71.6375 5.17188 71.6687 5.19531 71.7 5.22656C71.7 5.27344 71.7078 5.32031 71.7234 5.36719C71.7391 5.41406 71.7547 5.46875 71.7703 5.53125C71.7547 5.65625 71.7547 5.74219 71.7703 5.78906C71.7859 5.83594 71.7937 5.88281 71.7937 5.92969C71.7781 6.07031 71.7625 6.16406 71.7469 6.21094C71.7469 6.25781 71.7469 6.30469 71.7469 6.35156C71.7156 6.60156 71.6922 6.78125 71.6766 6.89062C71.6609 6.98438 71.6687 7.07812 71.7 7.17188C71.7625 7.14062 71.8094 7.11719 71.8406 7.10156C71.8719 7.07031 71.9109 7.03906 71.9578 7.00781C72.0828 6.89844 72.1687 6.83594 72.2156 6.82031C72.2625 6.80469 72.3016 6.78906 72.3328 6.77344C72.4109 6.72656 72.4891 6.6875 72.5672 6.65625C72.6453 6.57812 72.7 6.52344 72.7312 6.49219C72.7625 6.46094 72.7937 6.42969 72.825 6.39844C72.9812 6.30469 73.075 6.21875 73.1062 6.14062C73.1687 6.10938 73.2234 6.07812 73.2703 6.04688C73.3328 6 73.3953 5.95312 73.4578 5.90625C73.5984 5.82812 73.6766 5.78125 73.6922 5.76562C73.7234 5.73438 73.7547 5.70312 73.7859 5.67188C73.9266 5.59375 74.0203 5.53125 74.0672 5.48438C74.1141 5.4375 74.1609 5.39844 74.2078 5.36719C74.3797 5.30469 74.4812 5.24219 74.5125 5.17969C74.6375 5.14844 74.7469 5.10156 74.8406 5.03906C74.9344 4.97656 75.0437 4.94531 75.1687 4.94531C75.3562 4.96094 75.4891 5 75.5672 5.0625C75.6766 5.0625 75.7547 5.07031 75.8016 5.08594C75.8484 5.10156 75.8797 5.13281 75.8953 5.17969C76.0359 5.24219 76.1141 5.28125 76.1297 5.29688C76.1609 5.29688 76.1922 5.30469 76.2234 5.32031C76.3328 5.36719 76.4109 5.40625 76.4578 5.4375C76.5047 5.45312 76.5672 5.46094 76.6453 5.46094C76.7234 5.58594 76.7625 5.64844 76.7625 5.64844C76.7781 5.64844 76.7859 5.66406 76.7859 5.69531C76.8797 5.72656 76.95 5.78125 76.9969 5.85938C77.0437 5.92188 77.1297 5.96094 77.2547 5.97656C77.3953 6.11719 77.4734 6.1875 77.4891 6.1875C77.5047 6.1875 77.5281 6.19531 77.5594 6.21094C77.6219 6.33594 77.7078 6.42188 77.8172 6.46875C77.8953 6.60938 77.9422 6.67969 77.9578 6.67969C77.9734 6.67969 77.9891 6.6875 78.0047 6.70312C78.0984 6.85938 78.1687 6.96094 78.2156 7.00781C78.2781 7.05469 78.3328 7.10938 78.3797 7.17188L78.5672 7.35938C78.6609 7.5625 78.7312 7.6875 78.7781 7.73438C78.825 7.76562 78.8562 7.82031 78.8719 7.89844C78.9031 8.00781 78.9344 8.11719 78.9656 8.22656C78.9969 8.27344 79.0125 8.32031 79.0125 8.36719C79.0281 8.39844 79.0516 8.42969 79.0828 8.46094C79.0516 8.61719 79.0359 8.72656 79.0359 8.78906C79.0359 8.83594 79.0437 8.88281 79.0594 8.92969C79.075 9.10156 79.0828 9.1875 79.0828 9.1875C79.0828 9.25 79.0828 9.33594 79.0828 9.44531C79.0984 9.53906 79.0984 9.625 79.0828 9.70312C79.0828 9.875 79.0906 10 79.1062 10.0781C79.1219 10.1562 79.1297 10.2109 79.1297 10.2422C79.1141 10.3828 79.0984 10.4609 79.0828 10.4766C79.0828 10.4766 79.0828 10.4922 79.0828 10.5234C79.0984 10.6172 79.0984 10.7188 79.0828 10.8281C79.0828 10.9375 79.0828 11.0547 79.0828 11.1797C79.0672 11.2734 79.0594 11.3594 79.0594 11.4375C79.075 11.5156 79.0828 11.5781 79.0828 11.625C79.0516 11.7656 79.0359 11.8438 79.0359 11.8594C79.0516 11.8594 79.0594 11.875 79.0594 11.9062C79.0281 12.0781 79.0125 12.1719 79.0125 12.1875C79.0281 12.1875 79.0359 12.1953 79.0359 12.2109C79.0359 12.2422 79.0203 12.2891 78.9891 12.3516C78.9734 12.3984 78.9812 12.4375 79.0125 12.4688C78.9812 12.6094 78.9812 12.7188 79.0125 12.7969C79.0437 12.8594 79.0281 12.9141 78.9656 12.9609C78.9969 13.1172 78.9891 13.2734 78.9422 13.4297C78.9109 13.5859 78.9187 13.7422 78.9656 13.8984C78.9344 14.0234 78.9109 14.1094 78.8953 14.1562C78.8797 14.2031 78.8719 14.25 78.8719 14.2969C78.9031 14.3906 78.9187 14.4766 78.9187 14.5547C78.9031 14.6953 78.9031 14.7656 78.9187 14.7656C78.9344 14.7656 78.9422 14.7812 78.9422 14.8125C78.9578 14.9844 78.9578 15.0781 78.9422 15.0938C78.9422 15.0938 78.9422 15.1094 78.9422 15.1406C78.9734 15.3438 78.9891 15.4844 78.9891 15.5625C78.9891 15.625 79.0125 15.6875 79.0594 15.75C79.0281 15.9219 79.0281 16.0703 79.0594 16.1953C79.0906 16.3516 79.1062 16.4375 79.1062 16.4531C79.1219 16.5938 79.1219 16.6719 79.1062 16.6875C79.1062 16.6875 79.1062 16.6953 79.1062 16.7109C79.1531 16.8516 79.1609 16.9297 79.1297 16.9453C79.1141 16.9453 79.1062 16.9531 79.1062 16.9688C79.1219 17.1406 79.1453 17.2422 79.1766 17.2734C79.2078 17.3516 79.2156 17.4062 79.2 17.4375C79.2 17.4688 79.2078 17.5 79.2234 17.5312C79.2547 17.5625 79.2703 17.6172 79.2703 17.6953C79.2859 17.7578 79.325 17.7969 79.3875 17.8125C79.3562 17.9844 79.3328 18.0703 79.3172 18.0703C79.3172 18.0703 79.3016 18.0781 79.2703 18.0938C79.1609 18.1562 79.075 18.1797 79.0125 18.1641C78.9656 18.1641 78.9187 18.1719 78.8719 18.1875C78.6531 18.25 78.5203 18.2812 78.4734 18.2812H78.0047H77.6531C77.5125 18.2812 77.3797 18.2656 77.2547 18.2344C77.1453 18.2188 77.0359 18.2031 76.9266 18.1875C76.8641 18.2031 76.8016 18.2109 76.7391 18.2109C76.6766 18.2266 76.5906 18.2266 76.4812 18.2109C76.3094 18.1641 76.2234 18.1328 76.2234 18.1172C76.2234 18.1016 76.2156 18.0938 76.2 18.0938C76.0437 17.9688 75.9344 17.8906 75.8719 17.8594C75.825 17.8125 75.7781 17.7656 75.7312 17.7188C75.7 17.6406 75.6844 17.5625 75.6844 17.4844C75.7 17.4062 75.6922 17.3359 75.6609 17.2734C75.6297 17.2266 75.6219 17.1719 75.6375 17.1094C75.6687 17.0469 75.6844 16.9844 75.6844 16.9219C75.6687 16.7969 75.6531 16.7266 75.6375 16.7109C75.6375 16.6797 75.6375 16.6562 75.6375 16.6406C75.6531 16.4688 75.6375 16.3828 75.5906 16.3828C75.6531 16.2891 75.6531 16.1797 75.5906 16.0547C75.6375 15.9453 75.6531 15.8516 75.6375 15.7734C75.6219 15.6953 75.6219 15.6328 75.6375 15.5859L75.5672 15.5625ZM88.0875 10.7812C88.15 10.6719 88.1891 10.6094 88.2047 10.5938C88.2203 10.5625 88.2203 10.5234 88.2047 10.4766C88.2828 10.3359 88.3297 10.2578 88.3453 10.2422C88.3609 10.2266 88.3844 10.2031 88.4156 10.1719C88.4156 10.0625 88.4234 9.96875 88.4391 9.89062C88.4703 9.79688 88.5016 9.71094 88.5328 9.63281C88.5484 9.58594 88.5563 9.53906 88.5563 9.49219C88.5563 9.44531 88.5641 9.39844 88.5797 9.35156C88.6422 9.17969 88.6813 9.07812 88.6969 9.04688C88.7125 9.01562 88.7281 8.98438 88.7438 8.95312C88.8063 8.79688 88.8375 8.70312 88.8375 8.67188L88.9078 8.25C88.9547 8.10938 88.9703 8.02344 88.9547 7.99219C88.9547 7.96094 88.9703 7.94531 89.0016 7.94531C89.0484 7.74219 89.0719 7.59375 89.0719 7.5C89.0875 7.40625 89.1188 7.3125 89.1656 7.21875C89.1813 7.09375 89.1891 7.00781 89.1891 6.96094C89.2047 6.91406 89.2203 6.85938 89.2359 6.79688C89.2516 6.75 89.2594 6.70312 89.2594 6.65625C89.275 6.60938 89.2906 6.54688 89.3063 6.46875C89.3531 6.29688 89.3688 6.17188 89.3531 6.09375C89.3531 6.01562 89.3609 5.9375 89.3766 5.85938L89.4703 5.57812C89.4859 5.51562 89.5016 5.46875 89.5172 5.4375C89.5484 5.39062 89.5484 5.34375 89.5172 5.29688C89.5484 5.26562 89.5641 5.22656 89.5641 5.17969C89.5797 5.13281 89.5953 5.08594 89.6109 5.03906C89.6578 4.92969 89.6813 4.85156 89.6813 4.80469C89.6813 4.74219 89.6813 4.6875 89.6813 4.64062C89.7125 4.48438 89.7281 4.36719 89.7281 4.28906C89.7281 4.22656 89.7359 4.14844 89.7516 4.05469C89.7672 3.96094 89.7828 3.875 89.7984 3.79688C89.8297 3.76562 89.8453 3.71094 89.8453 3.63281C89.8609 3.55469 89.8766 3.47656 89.8922 3.39844C89.9234 3.21094 89.9469 3.10156 89.9625 3.07031C89.9938 3.02344 90.0094 2.98438 90.0094 2.95312C90.0094 2.79688 90.0094 2.71094 90.0094 2.69531C90.025 2.67969 90.0328 2.66406 90.0328 2.64844C90.0641 2.55469 90.0875 2.49219 90.1031 2.46094C90.1188 2.42969 90.1266 2.39844 90.1266 2.36719C90.1734 2.16406 90.1969 2.05469 90.1969 2.03906C90.2125 1.96094 90.2203 1.88281 90.2203 1.80469C90.2203 1.72656 90.2281 1.64844 90.2438 1.57031C90.2594 1.41406 90.2672 1.32812 90.2672 1.3125C90.2984 1.10938 90.3219 0.96875 90.3375 0.890625C90.3688 0.8125 90.4 0.734375 90.4313 0.65625C90.6656 0.484375 90.8219 0.398438 90.9 0.398438C90.9938 0.398438 91.0797 0.40625 91.1578 0.421875C91.2359 0.4375 91.2984 0.445312 91.3453 0.445312C91.4547 0.445312 91.5484 0.460937 91.6266 0.492188C91.7047 0.523438 91.7906 0.53125 91.8844 0.515625L92.3531 0.585938C92.5094 0.617188 92.5953 0.625 92.6109 0.609375C92.6422 0.59375 92.6734 0.578125 92.7047 0.5625L93.1031 0.585938C93.275 0.617188 93.3688 0.632812 93.3844 0.632812C93.4 0.632812 93.4234 0.625 93.4547 0.609375C93.5172 0.625 93.6266 0.632812 93.7828 0.632812C93.9703 0.664063 94.0797 0.679688 94.1109 0.679688C94.1422 0.664063 94.1734 0.65625 94.2047 0.65625C94.3922 0.75 94.4859 0.8125 94.4859 0.84375C94.5016 0.875 94.525 0.90625 94.5563 0.9375C94.5719 0.96875 94.5797 1.00781 94.5797 1.05469C94.5797 1.10156 94.5875 1.16406 94.6031 1.24219C94.6031 1.38281 94.5953 1.51562 94.5797 1.64062C94.5797 1.75 94.5484 1.84375 94.4859 1.92188C94.4859 2.07812 94.4547 2.1875 94.3922 2.25C94.3922 2.57812 94.3297 2.85156 94.2047 3.07031C94.1109 3.19531 94.0641 3.28125 94.0641 3.32812C94.0641 3.375 94.0484 3.41406 94.0172 3.44531C93.9859 3.58594 93.9547 3.70312 93.9234 3.79688C93.9078 3.89062 93.8844 4.00781 93.8531 4.14844C93.7438 4.41406 93.6813 4.57031 93.6656 4.61719C93.6344 4.69531 93.6109 4.77344 93.5953 4.85156C93.5797 4.92969 93.5563 5 93.525 5.0625C93.4938 5.1875 93.4781 5.27344 93.4781 5.32031C93.4469 5.38281 93.4234 5.44531 93.4078 5.50781C93.4078 5.55469 93.4 5.59375 93.3844 5.625C93.3688 5.78125 93.3531 5.88281 93.3375 5.92969C93.3219 5.97656 93.3063 6.02344 93.2906 6.07031C93.2125 6.25781 93.15 6.42188 93.1031 6.5625C93.0875 6.625 93.0719 6.6875 93.0563 6.75C93.0406 6.79688 93.025 6.85156 93.0094 6.91406C92.9313 7.03906 92.8688 7.17969 92.8219 7.33594C92.7906 7.47656 92.7516 7.625 92.7047 7.78125C92.6734 7.85938 92.6422 7.92969 92.6109 7.99219C92.5953 8.05469 92.5797 8.125 92.5641 8.20312C92.5484 8.25 92.5406 8.29688 92.5406 8.34375C92.5406 8.375 92.5328 8.41406 92.5172 8.46094C92.4859 8.57031 92.4703 8.64844 92.4703 8.69531C92.4703 8.72656 92.4625 8.75781 92.4469 8.78906C92.4313 8.82031 92.4156 8.85938 92.4 8.90625C92.3844 8.95312 92.3688 9 92.3531 9.04688C92.3375 9.21875 92.3219 9.32031 92.3063 9.35156C92.2906 9.38281 92.2828 9.41406 92.2828 9.44531C92.2672 9.52344 92.2594 9.60156 92.2594 9.67969C92.2594 9.74219 92.2438 9.80469 92.2125 9.86719C92.1969 9.92969 92.1813 9.98438 92.1656 10.0312C92.15 10.0781 92.1344 10.125 92.1188 10.1719C92.1031 10.25 92.0953 10.3203 92.0953 10.3828C92.0953 10.4453 92.0875 10.5156 92.0719 10.5938C92.0406 10.6875 92.0172 10.7578 92.0016 10.8047C92.0016 10.8516 92.0016 10.8984 92.0016 10.9453C91.9859 10.9922 91.9625 11.0469 91.9313 11.1094C91.9 11.1562 91.9 11.2109 91.9313 11.2734C91.9 11.3047 91.8844 11.3516 91.8844 11.4141C91.8844 11.4609 91.8688 11.5078 91.8375 11.5547C91.7906 11.7109 91.7672 11.8125 91.7672 11.8594C91.7828 11.9062 91.7828 11.9453 91.7672 11.9766C91.7516 12.0234 91.7281 12.0703 91.6969 12.1172C91.6813 12.1484 91.6734 12.1875 91.6734 12.2344L91.5563 12.8906C91.5094 13.0938 91.4781 13.2188 91.4625 13.2656C91.4625 13.2969 91.4547 13.3359 91.4391 13.3828C91.3609 13.5547 91.3219 13.6484 91.3219 13.6641C91.3063 13.7109 91.2984 13.7656 91.2984 13.8281C91.3141 13.875 91.3141 13.9219 91.2984 13.9688C91.2359 14.125 91.2047 14.2266 91.2047 14.2734C91.2203 14.3047 91.2125 14.3359 91.1813 14.3672C91.1969 14.4453 91.1891 14.5234 91.1578 14.6016C91.1422 14.6641 91.1188 14.7344 91.0875 14.8125C91.0719 14.8906 91.0484 14.9609 91.0172 15.0234C91.0016 15.0859 90.9781 15.1562 90.9469 15.2344C90.8844 15.4219 90.8531 15.5625 90.8531 15.6562C90.7906 15.7188 90.7359 15.8281 90.6891 15.9844C90.6422 16.125 90.6188 16.2109 90.6188 16.2422C90.6344 16.2734 90.6344 16.3047 90.6188 16.3359C90.5719 16.4297 90.5484 16.4922 90.5484 16.5234C90.5484 16.5391 90.5406 16.5625 90.525 16.5938C90.4469 16.75 90.4 16.8516 90.3844 16.8984C90.3844 16.9297 90.3844 16.9609 90.3844 16.9922C90.3531 17.1016 90.3219 17.1797 90.2906 17.2266C90.275 17.2578 90.2594 17.3047 90.2438 17.3672C90.2281 17.4141 90.2203 17.4688 90.2203 17.5312C90.2359 17.5781 90.2359 17.6328 90.2203 17.6953C90.1891 17.7266 90.15 17.7578 90.1031 17.7891C90.0719 17.8203 90.0406 17.8672 90.0094 17.9297C89.9625 17.9453 89.9156 17.9688 89.8688 18C89.8375 18.0469 89.7828 18.0859 89.7047 18.1172C89.5328 18.1484 89.4391 18.1641 89.4234 18.1641C89.4234 18.1797 89.4078 18.1953 89.3766 18.2109C89.3141 18.2266 89.2516 18.2344 89.1891 18.2344C89.1422 18.2344 89.0875 18.2344 89.025 18.2344C88.9781 18.2344 88.9313 18.2266 88.8844 18.2109C88.8531 18.2109 88.7984 18.2109 88.7203 18.2109C88.3453 18.1641 88.0563 18.1875 87.8531 18.2812C87.7281 18.25 87.6109 18.2344 87.5016 18.2344C87.3922 18.2344 87.275 18.2188 87.15 18.1875C87.0875 18.1719 87.0328 18.1484 86.9859 18.1172C86.9391 18.1016 86.8766 18.1016 86.7984 18.1172C86.7047 18.0078 86.6422 17.9531 86.6109 17.9531C86.5797 17.9375 86.5563 17.9141 86.5406 17.8828C86.4469 17.6641 86.3844 17.5234 86.3531 17.4609C86.3219 17.3984 86.2906 17.3359 86.2594 17.2734C86.2281 17.1953 86.1969 17.1094 86.1656 17.0156C86.15 16.9062 86.1266 16.7969 86.0953 16.6875C86.0641 16.6094 86.0406 16.5391 86.025 16.4766C86.0094 16.3984 85.9859 16.3203 85.9547 16.2422C85.8922 16.0703 85.8531 15.9609 85.8375 15.9141C85.8375 15.8672 85.8219 15.8281 85.7906 15.7969C85.7438 15.6562 85.7125 15.5469 85.6969 15.4688C85.6344 15.2656 85.5953 15.1484 85.5797 15.1172C85.5797 15.0703 85.5641 15.0234 85.5328 14.9766C85.5016 14.9297 85.4859 14.8672 85.4859 14.7891C85.4859 14.6953 85.4703 14.6328 85.4391 14.6016C85.3609 14.3828 85.2984 14.2031 85.2516 14.0625C85.2203 13.9062 85.1813 13.7656 85.1344 13.6406C85.0563 13.4531 85.0172 13.3359 85.0172 13.2891C85.0172 13.2422 85.0094 13.2031 84.9938 13.1719C84.9625 13.125 84.9391 13.0781 84.9234 13.0312C84.9234 12.9844 84.9078 12.9375 84.8766 12.8906C84.8453 12.7656 84.8297 12.6875 84.8297 12.6562C84.8297 12.625 84.8141 12.5938 84.7828 12.5625C84.7203 12.4062 84.6891 12.3203 84.6891 12.3047C84.7047 12.2734 84.7047 12.2422 84.6891 12.2109C84.6578 12.0703 84.6266 11.9766 84.5953 11.9297C84.5641 11.8828 84.5641 11.8438 84.5953 11.8125C84.5641 11.7812 84.5406 11.7422 84.525 11.6953C84.525 11.6328 84.5094 11.5859 84.4781 11.5547C84.4313 11.4141 84.3922 11.3047 84.3609 11.2266C84.3453 11.1484 84.3219 11.0781 84.2906 11.0156C84.3063 10.9219 84.2984 10.8359 84.2672 10.7578C84.2359 10.6797 84.2047 10.6016 84.1734 10.5234C84.1422 10.3516 84.1188 10.2656 84.1031 10.2656C84.0875 10.25 84.0797 10.2266 84.0797 10.1953C84.0484 10.1016 84.025 10.0312 84.0094 9.98438C83.9938 9.9375 83.9781 9.89062 83.9625 9.84375C83.9469 9.79688 83.9313 9.75 83.9156 9.70312C83.9 9.64062 83.8922 9.59375 83.8922 9.5625C83.8141 9.4375 83.7594 9.36719 83.7281 9.35156C83.7125 9.32031 83.7047 9.28906 83.7047 9.25781C83.6891 9.10156 83.6656 8.97656 83.6344 8.88281C83.6031 8.80469 83.5719 8.73438 83.5406 8.67188C83.525 8.59375 83.5016 8.51562 83.4703 8.4375C83.3766 8.23438 83.3141 8.10938 83.2828 8.0625C83.2359 7.90625 83.1813 7.76562 83.1188 7.64062C83.0719 7.5 83.0328 7.39844 83.0016 7.33594C82.9547 7.13281 82.9156 6.99219 82.8844 6.91406C82.8531 6.75781 82.8141 6.625 82.7672 6.51562C82.7203 6.375 82.6891 6.28906 82.6734 6.25781C82.6578 6.21094 82.65 6.17188 82.65 6.14062C82.5719 6 82.5094 5.8125 82.4625 5.57812C82.4156 5.375 82.3609 5.21094 82.2984 5.08594C82.2672 4.91406 82.2359 4.8125 82.2047 4.78125L82.1344 4.45312C82.1031 4.35938 82.0797 4.28906 82.0641 4.24219C82.0641 4.19531 82.0641 4.15625 82.0641 4.125C82.0484 4.07812 82.025 3.99219 81.9938 3.86719C81.9469 3.72656 81.9078 3.63281 81.8766 3.58594C81.8609 3.52344 81.8219 3.46875 81.7594 3.42188C81.775 3.34375 81.7672 3.25781 81.7359 3.16406C81.6891 3.00781 81.6578 2.91406 81.6422 2.88281C81.6266 2.85156 81.6109 2.82031 81.5953 2.78906C81.5641 2.71094 81.5484 2.64062 81.5484 2.57812C81.5484 2.5 81.5406 2.4375 81.525 2.39062C81.5094 2.34375 81.4938 2.29688 81.4781 2.25C81.4625 2.20312 81.4469 2.16406 81.4313 2.13281C81.4156 2.10156 81.3922 2.0625 81.3609 2.01562C81.3453 1.96875 81.3297 1.92969 81.3141 1.89844C81.2828 1.85156 81.2672 1.80469 81.2672 1.75781C81.2516 1.71094 81.2281 1.64844 81.1969 1.57031C81.15 1.42969 81.1266 1.32031 81.1266 1.24219C81.1266 1.13281 81.1188 1.0625 81.1031 1.03125C81.0719 1 81.0641 0.96875 81.0797 0.9375C81.1578 0.8125 81.2125 0.742187 81.2438 0.726562C81.2594 0.710938 81.275 0.6875 81.2906 0.65625C81.4938 0.625 81.65 0.609375 81.7594 0.609375C81.8844 0.609375 82.0016 0.601562 82.1109 0.585938C82.2047 0.585938 82.2906 0.585938 82.3688 0.585938C82.4469 0.570313 82.5328 0.5625 82.6266 0.5625C82.7828 0.578125 82.8609 0.585938 82.8609 0.585938C82.8609 0.570313 82.8688 0.5625 82.8844 0.5625C82.9313 0.5625 82.9781 0.570313 83.025 0.585938C83.0875 0.585938 83.15 0.578125 83.2125 0.5625C83.2594 0.5625 83.3063 0.554687 83.3531 0.539062C83.4 0.523438 83.4391 0.515625 83.4703 0.515625C83.6578 0.46875 83.7672 0.460937 83.7984 0.492188C83.8453 0.523438 83.8844 0.507812 83.9156 0.445312C83.9938 0.492188 84.0641 0.507812 84.1266 0.492188C84.2047 0.476563 84.2828 0.484375 84.3609 0.515625C84.4703 0.53125 84.5328 0.546875 84.5484 0.5625C84.5641 0.5625 84.5875 0.5625 84.6188 0.5625C84.6969 0.578125 84.775 0.585938 84.8531 0.585938C84.9469 0.570313 85.025 0.585938 85.0875 0.632812C85.2438 0.601562 85.3141 0.609375 85.2984 0.65625C85.2984 0.6875 85.3141 0.710938 85.3453 0.726562C85.4234 0.835937 85.4781 0.90625 85.5094 0.9375C85.5406 0.96875 85.5641 1.00781 85.5797 1.05469C85.5953 1.21094 85.6109 1.32031 85.6266 1.38281C85.6578 1.42969 85.6734 1.49219 85.6734 1.57031C85.6891 1.64844 85.6969 1.70312 85.6969 1.73438C85.6969 1.76563 85.7047 1.79687 85.7203 1.82812C85.7359 1.92188 85.7516 1.99219 85.7672 2.03906C85.7828 2.08594 85.7906 2.125 85.7906 2.15625C85.8219 2.23438 85.8375 2.30469 85.8375 2.36719C85.8375 2.42969 85.8453 2.5 85.8609 2.57812C85.8922 2.64062 85.9078 2.69531 85.9078 2.74219C85.9234 2.78906 85.9391 2.82812 85.9547 2.85938C86.0016 3 86.025 3.10156 86.025 3.16406C86.025 3.22656 86.0328 3.28125 86.0484 3.32812C86.0953 3.5 86.1109 3.59375 86.0953 3.60938C86.0953 3.60938 86.0953 3.61719 86.0953 3.63281C86.1422 3.74219 86.1656 3.82031 86.1656 3.86719C86.1813 3.89844 86.2047 3.92969 86.2359 3.96094C86.2672 4.08594 86.2828 4.17969 86.2828 4.24219C86.2984 4.28906 86.3141 4.33594 86.3297 4.38281C86.3453 4.42969 86.3609 4.48438 86.3766 4.54688C86.3922 4.59375 86.4156 4.63281 86.4469 4.66406C86.4313 4.75781 86.4391 4.85156 86.4703 4.94531C86.5016 5.02344 86.5328 5.10156 86.5641 5.17969C86.6109 5.35156 86.6344 5.46875 86.6344 5.53125C86.6344 5.57812 86.65 5.625 86.6813 5.67188C86.775 5.92188 86.8453 6.11719 86.8922 6.25781C86.9234 6.38281 86.9625 6.51562 87.0094 6.65625C87.0719 6.79688 87.1031 6.9375 87.1031 7.07812C87.1813 7.26562 87.2203 7.39844 87.2203 7.47656C87.2203 7.53906 87.2281 7.60156 87.2438 7.66406C87.275 7.82031 87.3141 7.92188 87.3609 7.96875C87.3922 8.14062 87.4078 8.25 87.4078 8.29688C87.4078 8.32812 87.4156 8.35938 87.4313 8.39062C87.4781 8.53125 87.5016 8.64844 87.5016 8.74219C87.5484 8.88281 87.5719 8.98438 87.5719 9.04688C87.5875 9.09375 87.6188 9.13281 87.6656 9.16406C87.7594 9.42969 87.8141 9.65625 87.8297 9.84375C87.8453 10.0312 87.8922 10.1875 87.9703 10.3125C88.0016 10.4688 88.0172 10.5781 88.0172 10.6406C88.0328 10.7031 88.0563 10.75 88.0875 10.7812Z" fill="#D0D0D0"/>
</svg>
