<svg width="622" height="423" viewBox="0 0 622 423" fill="none" xmlns="http://www.w3.org/2000/svg">
<path fill-rule="evenodd" clip-rule="evenodd" d="M281.046 357.221C244.728 367.547 182.12 371.8 102.327 372.533C28.2786 373.741 -1.27262 381.936 0.0418536 395.506C8.95104 416.443 131.538 425.311 341.658 422.49C515.12 420.342 595.789 406.453 618.817 384.257C653.723 346.101 392.436 326.053 281.046 357.221Z" fill="url(#paint0_linear_145_9472)"/>
<path opacity="0.1" d="M139.454 69.1061H432.548V376.744H139.454V69.1061Z" fill="#7BD53D"/>
<path d="M572.34 381.389V353.833H560.589L567.64 381.389H572.34Z" fill="#292678"/>
<path d="M527.116 381.389V353.833H539.448L532.046 381.389H527.116Z" fill="#292678"/>
<path d="M573.893 243.9C573.581 219.546 574.635 198.847 575.771 184.206C576.343 176.834 576.936 170.998 577.387 167.003C577.612 165.006 577.801 163.469 577.934 162.431C578.001 161.912 578.053 161.518 578.089 161.253C578.09 161.248 578.09 161.244 578.091 161.24L555.561 152.143H537.399L513.283 164.317L516.222 243.9H573.893Z" fill="white" stroke="black"/>
<path d="M547.457 183.188L547.458 183.19C547.928 185.138 548.483 187.22 549.123 189.375L549.123 189.376C552.247 199.945 557.216 212.293 562.64 220.716C565.359 224.938 568.152 228.112 570.836 229.615C572.168 230.361 573.446 230.68 574.664 230.541C575.877 230.402 577.09 229.801 578.284 228.594L578.285 228.594C584.296 222.527 587.343 212.423 588.873 202.394C590.399 192.388 590.4 182.568 590.4 177.157C590.4 171.951 587.452 168.017 584.439 165.357C582.936 164.03 581.431 163.033 580.302 162.368C579.771 162.055 579.324 161.817 579.001 161.652C577.921 167.187 577.075 177.331 576.495 186.266C576.193 190.9 575.964 195.197 575.81 198.335C575.733 199.904 575.675 201.183 575.636 202.07C575.617 202.513 575.602 202.859 575.592 203.093L575.581 203.36L575.579 203.428L575.578 203.445L575.578 203.449L575.578 203.45C575.578 203.45 575.578 203.451 575.078 203.431L575.578 203.451L575.508 205.2L574.643 203.678L560.154 178.175L560.154 178.174L557.724 173.893L546.275 177.504C546.56 179.219 546.957 181.145 547.457 183.188Z" fill="white" stroke="black"/>
<path d="M553.323 213.501L553.323 213.501L514.41 209.944L513.972 209.904L513.956 209.464L512.324 165.14C512.045 165.414 511.7 165.769 511.3 166.211C510.183 167.446 508.645 169.355 506.987 172.034C503.67 177.389 499.863 185.829 497.953 198.128C496.042 210.434 497.974 217.768 502.12 222.04C506.28 226.327 512.803 227.676 520.428 227.676H553.369H553.388H553.407H553.426H553.445H553.464H553.483H553.502H553.52H553.539H553.558H553.577H553.596H553.614H553.633H553.652H553.671H553.689H553.708H553.727H553.745H553.764H553.782H553.801H553.819H553.838H553.856H553.874H553.893H553.911H553.929H553.948H553.966H553.984H554.002H554.02H554.039H554.057H554.075H554.093H554.111H554.129H554.147H554.165H554.183H554.2H554.218H554.236H554.254H554.272H554.289H554.307H554.325H554.342H554.36H554.378H554.395H554.413H554.43H554.448H554.465H554.483H554.5H554.517H554.535H554.552H554.569H554.587H554.604H554.621H554.638H554.655H554.672H554.689H554.707H554.724H554.741H554.757H554.774H554.791H554.808H554.825H554.842H554.859H554.875H554.892H554.909H554.925H554.942H554.959H554.975H554.992H555.008H555.025H555.041H555.058H555.074H555.09H555.107H555.123H555.139H555.155H555.172H555.188H555.204H555.22H555.236H555.252H555.268H555.284H555.3H555.316H555.332H555.348H555.364H555.379H555.395H555.411H555.427H555.442H555.458H555.474H555.489H555.505H555.52H555.536H555.551H555.567H555.582H555.597H555.613H555.628H555.643H555.658H555.674H555.689H555.704H555.719H555.734H555.749H555.764H555.779H555.794H555.809H555.824H555.839H555.853H555.868H555.883H555.898H555.912H555.927H555.942H555.956H555.971H555.985H556H556.014H556.029H556.043H556.057H556.072H556.086H556.1H556.114H556.129H556.143H556.157H556.171H556.185H556.199H556.213H556.227H556.241H556.255H556.269H556.282H556.296H556.31H556.324H556.337H556.351H556.365H556.378H556.392H556.405H556.419H556.432H556.445H556.459H556.472H556.485H556.499H556.512H556.525H556.538H556.551H556.565H556.578H556.591H556.604H556.617H556.629H556.642H556.655H556.668H556.681H556.694H556.706H556.719H556.732H556.744H556.757H556.769H556.782H556.794H556.807H556.819H556.831H556.844H556.856H556.868H556.88H556.893H556.905H556.917H556.929H556.941H556.953H556.965H556.977H556.989H557.001H557.012H557.024H557.036H557.048H557.059H557.071H557.083H557.094H557.106H557.117H557.129H557.14H557.151H557.163H557.174H557.185H557.196H557.208H557.219H557.23H557.241H557.252H557.263H557.274H557.285H557.296H557.307H557.318H557.328H557.339H557.35H557.36H557.371H557.382H557.392H557.403H557.413H557.424H557.434H557.444H557.455H557.465H557.475H557.485H557.496H557.506H557.516H557.526H557.536H557.546H557.556H557.566H557.576H557.586H557.595H557.605H557.615H557.624H557.634H557.644H557.653H557.663H557.672H557.682H557.691H557.7H557.71H557.719H557.728H557.738H557.747H557.756H557.765H557.774H557.783H557.792H557.801H557.81H557.819H557.827H557.836H557.845H557.854H557.862H557.871H557.879H557.888H557.897H557.905H557.913H557.922H557.93H557.938H557.947H557.955H557.963H557.971H557.979H557.987H557.995H558.003H558.011H558.019H558.027H558.035H558.043H558.05H558.058H558.066H558.073H558.081H558.088H558.096H558.103H558.111H558.118H558.125H558.133H558.14H558.147H558.154H558.161H558.168H558.175H558.182H558.189H558.196H558.203H558.21H558.217H558.223H558.23H558.235V213.949L553.323 213.501Z" fill="white" stroke="black"/>
<path d="M558.735 216.574C558.735 216.574 572.522 215.803 573.285 228.164H558.735V216.574Z" fill="#F9A28B"/>
<path d="M446.903 363.442L466.747 367.305L491.328 280.734C491.328 280.734 522.621 283.057 548.232 286.921C573.83 290.784 573.297 256.772 573.297 256.772V244.412H532.434C532.434 244.412 492.237 242.932 473.471 247.04C468.71 248.079 465.33 249.485 464.337 251.368C463.586 252.786 462.665 256.381 461.635 261.454C455.893 289.623 446.903 363.442 446.903 363.442Z" fill="#292678"/>
<path d="M492.092 269.915L510.47 342.573L494.393 351.07L469.11 305.467L492.092 269.915Z" fill="#292678"/>
<path d="M287.813 358.65L286.565 369.47H299.6L300.848 359.42L287.813 358.65Z" fill="#F9A28B"/>
<path d="M330.711 359.42V369.47H342.971L343.734 359.42H330.711Z" fill="#F9A28B"/>
<path d="M362.888 162.303L346.036 363.283H328.421V194.775V162.303H362.888Z" fill="#2F70FE"/>
<path d="M349.101 162.303L334.551 187.048L302.374 363.283H281.694L306.202 162.303H349.101Z" fill="#2F70FE"/>
<path d="M304.855 95.9288C306.184 110.572 307.431 131.273 307.121 155.63H362.5L366.95 76.0438L342.84 63.8724H324.678L302.156 72.9663C302.156 72.9682 302.156 72.9702 302.157 72.9721C302.198 73.2371 302.259 73.6317 302.336 74.1509C302.491 75.1893 302.711 76.7264 302.972 78.7241C303.495 82.7193 304.185 88.5564 304.855 95.9288Z" fill="white" stroke="black"/>
<path d="M305.44 156.129H364.414V163.086H305.44V156.129Z" fill="#6DED02"/>
<path d="M434.292 116.909L437.297 116.249C437.297 116.249 441.464 111.799 443.693 110.002C445.935 108.204 446.019 111.09 442.966 114.647C442.966 114.647 451.108 109.207 453.821 114.036C456.814 119.367 452.101 123.902 441.513 123.927L438.339 124.991L434.292 116.909Z" fill="#F9A28B"/>
<path d="M390.362 156.41L390.362 156.41C390.824 156.316 391.648 155.974 392.805 155.385C393.944 154.805 395.359 154.011 396.98 153.052C400.223 151.136 404.271 148.574 408.562 145.78C417.141 140.193 426.668 133.692 432.603 129.603L432.604 129.603C434.384 128.381 435.84 127.373 436.851 126.67C437.356 126.319 437.75 126.044 438.018 125.857L438.085 125.811L433.085 115.014L426.925 117.196L426.924 117.197L424.975 117.893L424.974 117.894L392.142 129.545L391.647 129.721L391.496 129.217L391.975 129.074C391.496 129.217 391.496 129.217 391.496 129.216L391.496 129.215L391.494 129.208L391.486 129.182L391.455 129.078C391.427 128.986 391.385 128.85 391.331 128.671C391.222 128.315 391.062 127.79 390.853 127.121C390.437 125.782 389.83 123.864 389.071 121.548C387.553 116.915 385.426 110.691 382.989 104.324C380.55 97.9541 377.806 91.4534 375.056 86.2611C373.68 83.6645 372.309 81.4073 370.981 79.6611C369.87 78.2005 368.815 77.1325 367.841 76.51L358.828 128.93C358.864 128.973 358.907 129.023 358.955 129.081C359.136 129.295 359.402 129.609 359.744 130.008C360.428 130.806 361.413 131.946 362.62 133.308C365.033 136.034 368.329 139.651 371.863 143.217C375.399 146.786 379.16 150.293 382.505 152.807C384.179 154.065 385.733 155.063 387.092 155.697C388.467 156.338 389.565 156.571 390.362 156.41Z" fill="white" stroke="black"/>
<path d="M426.769 116.713L432.887 130.003C436.449 127.558 438.714 125.968 438.714 125.968L433.347 114.378L426.769 116.713Z" fill="#228652"/>
<path d="M236.252 113.046L233.247 112.386C233.247 112.386 229.08 107.935 226.851 106.138C224.61 104.341 224.525 107.226 227.578 110.784C227.578 110.784 219.436 105.344 216.723 110.173C213.73 115.503 218.443 120.039 229.031 120.064L232.206 121.127L236.252 113.046Z" fill="#F9A28B"/>
<path d="M302.703 72.647C301.729 73.2695 300.674 74.3374 299.563 75.7981C298.235 77.5442 296.864 79.8014 295.488 82.3981C292.738 87.5903 289.994 94.0911 287.556 100.461C285.118 106.828 282.991 113.052 281.473 117.685C280.714 120.001 280.108 121.919 279.691 123.258C279.483 123.927 279.322 124.452 279.213 124.808C279.159 124.987 279.117 125.123 279.09 125.215L279.058 125.319L279.051 125.345L279.049 125.352L279.048 125.353C279.048 125.354 279.048 125.354 278.569 125.211L279.048 125.354L278.897 125.858L278.402 125.682L245.571 114.031L245.57 114.03L243.62 113.334L243.619 113.333L237.459 111.151L232.46 121.948L232.526 121.994C232.794 122.181 233.188 122.456 233.693 122.807C234.704 123.51 236.16 124.518 237.94 125.74L237.941 125.74C243.876 129.829 253.403 136.33 261.983 141.917C266.273 144.711 270.322 147.273 273.564 149.189C275.185 150.148 276.6 150.942 277.739 151.522C278.896 152.111 279.72 152.453 280.182 152.547L280.183 152.547C280.979 152.708 282.077 152.475 283.452 151.834C284.811 151.2 286.365 150.202 288.039 148.944C291.384 146.43 295.146 142.923 298.682 139.354C302.215 135.788 305.511 132.171 307.925 129.445C309.131 128.083 310.117 126.943 310.8 126.145C311.142 125.746 311.408 125.432 311.589 125.218C311.638 125.16 311.68 125.11 311.716 125.067L302.703 72.647Z" fill="white" stroke="black"/>
<path d="M243.775 112.85L237.657 126.14C234.095 123.695 231.83 122.105 231.83 122.105L237.197 110.515L243.775 112.85Z" fill="#228652"/>
<path d="M331.656 39.5812L327.864 63.177L337.059 70.1579L342.45 65.2309L342.85 44.716L331.656 39.5812Z" fill="#F9A28B"/>
<path d="M326.265 29.128C326.265 29.128 323.866 60.1082 348.447 57.2351C373.028 54.3621 354.044 17.6357 354.044 17.6357L329.863 21.9392L326.265 29.128Z" fill="#F9A28B"/>
<path d="M329.463 33.8473C329.463 33.8473 323.066 25.2281 317.275 29.7394C311.485 34.2507 315.676 47.1734 323.466 45.743C331.256 44.3126 333.061 41.843 333.061 41.843L329.463 33.8473Z" fill="#F9A28B"/>
<path d="M331.062 41.635L334.26 27.2697C334.26 27.2697 361.834 29.1158 368.824 22.1348C375.814 15.1539 378.213 4.28516 374.021 3.05035C369.829 1.81554 358.042 13.3078 358.042 13.3078C358.042 13.3078 359.435 -3.30707 354.044 0.592962C348.653 4.493 348.253 11.2661 348.253 11.2661C348.253 11.2661 327.27 12.2931 325.877 16.4009C324.484 20.5088 325.683 21.5358 325.683 21.5358C325.683 21.5358 321.491 19.8975 320.886 21.9515C320.268 23.9932 331.062 41.635 331.062 41.635Z" fill="black"/>
<path d="M342.716 56.8194L332.431 50.6454L342.22 64.2282L342.716 56.8194Z" fill="#F9A28B"/>
<path d="M361.083 43.9577C361.083 43.9577 354.868 36.6222 344.34 40.669C333.8 44.7157 332.056 34.8495 332.056 34.8495L330.166 42.0627C330.166 42.0627 328.542 47.5032 331.244 52.4424C333.946 57.3816 345.83 63.0666 345.83 63.0666C345.83 63.0666 364.317 60.7926 361.083 43.9577Z" fill="black"/>
<path d="M507.732 344.052L509.888 349.982L500.099 354.725L497.458 349.383L507.732 344.052Z" fill="#F9A28B"/>
<path d="M514.323 359.958L509.888 349.982L500.1 354.725L487.561 374.58L514.323 359.958Z" fill="#292678"/>
<path d="M501.565 360.251L494.708 357.977" stroke="#7BD53D" stroke-width="4" stroke-miterlimit="10"/>
<path d="M497.75 363.124L492.528 361.413" stroke="#7BD53D" stroke-width="4" stroke-miterlimit="10"/>
<path d="M463.489 366.474L461.526 372.795L450.756 370.435L451.737 364.102L463.489 366.474Z" fill="#F9A28B"/>
<path d="M461.526 372.795L458.849 383.272L431.833 376.022L450.756 370.435L461.526 372.795Z" fill="#292678"/>
<path d="M447.11 369.31L447.631 374.58" stroke="#7BD53D" stroke-width="4" stroke-miterlimit="10"/>
<path d="M443.317 370.631L443.584 374.971" stroke="#7BD53D" stroke-width="4" stroke-miterlimit="10"/>
<path d="M330.711 367.098L329.657 379.372L359.399 380.607L342.377 368.149L330.711 367.098Z" fill="#292678"/>
<path d="M346.448 368.161L344.049 373.712" stroke="#7BD53D" stroke-width="4" stroke-miterlimit="10"/>
<path d="M349.792 370.863L347.975 375.497" stroke="#7BD53D" stroke-width="4" stroke-miterlimit="10"/>
<path d="M299.127 366.401L300.811 380.73L270.767 380.375L287.364 366.927L299.127 366.401Z" fill="#292678"/>
<path d="M283.245 366.707L285.959 373.284" stroke="#7BD53D" stroke-width="4" stroke-miterlimit="10"/>
<path d="M279.998 369.641L282.07 375.13" stroke="#7BD53D" stroke-width="4" stroke-miterlimit="10"/>
<path d="M493.049 279.744L478.947 323.207L485.223 333.489L493.049 279.744Z" fill="#1A1A56"/>
<path d="M343.274 186.095L331.534 194.396L328.009 220.767L329.184 250.109L333.873 197.355L343.274 186.095Z" fill="#1A1A56"/>
<path d="M518.199 355.618H583.013C584.903 355.618 586.442 354.078 586.442 352.158V293.376C586.442 288.462 582.492 284.476 577.622 284.476H523.603C518.732 284.476 514.783 288.462 514.783 293.376V352.158C514.783 354.065 516.309 355.618 518.199 355.618Z" fill="#7BD53D"/>
<path d="M346.993 65.3773L337.398 75.2558L322.909 64.1914" stroke="#228652" stroke-width="4" stroke-miterlimit="10"/>
<path d="M555.355 109.61C555.355 109.61 559.268 108.289 561.231 112.776C563.193 117.251 559.147 127.79 559.147 127.79L554.192 122.386L554.846 109.744L555.355 109.61Z" fill="black"/>
<path d="M544.335 160.217L553.189 153.66L549.455 131.005L538.865 135.74L539.265 155.705L544.335 160.217Z" fill="white" stroke="black"/>
<mask id="path-49-inside-1_145_9472" fill="white">
<path fill-rule="evenodd" clip-rule="evenodd" d="M555.438 121.286C555.422 120.365 555.379 119.831 555.379 119.831L551.684 112.642L526.885 108.339C526.885 108.339 507.417 145.065 532.628 147.938C545.073 149.356 550.775 142.525 553.359 135.243C554.651 135.672 556.256 136.091 558.239 136.445C566.234 137.876 570.547 124.953 564.599 120.442C561.333 117.965 557.884 119.446 555.438 121.286Z"/>
</mask>
<path fill-rule="evenodd" clip-rule="evenodd" d="M555.438 121.286C555.422 120.365 555.379 119.831 555.379 119.831L551.684 112.642L526.885 108.339C526.885 108.339 507.417 145.065 532.628 147.938C545.073 149.356 550.775 142.525 553.359 135.243C554.651 135.672 556.256 136.091 558.239 136.445C566.234 137.876 570.547 124.953 564.599 120.442C561.333 117.965 557.884 119.446 555.438 121.286Z" fill="white"/>
<path d="M555.379 119.831L556.269 119.374L556.36 119.552L556.376 119.752L555.379 119.831ZM555.438 121.286L556.039 122.085L554.474 123.263L554.438 121.304L555.438 121.286ZM551.684 112.642L551.855 111.657L552.346 111.742L552.574 112.185L551.684 112.642ZM526.885 108.339L526.002 107.87L526.342 107.229L527.056 107.353L526.885 108.339ZM532.628 147.938L532.741 146.944L532.628 147.938ZM553.359 135.243L552.417 134.909L552.745 133.985L553.675 134.294L553.359 135.243ZM558.239 136.445L558.062 137.43L558.239 136.445ZM564.599 120.442L565.203 119.645L564.599 120.442ZM555.379 119.831C556.376 119.752 556.376 119.752 556.376 119.752C556.376 119.752 556.376 119.752 556.376 119.752C556.376 119.752 556.376 119.752 556.376 119.752C556.376 119.752 556.376 119.753 556.376 119.753C556.376 119.753 556.376 119.754 556.376 119.755C556.377 119.757 556.377 119.759 556.377 119.761C556.377 119.766 556.378 119.774 556.379 119.783C556.38 119.802 556.382 119.829 556.384 119.863C556.389 119.932 556.395 120.033 556.401 120.162C556.414 120.421 556.43 120.796 556.438 121.268L554.438 121.304C554.43 120.855 554.416 120.502 554.404 120.264C554.398 120.145 554.392 120.054 554.388 119.994C554.386 119.964 554.385 119.942 554.384 119.928C554.383 119.921 554.383 119.916 554.383 119.913C554.383 119.911 554.382 119.91 554.382 119.91C554.382 119.91 554.382 119.91 554.382 119.91C554.382 119.91 554.382 119.91 554.382 119.91C554.382 119.91 554.382 119.91 554.382 119.91C554.382 119.91 554.382 119.91 554.382 119.91C554.382 119.91 554.382 119.91 555.379 119.831ZM552.574 112.185L556.269 119.374L554.49 120.288L550.795 113.099L552.574 112.185ZM527.056 107.353L551.855 111.657L551.513 113.627L526.714 109.324L527.056 107.353ZM532.515 148.931C525.915 148.179 522.067 145.163 520.182 140.947C518.339 136.826 518.448 131.725 519.318 126.884C520.194 122.017 521.867 117.264 523.312 113.742C524.036 111.978 524.706 110.515 525.196 109.491C525.441 108.979 525.641 108.576 525.781 108.3C525.85 108.162 525.905 108.056 525.942 107.984C525.961 107.948 525.976 107.92 525.986 107.901C525.991 107.891 525.995 107.884 525.997 107.879C525.999 107.876 526 107.874 526 107.873C526.001 107.872 526.001 107.872 526.001 107.871C526.002 107.871 526.002 107.87 526.885 108.339C527.769 108.807 527.769 108.807 527.769 108.807C527.769 108.807 527.769 108.807 527.769 108.808C527.768 108.808 527.767 108.81 527.766 108.812C527.764 108.815 527.761 108.821 527.757 108.83C527.748 108.846 527.735 108.871 527.718 108.904C527.683 108.971 527.632 109.071 527.565 109.203C527.432 109.467 527.238 109.856 527 110.354C526.524 111.35 525.87 112.778 525.162 114.502C523.745 117.956 522.127 122.564 521.287 127.238C520.442 131.938 520.41 136.557 522.008 140.13C523.562 143.608 526.735 146.26 532.741 146.944L532.515 148.931ZM554.302 135.577C552.969 139.334 550.803 143.06 547.286 145.657C543.748 148.271 538.948 149.665 532.515 148.931L532.741 146.944C538.752 147.629 543.027 146.317 546.097 144.049C549.189 141.765 551.166 138.434 552.417 134.909L554.302 135.577ZM558.062 137.43C556.038 137.068 554.386 136.638 553.044 136.192L553.675 134.294C554.916 134.706 556.474 135.114 558.415 135.461L558.062 137.43ZM565.203 119.645C568.67 122.275 569 127.186 567.586 131.018C566.165 134.87 562.735 138.266 558.062 137.43L558.415 135.461C561.738 136.056 564.462 133.706 565.71 130.326C566.964 126.926 566.475 123.12 563.995 121.239L565.203 119.645ZM554.837 120.487C556.124 119.519 557.741 118.592 559.53 118.262C561.358 117.925 563.327 118.222 565.203 119.645L563.995 121.239C562.604 120.184 561.216 119.984 559.892 120.229C558.529 120.48 557.199 121.213 556.039 122.085L554.837 120.487Z" fill="black" mask="url(#path-49-inside-1_145_9472)"/>
<path d="M552.423 130.223C552.423 130.223 560.649 112.642 558.105 105.136C555.561 97.629 543.228 104.94 532.652 99.2061C532.652 99.2061 525.347 96.3086 521.167 101.578C516.988 106.847 521.688 116.066 528.085 114.623C534.481 113.168 544.403 110.014 546.354 113.437C548.316 116.86 551.054 117.52 551.054 117.52L552.423 130.223Z" fill="black"/>
<path d="M556.397 174.346C556.397 174.346 556.034 169.847 555.501 165.568C554.968 161.289 552.315 154.858 550.727 154.332C549.14 153.795 549.14 157.01 549.14 157.01C549.14 157.01 543.301 151.655 541.181 151.655C539.061 151.655 545.954 160.751 545.954 160.751C545.954 160.751 541.714 163.428 542.768 166.106C543.822 168.783 549.189 176.632 549.189 176.632L556.397 174.346Z" fill="#F9A28B"/>
<path d="M442.979 114.635L444.76 120.503" stroke="#2F011C" stroke-width="4" stroke-miterlimit="10"/>
<path d="M455.202 112.984L447.631 115.234" stroke="#2F011C" stroke-width="4" stroke-miterlimit="10"/>
<path d="M455.202 117.202L449.06 117.068" stroke="#2F011C" stroke-width="4" stroke-miterlimit="10"/>
<path d="M454.936 121.029L448.672 119.317" stroke="#2F011C" stroke-width="4" stroke-miterlimit="10"/>
<path d="M565.483 222.845L573.576 226.525" stroke="#2F011C" stroke-width="4" stroke-miterlimit="10"/>
<path d="M567.179 220.474L571.359 221.916" stroke="#2F011C" stroke-width="4" stroke-miterlimit="10"/>
<path d="M216.601 108.253L222.283 110.821" stroke="#2F011C" stroke-width="4" stroke-miterlimit="10"/>
<path d="M214.942 111.016L221.896 112.985" stroke="#2F011C" stroke-width="4" stroke-miterlimit="10"/>
<path d="M215.135 114.769L221.702 115.356" stroke="#2F011C" stroke-width="4" stroke-miterlimit="10"/>
<path d="M325.162 38.2115C325.162 38.2115 324.678 32.2819 316.549 33.9691" stroke="black" stroke-width="4" stroke-miterlimit="10"/>
<path d="M320.243 38.3095C320.243 38.3095 320.764 35.2775 323.902 35.4119" stroke="black" stroke-width="4" stroke-miterlimit="10"/>
<path d="M157.094 202.685H436.667V209.801H157.094V202.685Z" fill="#CBCBCB"/>
<path d="M208.182 379.519L192.917 208.028" stroke="#228652" stroke-width="4" stroke-miterlimit="10"/>
<path d="M182.741 209.214L169.027 377.942" stroke="#228652" stroke-width="4" stroke-miterlimit="10"/>
<path d="M205.056 345.531L171.377 345.935" stroke="#228652" stroke-width="4" stroke-miterlimit="10"/>
<path d="M208.182 379.519L192.917 208.028" stroke="#979797" stroke-width="4" stroke-miterlimit="10"/>
<path d="M182.741 209.214L169.027 377.942" stroke="#979797" stroke-width="4" stroke-miterlimit="10"/>
<path d="M205.056 345.531L171.377 345.935" stroke="#228652" stroke-width="4" stroke-miterlimit="10"/>
<path d="M424.721 380.106L409.445 208.615" stroke="#979797" stroke-width="4" stroke-miterlimit="10"/>
<path d="M399.268 209.801L385.566 378.529" stroke="#979797" stroke-width="4" stroke-miterlimit="10"/>
<path d="M421.583 346.13L387.917 346.522" stroke="#228652" stroke-width="4" stroke-miterlimit="10"/>
<path d="M221.702 202.686C221.702 202.686 217.389 184.909 203.687 185.692C189.985 186.486 186.847 202.686 186.847 202.686H221.702Z" fill="#979797"/>
<path d="M212.156 145.151L205.262 181.364C205.141 181.999 204.523 182.415 203.893 182.293C203.3 182.17 202.9 181.62 202.972 181.021L206.934 144.601C207.007 143.977 207.552 143.512 208.17 143.561L211.102 143.769C211.792 143.818 212.289 144.466 212.156 145.151Z" fill="#979797"/>
<path d="M213.343 140.92C211.556 140.92 210.108 139.459 210.108 137.656C210.108 135.853 211.556 134.392 213.343 134.392C215.129 134.392 216.577 135.853 216.577 137.656C216.577 139.459 215.129 140.92 213.343 140.92Z" fill="#979797"/>
<path d="M244.151 158.99L221.811 139.221C221.242 138.72 220.381 138.769 219.873 139.331C219.376 139.881 219.388 140.713 219.897 141.251L239.038 161.448C239.341 161.765 239.789 161.924 240.226 161.863L243.424 161.435C244.599 161.289 245.059 159.785 244.151 158.99Z" fill="#979797"/>
<path d="M261.378 175.568L239.498 181.804C239.498 181.804 231.999 166.13 245.726 162.866C258.87 159.712 261.378 175.568 261.378 175.568Z" fill="#979797"/>
<path d="M254.552 178.191C254.516 178.011 254.478 177.863 254.449 177.758L246.726 179.97C246.795 180.086 246.891 180.242 247.015 180.422C247.285 180.818 247.681 181.327 248.185 181.791C249.194 182.719 250.604 183.435 252.313 182.743C253.184 182.39 253.74 181.894 254.092 181.354C254.444 180.812 254.598 180.215 254.644 179.654C254.69 179.092 254.627 178.572 254.552 178.191Z" fill="white" stroke="black" stroke-width="0.4"/>
<path d="M586.369 306.164L586.115 347.06C586.091 351.498 582.553 355.104 578.155 355.165L545.494 355.654" stroke="#228652" stroke-width="4" stroke-miterlimit="10"/>
<path d="M575.332 287.801C575.332 287.801 582.868 292.826 584.612 299.208" stroke="#228652" stroke-width="4" stroke-miterlimit="10"/>
<path d="M183.359 96.5533L179.118 99.6097L173.376 93.2034" fill="white"/>
<path d="M183.359 96.5533L179.118 99.6097L173.376 93.2034" stroke="#7BD53D" stroke-miterlimit="10"/>
<path d="M127.352 193.822C127.352 193.822 135.42 202.783 140.266 237.419C145.112 272.055 139.758 296.702 139.758 296.702L129.46 296.091C129.472 296.091 130.684 198.822 127.352 193.822Z" fill="#6DED02"/>
<path d="M132.804 212.674C132.804 212.674 137.65 278.975 133.107 304.037" stroke="#0AC41E" stroke-width="2" stroke-miterlimit="10"/>
<path d="M94.8725 209.41C94.8725 209.41 105.097 215.743 119.308 247.652C133.519 279.549 135.19 304.722 135.19 304.722L125.135 307.033C125.135 307.033 99.4518 213.273 94.8725 209.41Z" fill="#6DED02"/>
<path d="M105.304 225.976C105.304 225.976 128.261 288.29 130.805 313.634" stroke="#0AC41E" stroke-width="2" stroke-miterlimit="10"/>
<path d="M159.105 226.734C159.105 226.734 148.044 234.925 139.346 269.023C130.647 303.12 135.82 328.196 135.82 328.196L149.171 328.538C149.171 328.538 154.441 231.404 159.105 226.734Z" fill="#6DED02"/>
<path d="M150.734 245.023C150.734 245.023 139.806 310.712 143.913 336.13" stroke="#0AC41E" stroke-width="2" stroke-miterlimit="10"/>
<path d="M170.105 256.883C170.105 256.883 162 260.22 151.4 279.953C140.8 299.685 140.157 316.007 140.157 316.007L148.359 318.305C148.359 318.305 166.507 259.047 170.105 256.883Z" fill="#6DED02"/>
<path d="M162.122 266.896C162.122 266.896 145.294 305.822 143.937 322.181" stroke="#0AC41E" stroke-width="2" stroke-miterlimit="10"/>
<path d="M90.0264 262.347C90.0264 262.347 98.531 262.078 112.245 274.451C125.959 286.823 129.339 300.101 129.339 300.101L121.682 305.076C121.682 305.076 93.9152 262.787 90.0264 262.347Z" fill="#6DED02"/>
<path d="M99.5368 267.641C99.5368 267.641 122.579 293.584 126.662 306.629" stroke="#0AC41E" stroke-width="2" stroke-miterlimit="10"/>
<path d="M157.627 294.868L152.781 376.756H120.083L112.208 292.423L157.627 294.868Z" fill="#979797"/>
<path d="M157.021 308.915L113.723 307.387L112.208 292.423L157.627 294.868L157.021 301.592" stroke="#002F7A" stroke-width="2" stroke-miterlimit="10"/>
<defs>
<linearGradient id="paint0_linear_145_9472" x1="299.926" y1="432.841" x2="300.444" y2="362.888" gradientUnits="userSpaceOnUse">
<stop stop-color="white" stop-opacity="0"/>
<stop offset="1" stop-color="#82A9FF" stop-opacity="0.21"/>
</linearGradient>
</defs>
</svg>
